G04*
G04 #@! TF.GenerationSoftware,Altium Limited,Altium Designer,22.3.1 (43)*
G04*
G04 Layer_Physical_Order=2*
G04 Layer_Color=9720587*
%FSLAX42Y42*%
%MOMM*%
G71*
G04*
G04 #@! TF.SameCoordinates,6068DB95-D491-4E89-B998-42626CC7F2F7*
G04*
G04*
G04 #@! TF.FilePolarity,Positive*
G04*
G01*
G75*
G04:AMPARAMS|DCode=10|XSize=1.4mm|YSize=1.4mm|CornerRadius=0.07mm|HoleSize=0mm|Usage=FLASHONLY|Rotation=0.000|XOffset=0mm|YOffset=0mm|HoleType=Round|Shape=RoundedRectangle|*
%AMROUNDEDRECTD10*
21,1,1.40,1.26,0,0,0.0*
21,1,1.26,1.40,0,0,0.0*
1,1,0.14,0.63,-0.63*
1,1,0.14,-0.63,-0.63*
1,1,0.14,-0.63,0.63*
1,1,0.14,0.63,0.63*
%
%ADD10ROUNDEDRECTD10*%
G04:AMPARAMS|DCode=11|XSize=0.6mm|YSize=1.55mm|CornerRadius=0.03mm|HoleSize=0mm|Usage=FLASHONLY|Rotation=90.000|XOffset=0mm|YOffset=0mm|HoleType=Round|Shape=RoundedRectangle|*
%AMROUNDEDRECTD11*
21,1,0.60,1.49,0,0,90.0*
21,1,0.54,1.55,0,0,90.0*
1,1,0.06,0.75,0.27*
1,1,0.06,0.75,-0.27*
1,1,0.06,-0.75,-0.27*
1,1,0.06,-0.75,0.27*
%
%ADD11ROUNDEDRECTD11*%
%ADD12C,0.30*%
%ADD13C,0.20*%
%ADD14C,0.10*%
%ADD15C,1.40*%
G36*
X1650Y1930D02*
X1655Y1891D01*
X1665Y1853D01*
X1680Y1817D01*
X1700Y1783D01*
X1724Y1752D01*
X1752Y1724D01*
X1783Y1700D01*
X1817Y1680D01*
X1853Y1665D01*
X1891Y1655D01*
X1930Y1650D01*
X2139D01*
Y550D01*
X1930D01*
X1891Y545D01*
X1853Y535D01*
X1817Y520D01*
X1783Y500D01*
X1752Y476D01*
X1724Y448D01*
X1700Y417D01*
X1680Y383D01*
X1665Y347D01*
X1655Y309D01*
X1650Y270D01*
Y61D01*
X550D01*
Y270D01*
X545Y309D01*
X535Y347D01*
X520Y383D01*
X500Y417D01*
X476Y448D01*
X448Y476D01*
X417Y500D01*
X383Y520D01*
X347Y535D01*
X309Y545D01*
X270Y550D01*
X61D01*
Y1650D01*
X270D01*
X309Y1655D01*
X347Y1665D01*
X383Y1680D01*
X417Y1700D01*
X448Y1724D01*
X476Y1752D01*
X500Y1783D01*
X520Y1817D01*
X535Y1853D01*
X545Y1891D01*
X550Y1930D01*
Y2139D01*
X1650D01*
Y1930D01*
D02*
G37*
%LPC*%
G36*
X1413Y1680D02*
X1387D01*
X1361Y1673D01*
X1339Y1660D01*
X1336Y1658D01*
X1400Y1594D01*
X1464Y1658D01*
X1461Y1660D01*
X1439Y1673D01*
X1413Y1680D01*
D02*
G37*
G36*
X1478Y1644D02*
X1414Y1580D01*
X1478Y1516D01*
X1480Y1519D01*
X1493Y1541D01*
X1500Y1567D01*
Y1593D01*
X1493Y1619D01*
X1480Y1641D01*
X1478Y1644D01*
D02*
G37*
G36*
X1400Y1566D02*
X1336Y1502D01*
X1339Y1500D01*
X1361Y1487D01*
X1387Y1480D01*
X1413D01*
X1439Y1487D01*
X1461Y1500D01*
X1464Y1502D01*
X1400Y1566D01*
D02*
G37*
G36*
X905Y1351D02*
X840D01*
Y1301D01*
X938D01*
Y1318D01*
X936Y1330D01*
X928Y1341D01*
X917Y1349D01*
X905Y1351D01*
D02*
G37*
G36*
X820D02*
X755D01*
X743Y1349D01*
X732Y1341D01*
X724Y1330D01*
X722Y1318D01*
Y1301D01*
X820D01*
Y1351D01*
D02*
G37*
G36*
X1530Y1816D02*
X903D01*
X886Y1812D01*
X871Y1802D01*
X768Y1699D01*
X758Y1684D01*
X755Y1669D01*
X739Y1660D01*
X720Y1641D01*
X707Y1619D01*
X700Y1593D01*
Y1567D01*
X707Y1541D01*
X720Y1519D01*
X739Y1500D01*
X761Y1487D01*
X787Y1480D01*
X813D01*
X839Y1487D01*
X861Y1500D01*
X880Y1519D01*
X893Y1541D01*
X893Y1542D01*
X907D01*
X907Y1541D01*
X920Y1519D01*
X939Y1500D01*
X959Y1488D01*
Y1237D01*
X936Y1214D01*
X928Y1214D01*
X920Y1220D01*
X919Y1226D01*
Y1228D01*
X920Y1234D01*
X928Y1240D01*
X936Y1251D01*
X938Y1264D01*
Y1281D01*
X830D01*
X722D01*
Y1264D01*
X724Y1251D01*
X732Y1240D01*
X740Y1234D01*
X741Y1228D01*
Y1226D01*
X740Y1220D01*
X732Y1214D01*
X724Y1203D01*
X722Y1190D01*
Y1136D01*
X724Y1124D01*
X732Y1113D01*
X740Y1107D01*
X741Y1101D01*
Y1099D01*
X740Y1093D01*
X732Y1087D01*
X724Y1076D01*
X722Y1064D01*
Y1010D01*
X724Y997D01*
X732Y986D01*
X740Y980D01*
X741Y974D01*
Y972D01*
X740Y966D01*
X732Y960D01*
X724Y949D01*
X722Y936D01*
Y882D01*
X724Y870D01*
X732Y859D01*
X743Y851D01*
X755Y849D01*
X905D01*
X917Y851D01*
X928Y859D01*
X936Y870D01*
X938Y882D01*
Y936D01*
X936Y949D01*
X928Y960D01*
X920Y966D01*
X919Y972D01*
Y974D01*
X920Y980D01*
X928Y986D01*
X935Y996D01*
X946D01*
X947Y996D01*
X962Y999D01*
X975Y1008D01*
X1109Y1141D01*
X1118Y1154D01*
X1121Y1170D01*
X1121Y1170D01*
Y1443D01*
X1164Y1486D01*
X1187Y1480D01*
X1213D01*
X1239Y1487D01*
X1261Y1500D01*
X1280Y1519D01*
X1293Y1541D01*
X1293Y1542D01*
X1307D01*
X1307Y1541D01*
X1320Y1519D01*
X1322Y1516D01*
X1386Y1580D01*
X1322Y1644D01*
X1320Y1641D01*
X1307Y1619D01*
X1307Y1618D01*
X1293D01*
X1293Y1619D01*
X1280Y1641D01*
X1261Y1660D01*
X1239Y1673D01*
X1213Y1680D01*
X1187D01*
X1161Y1673D01*
X1139Y1660D01*
X1120Y1641D01*
X1107Y1619D01*
X1107Y1618D01*
X1093D01*
X1093Y1619D01*
X1080Y1641D01*
X1061Y1660D01*
X1039Y1673D01*
X1013Y1680D01*
X987D01*
X961Y1673D01*
X939Y1660D01*
X920Y1641D01*
X907Y1619D01*
X907Y1618D01*
X893D01*
X893Y1619D01*
X880Y1641D01*
X861Y1660D01*
X861Y1663D01*
X922Y1724D01*
X1511D01*
X1604Y1631D01*
Y1301D01*
X1593D01*
X1578Y1298D01*
X1566Y1290D01*
X1558Y1277D01*
X1555Y1263D01*
Y1246D01*
X1550D01*
X1532Y1242D01*
X1518Y1232D01*
X1494Y1209D01*
X1472D01*
X1468Y1214D01*
X1460Y1220D01*
X1459Y1226D01*
Y1228D01*
X1460Y1234D01*
X1468Y1240D01*
X1476Y1251D01*
X1478Y1264D01*
Y1318D01*
X1476Y1330D01*
X1468Y1341D01*
X1457Y1349D01*
X1444Y1351D01*
X1295D01*
X1283Y1349D01*
X1272Y1341D01*
X1264Y1330D01*
X1262Y1318D01*
Y1264D01*
X1264Y1251D01*
X1272Y1240D01*
X1280Y1234D01*
X1281Y1228D01*
Y1226D01*
X1280Y1220D01*
X1272Y1214D01*
X1264Y1203D01*
X1262Y1190D01*
Y1136D01*
X1264Y1124D01*
X1272Y1113D01*
X1280Y1107D01*
X1281Y1101D01*
Y1099D01*
X1280Y1093D01*
X1272Y1087D01*
X1264Y1076D01*
X1262Y1064D01*
Y1010D01*
X1264Y997D01*
X1272Y986D01*
X1280Y980D01*
X1281Y974D01*
Y972D01*
X1280Y966D01*
X1272Y960D01*
X1264Y949D01*
X1262Y936D01*
Y920D01*
X1370D01*
X1478D01*
Y936D01*
X1476Y949D01*
X1468Y960D01*
X1460Y966D01*
X1459Y972D01*
Y974D01*
X1460Y980D01*
X1468Y986D01*
X1476Y997D01*
X1478Y1010D01*
Y1064D01*
X1476Y1076D01*
X1468Y1087D01*
X1460Y1093D01*
X1459Y1099D01*
Y1101D01*
X1460Y1107D01*
X1468Y1113D01*
X1472Y1118D01*
X1514D01*
X1531Y1121D01*
X1544Y1129D01*
X1552Y1128D01*
X1557Y1125D01*
X1558Y1123D01*
X1566Y1110D01*
X1570Y1108D01*
Y1092D01*
X1566Y1090D01*
X1558Y1077D01*
X1555Y1063D01*
Y1010D01*
X1756D01*
Y1063D01*
X1754Y1077D01*
X1745Y1090D01*
X1741Y1092D01*
Y1108D01*
X1745Y1110D01*
X1754Y1123D01*
X1756Y1137D01*
Y1263D01*
X1754Y1277D01*
X1745Y1290D01*
X1733Y1298D01*
X1719Y1301D01*
X1696D01*
Y1650D01*
X1692Y1668D01*
X1682Y1682D01*
X1562Y1802D01*
X1548Y1812D01*
X1530Y1816D01*
D02*
G37*
G36*
X1756Y990D02*
X1666D01*
Y899D01*
X1719D01*
X1733Y902D01*
X1745Y910D01*
X1754Y923D01*
X1756Y937D01*
Y990D01*
D02*
G37*
G36*
X1646D02*
X1555D01*
Y937D01*
X1558Y923D01*
X1566Y910D01*
X1578Y902D01*
X1593Y899D01*
X1646D01*
Y990D01*
D02*
G37*
G36*
X1478Y900D02*
X1380D01*
Y849D01*
X1444D01*
X1457Y851D01*
X1468Y859D01*
X1476Y870D01*
X1478Y882D01*
Y900D01*
D02*
G37*
G36*
X1360D02*
X1262D01*
Y882D01*
X1264Y870D01*
X1272Y859D01*
X1283Y851D01*
X1295Y849D01*
X1360D01*
Y900D01*
D02*
G37*
%LPD*%
D10*
X1656Y1200D02*
D03*
Y1000D02*
D03*
D11*
X830Y910D02*
D03*
Y1036D02*
D03*
Y1164D02*
D03*
Y1290D02*
D03*
X1370Y910D02*
D03*
Y1036D02*
D03*
Y1164D02*
D03*
Y1290D02*
D03*
D12*
X800Y1580D02*
Y1667D01*
X903Y1770D02*
X1530D01*
X800Y1667D02*
X903Y1770D01*
X1530D02*
X1650Y1650D01*
Y1206D02*
Y1650D01*
Y1206D02*
X1656Y1200D01*
X1370Y1164D02*
Y1290D01*
Y1164D02*
X1514D01*
X1550Y1200D01*
X1656D01*
D13*
X830Y1036D02*
X947D01*
X1080Y1170D02*
Y1460D01*
X947Y1036D02*
X1080Y1170D01*
Y1460D02*
X1200Y1580D01*
X830Y1164D02*
X944D01*
X1000Y1220D01*
Y1580D01*
D14*
X250Y1790D02*
G03*
X410Y1950I0J160D01*
G01*
D02*
G03*
X250Y2110I-160J0D01*
G01*
D02*
G03*
X90Y1950I0J-160D01*
G01*
D02*
G03*
X250Y1790I160J0D01*
G01*
X250Y410D02*
G03*
X90Y250I0J-160D01*
G01*
X410D02*
G03*
X250Y410I-160J0D01*
G01*
Y90D02*
G03*
X410Y250I0J160D01*
G01*
X90D02*
G03*
X250Y90I160J0D01*
G01*
X1950Y410D02*
G03*
X1790Y250I0J-160D01*
G01*
X2110D02*
G03*
X1950Y410I-160J0D01*
G01*
Y90D02*
G03*
X2110Y250I0J160D01*
G01*
X1790D02*
G03*
X1950Y90I160J0D01*
G01*
X1950Y2110D02*
G03*
X1790Y1950I0J-160D01*
G01*
X2110D02*
G03*
X1950Y2110I-160J0D01*
G01*
Y1790D02*
G03*
X2110Y1950I0J160D01*
G01*
X1790D02*
G03*
X1950Y1790I160J0D01*
G01*
X250Y2200D02*
G03*
X0Y1950I0J-250D01*
G01*
X2200D02*
G03*
X1950Y2200I-250J0D01*
G01*
Y0D02*
G03*
X2200Y250I0J250D01*
G01*
X0D02*
G03*
X250Y0I250J0D01*
G01*
X0Y250D02*
Y1950D01*
X250Y2200D02*
X1950D01*
X2200Y250D02*
Y1950D01*
X250Y0D02*
X1950D01*
D15*
X1000Y1580D02*
D03*
X1400D02*
D03*
X800D02*
D03*
X1200D02*
D03*
M02*
