G04*
G04 #@! TF.GenerationSoftware,Altium Limited,Altium Designer,22.3.1 (43)*
G04*
G04 Layer_Color=8388736*
%FSLAX42Y42*%
%MOMM*%
G71*
G04*
G04 #@! TF.SameCoordinates,DE2D453C-2018-43DC-BA3E-C0A36525B8C9*
G04*
G04*
G04 #@! TF.FilePolarity,Negative*
G04*
G01*
G75*
G04:AMPARAMS|DCode=22|XSize=1.6mm|YSize=1.6mm|CornerRadius=0.17mm|HoleSize=0mm|Usage=FLASHONLY|Rotation=270.000|XOffset=0mm|YOffset=0mm|HoleType=Round|Shape=RoundedRectangle|*
%AMROUNDEDRECTD22*
21,1,1.60,1.26,0,0,270.0*
21,1,1.26,1.60,0,0,270.0*
1,1,0.34,-0.63,-0.63*
1,1,0.34,-0.63,0.63*
1,1,0.34,0.63,0.63*
1,1,0.34,0.63,-0.63*
%
%ADD22ROUNDEDRECTD22*%
%ADD23R,1.65X0.50*%
%ADD24R,0.50X1.65*%
G04:AMPARAMS|DCode=25|XSize=1.6mm|YSize=1.6mm|CornerRadius=0.17mm|HoleSize=0mm|Usage=FLASHONLY|Rotation=0.000|XOffset=0mm|YOffset=0mm|HoleType=Round|Shape=RoundedRectangle|*
%AMROUNDEDRECTD25*
21,1,1.60,1.26,0,0,0.0*
21,1,1.26,1.60,0,0,0.0*
1,1,0.34,0.63,-0.63*
1,1,0.34,-0.63,-0.63*
1,1,0.34,-0.63,0.63*
1,1,0.34,0.63,0.63*
%
%ADD25ROUNDEDRECTD25*%
G04:AMPARAMS|DCode=26|XSize=2.2mm|YSize=2mm|CornerRadius=0.19mm|HoleSize=0mm|Usage=FLASHONLY|Rotation=90.000|XOffset=0mm|YOffset=0mm|HoleType=Round|Shape=RoundedRectangle|*
%AMROUNDEDRECTD26*
21,1,2.20,1.62,0,0,90.0*
21,1,1.82,2.00,0,0,90.0*
1,1,0.38,0.81,0.91*
1,1,0.38,0.81,-0.91*
1,1,0.38,-0.81,-0.91*
1,1,0.38,-0.81,0.91*
%
%ADD26ROUNDEDRECTD26*%
G04:AMPARAMS|DCode=27|XSize=3.45mm|YSize=2.35mm|CornerRadius=0.21mm|HoleSize=0mm|Usage=FLASHONLY|Rotation=180.000|XOffset=0mm|YOffset=0mm|HoleType=Round|Shape=RoundedRectangle|*
%AMROUNDEDRECTD27*
21,1,3.45,1.94,0,0,180.0*
21,1,3.04,2.35,0,0,180.0*
1,1,0.42,-1.52,0.97*
1,1,0.42,1.52,0.97*
1,1,0.42,1.52,-0.97*
1,1,0.42,-1.52,-0.97*
%
%ADD27ROUNDEDRECTD27*%
G04:AMPARAMS|DCode=28|XSize=1.2mm|YSize=2.35mm|CornerRadius=0.15mm|HoleSize=0mm|Usage=FLASHONLY|Rotation=180.000|XOffset=0mm|YOffset=0mm|HoleType=Round|Shape=RoundedRectangle|*
%AMROUNDEDRECTD28*
21,1,1.20,2.05,0,0,180.0*
21,1,0.90,2.35,0,0,180.0*
1,1,0.30,-0.45,1.02*
1,1,0.30,0.45,1.02*
1,1,0.30,0.45,-1.02*
1,1,0.30,-0.45,-1.02*
%
%ADD28ROUNDEDRECTD28*%
G04:AMPARAMS|DCode=29|XSize=2.4mm|YSize=1.8mm|CornerRadius=0.18mm|HoleSize=0mm|Usage=FLASHONLY|Rotation=270.000|XOffset=0mm|YOffset=0mm|HoleType=Round|Shape=RoundedRectangle|*
%AMROUNDEDRECTD29*
21,1,2.40,1.44,0,0,270.0*
21,1,2.04,1.80,0,0,270.0*
1,1,0.36,-0.72,-1.02*
1,1,0.36,-0.72,1.02*
1,1,0.36,0.72,1.02*
1,1,0.36,0.72,-1.02*
%
%ADD29ROUNDEDRECTD29*%
G04:AMPARAMS|DCode=30|XSize=0.8mm|YSize=1.2mm|CornerRadius=0.13mm|HoleSize=0mm|Usage=FLASHONLY|Rotation=0.000|XOffset=0mm|YOffset=0mm|HoleType=Round|Shape=RoundedRectangle|*
%AMROUNDEDRECTD30*
21,1,0.80,0.94,0,0,0.0*
21,1,0.54,1.20,0,0,0.0*
1,1,0.26,0.27,-0.47*
1,1,0.26,-0.27,-0.47*
1,1,0.26,-0.27,0.47*
1,1,0.26,0.27,0.47*
%
%ADD30ROUNDEDRECTD30*%
%ADD31C,2.00*%
G04:AMPARAMS|DCode=32|XSize=2mm|YSize=2mm|CornerRadius=0.19mm|HoleSize=0mm|Usage=FLASHONLY|Rotation=270.000|XOffset=0mm|YOffset=0mm|HoleType=Round|Shape=RoundedRectangle|*
%AMROUNDEDRECTD32*
21,1,2.00,1.62,0,0,270.0*
21,1,1.62,2.00,0,0,270.0*
1,1,0.38,-0.81,-0.81*
1,1,0.38,-0.81,0.81*
1,1,0.38,0.81,0.81*
1,1,0.38,0.81,-0.81*
%
%ADD32ROUNDEDRECTD32*%
G04:AMPARAMS|DCode=33|XSize=1.8mm|YSize=1.8mm|CornerRadius=0.18mm|HoleSize=0mm|Usage=FLASHONLY|Rotation=180.000|XOffset=0mm|YOffset=0mm|HoleType=Round|Shape=RoundedRectangle|*
%AMROUNDEDRECTD33*
21,1,1.80,1.44,0,0,180.0*
21,1,1.44,1.80,0,0,180.0*
1,1,0.36,-0.72,0.72*
1,1,0.36,0.72,0.72*
1,1,0.36,0.72,-0.72*
1,1,0.36,-0.72,-0.72*
%
%ADD33ROUNDEDRECTD33*%
%ADD34C,3.40*%
%ADD35C,1.80*%
%ADD36C,1.60*%
D22*
X1880Y3280D02*
D03*
X2080D02*
D03*
X2450Y1631D02*
D03*
X2250D02*
D03*
X2450Y1831D02*
D03*
X2250D02*
D03*
X3510Y2300D02*
D03*
X3310D02*
D03*
D23*
X1877Y2335D02*
D03*
Y2385D02*
D03*
Y2435D02*
D03*
Y2485D02*
D03*
Y2535D02*
D03*
Y2585D02*
D03*
Y2635D02*
D03*
Y2685D02*
D03*
Y2735D02*
D03*
Y2785D02*
D03*
Y2835D02*
D03*
Y2885D02*
D03*
X2723D02*
D03*
Y2835D02*
D03*
Y2785D02*
D03*
Y2735D02*
D03*
Y2685D02*
D03*
Y2635D02*
D03*
Y2585D02*
D03*
Y2535D02*
D03*
Y2485D02*
D03*
Y2435D02*
D03*
Y2385D02*
D03*
Y2335D02*
D03*
D24*
X2025Y3033D02*
D03*
X2075D02*
D03*
X2125D02*
D03*
X2175D02*
D03*
X2225D02*
D03*
X2275D02*
D03*
X2325D02*
D03*
X2375D02*
D03*
X2425D02*
D03*
X2475D02*
D03*
X2525D02*
D03*
X2575D02*
D03*
Y2188D02*
D03*
X2525D02*
D03*
X2475D02*
D03*
X2425D02*
D03*
X2375D02*
D03*
X2325D02*
D03*
X2275D02*
D03*
X2225D02*
D03*
X2175D02*
D03*
X2125D02*
D03*
X2075D02*
D03*
X2025D02*
D03*
D25*
X1630Y2650D02*
D03*
Y2850D02*
D03*
Y2250D02*
D03*
Y2450D02*
D03*
X2050Y1830D02*
D03*
Y1630D02*
D03*
X2970Y2960D02*
D03*
Y2760D02*
D03*
X2400Y4270D02*
D03*
Y4470D02*
D03*
X2200Y4270D02*
D03*
Y4470D02*
D03*
X2000Y4270D02*
D03*
Y4470D02*
D03*
D26*
X1240Y3690D02*
D03*
X1520D02*
D03*
X1240Y3430D02*
D03*
X1520D02*
D03*
X1240Y4830D02*
D03*
X1520D02*
D03*
D27*
X1380Y4553D02*
D03*
D28*
X1610Y3967D02*
D03*
X1380D02*
D03*
X1150D02*
D03*
D29*
X1590Y5180D02*
D03*
X1170D02*
D03*
D30*
X2100Y4850D02*
D03*
X2005Y5090D02*
D03*
X2195D02*
D03*
X2500Y4850D02*
D03*
X2405Y5090D02*
D03*
X2595D02*
D03*
D31*
X200Y3482D02*
D03*
Y3736D02*
D03*
Y3990D02*
D03*
D32*
Y4244D02*
D03*
D33*
X2175Y5585D02*
D03*
D34*
X1698Y6056D02*
D03*
X2902D02*
D03*
D35*
X2425Y5585D02*
D03*
X2175Y5785D02*
D03*
X2425D02*
D03*
D36*
X4000Y2500D02*
D03*
Y2100D02*
D03*
Y2700D02*
D03*
Y2900D02*
D03*
Y2300D02*
D03*
M02*
