G04*
G04 #@! TF.GenerationSoftware,Altium Limited,Altium Designer,22.3.1 (43)*
G04*
G04 Layer_Physical_Order=1*
G04 Layer_Color=255*
%FSLAX42Y42*%
%MOMM*%
G71*
G04*
G04 #@! TF.SameCoordinates,DE2D453C-2018-43DC-BA3E-C0A36525B8C9*
G04*
G04*
G04 #@! TF.FilePolarity,Positive*
G04*
G01*
G75*
%ADD11C,0.20*%
G04:AMPARAMS|DCode=13|XSize=1.4mm|YSize=1.4mm|CornerRadius=0.07mm|HoleSize=0mm|Usage=FLASHONLY|Rotation=270.000|XOffset=0mm|YOffset=0mm|HoleType=Round|Shape=RoundedRectangle|*
%AMROUNDEDRECTD13*
21,1,1.40,1.26,0,0,270.0*
21,1,1.26,1.40,0,0,270.0*
1,1,0.14,-0.63,-0.63*
1,1,0.14,-0.63,0.63*
1,1,0.14,0.63,0.63*
1,1,0.14,0.63,-0.63*
%
%ADD13ROUNDEDRECTD13*%
%ADD14R,1.45X0.30*%
%ADD15R,0.30X1.45*%
G04:AMPARAMS|DCode=16|XSize=1.4mm|YSize=1.4mm|CornerRadius=0.07mm|HoleSize=0mm|Usage=FLASHONLY|Rotation=0.000|XOffset=0mm|YOffset=0mm|HoleType=Round|Shape=RoundedRectangle|*
%AMROUNDEDRECTD16*
21,1,1.40,1.26,0,0,0.0*
21,1,1.26,1.40,0,0,0.0*
1,1,0.14,0.63,-0.63*
1,1,0.14,-0.63,-0.63*
1,1,0.14,-0.63,0.63*
1,1,0.14,0.63,0.63*
%
%ADD16ROUNDEDRECTD16*%
G04:AMPARAMS|DCode=17|XSize=2mm|YSize=1.8mm|CornerRadius=0.09mm|HoleSize=0mm|Usage=FLASHONLY|Rotation=90.000|XOffset=0mm|YOffset=0mm|HoleType=Round|Shape=RoundedRectangle|*
%AMROUNDEDRECTD17*
21,1,2.00,1.62,0,0,90.0*
21,1,1.82,1.80,0,0,90.0*
1,1,0.18,0.81,0.91*
1,1,0.18,0.81,-0.91*
1,1,0.18,-0.81,-0.91*
1,1,0.18,-0.81,0.91*
%
%ADD17ROUNDEDRECTD17*%
G04:AMPARAMS|DCode=18|XSize=3.25mm|YSize=2.15mm|CornerRadius=0.11mm|HoleSize=0mm|Usage=FLASHONLY|Rotation=180.000|XOffset=0mm|YOffset=0mm|HoleType=Round|Shape=RoundedRectangle|*
%AMROUNDEDRECTD18*
21,1,3.25,1.94,0,0,180.0*
21,1,3.04,2.15,0,0,180.0*
1,1,0.22,-1.52,0.97*
1,1,0.22,1.52,0.97*
1,1,0.22,1.52,-0.97*
1,1,0.22,-1.52,-0.97*
%
%ADD18ROUNDEDRECTD18*%
G04:AMPARAMS|DCode=19|XSize=1mm|YSize=2.15mm|CornerRadius=0.05mm|HoleSize=0mm|Usage=FLASHONLY|Rotation=180.000|XOffset=0mm|YOffset=0mm|HoleType=Round|Shape=RoundedRectangle|*
%AMROUNDEDRECTD19*
21,1,1.00,2.05,0,0,180.0*
21,1,0.90,2.15,0,0,180.0*
1,1,0.10,-0.45,1.02*
1,1,0.10,0.45,1.02*
1,1,0.10,0.45,-1.02*
1,1,0.10,-0.45,-1.02*
%
%ADD19ROUNDEDRECTD19*%
G04:AMPARAMS|DCode=20|XSize=2.2mm|YSize=1.6mm|CornerRadius=0.08mm|HoleSize=0mm|Usage=FLASHONLY|Rotation=270.000|XOffset=0mm|YOffset=0mm|HoleType=Round|Shape=RoundedRectangle|*
%AMROUNDEDRECTD20*
21,1,2.20,1.44,0,0,270.0*
21,1,2.04,1.60,0,0,270.0*
1,1,0.16,-0.72,-1.02*
1,1,0.16,-0.72,1.02*
1,1,0.16,0.72,1.02*
1,1,0.16,0.72,-1.02*
%
%ADD20ROUNDEDRECTD20*%
G04:AMPARAMS|DCode=21|XSize=0.6mm|YSize=1mm|CornerRadius=0.03mm|HoleSize=0mm|Usage=FLASHONLY|Rotation=0.000|XOffset=0mm|YOffset=0mm|HoleType=Round|Shape=RoundedRectangle|*
%AMROUNDEDRECTD21*
21,1,0.60,0.94,0,0,0.0*
21,1,0.54,1.00,0,0,0.0*
1,1,0.06,0.27,-0.47*
1,1,0.06,-0.27,-0.47*
1,1,0.06,-0.27,0.47*
1,1,0.06,0.27,0.47*
%
%ADD21ROUNDEDRECTD21*%
%ADD37C,0.30*%
%ADD38C,0.80*%
%ADD39C,1.80*%
G04:AMPARAMS|DCode=40|XSize=1.8mm|YSize=1.8mm|CornerRadius=0.09mm|HoleSize=0mm|Usage=FLASHONLY|Rotation=270.000|XOffset=0mm|YOffset=0mm|HoleType=Round|Shape=RoundedRectangle|*
%AMROUNDEDRECTD40*
21,1,1.80,1.62,0,0,270.0*
21,1,1.62,1.80,0,0,270.0*
1,1,0.18,-0.81,-0.81*
1,1,0.18,-0.81,0.81*
1,1,0.18,0.81,0.81*
1,1,0.18,0.81,-0.81*
%
%ADD40ROUNDEDRECTD40*%
G04:AMPARAMS|DCode=41|XSize=1.6mm|YSize=1.6mm|CornerRadius=0.08mm|HoleSize=0mm|Usage=FLASHONLY|Rotation=180.000|XOffset=0mm|YOffset=0mm|HoleType=Round|Shape=RoundedRectangle|*
%AMROUNDEDRECTD41*
21,1,1.60,1.44,0,0,180.0*
21,1,1.44,1.60,0,0,180.0*
1,1,0.16,-0.72,0.72*
1,1,0.16,0.72,0.72*
1,1,0.16,0.72,-0.72*
1,1,0.16,-0.72,-0.72*
%
%ADD41ROUNDEDRECTD41*%
%ADD42C,3.20*%
%ADD43C,1.60*%
%ADD44C,1.40*%
%ADD45C,0.60*%
G36*
X2413Y6739D02*
X2640Y6729D01*
X2866Y6711D01*
X3091Y6683D01*
X3314Y6646D01*
X3536Y6599D01*
X3756Y6543D01*
X3973Y6479D01*
X4039Y6456D01*
X4039Y5500D01*
X4039Y5499D01*
X4039Y5498D01*
X4040Y5465D01*
X4041Y5462D01*
X4040Y5459D01*
X4049Y5394D01*
X4050Y5391D01*
X4051Y5387D01*
X4067Y5323D01*
X4069Y5320D01*
X4070Y5316D01*
X4095Y5255D01*
X4097Y5252D01*
X4099Y5248D01*
X4131Y5192D01*
X4134Y5189D01*
X4136Y5185D01*
X4176Y5133D01*
X4179Y5130D01*
X4181Y5127D01*
X4227Y5081D01*
X4230Y5079D01*
X4233Y5076D01*
X4285Y5036D01*
X4289Y5034D01*
X4292Y5031D01*
X4348Y4999D01*
X4352Y4997D01*
X4355Y4995D01*
X4416Y4970D01*
X4420Y4969D01*
X4423Y4967D01*
X4487Y4951D01*
X4491Y4950D01*
X4494Y4949D01*
X4539Y4943D01*
Y61D01*
X61D01*
Y4943D01*
X106Y4949D01*
X109Y4950D01*
X113Y4951D01*
X177Y4967D01*
X180Y4969D01*
X184Y4970D01*
X245Y4995D01*
X248Y4997D01*
X252Y4999D01*
X308Y5031D01*
X311Y5034D01*
X315Y5036D01*
X367Y5076D01*
X370Y5079D01*
X373Y5081D01*
X419Y5127D01*
X421Y5130D01*
X424Y5133D01*
X464Y5185D01*
X466Y5189D01*
X469Y5192D01*
X501Y5248D01*
X503Y5252D01*
X505Y5255D01*
X530Y5316D01*
X531Y5320D01*
X533Y5323D01*
X549Y5387D01*
X550Y5391D01*
X551Y5394D01*
X560Y5459D01*
X559Y5462D01*
X560Y5465D01*
X561Y5498D01*
X561Y5499D01*
X561Y5500D01*
X561Y6456D01*
X627Y6479D01*
X844Y6543D01*
X1064Y6599D01*
X1286Y6646D01*
X1509Y6683D01*
X1734Y6711D01*
X1960Y6729D01*
X2187Y6739D01*
X2413Y6739D01*
D02*
G37*
%LPC*%
G36*
X2920Y6235D02*
X2884D01*
X2849Y6229D01*
X2817Y6215D01*
X2787Y6195D01*
X2782Y6190D01*
X2902Y6070D01*
X3022Y6190D01*
X3017Y6195D01*
X2987Y6215D01*
X2955Y6229D01*
X2920Y6235D01*
D02*
G37*
G36*
X1716D02*
X1680D01*
X1645Y6229D01*
X1613Y6215D01*
X1583Y6195D01*
X1578Y6190D01*
X1698Y6070D01*
X1818Y6190D01*
X1813Y6195D01*
X1783Y6215D01*
X1751Y6229D01*
X1716Y6235D01*
D02*
G37*
G36*
X2768Y6176D02*
X2762Y6170D01*
X2742Y6141D01*
X2729Y6108D01*
X2722Y6073D01*
Y6038D01*
X2729Y6003D01*
X2742Y5970D01*
X2762Y5941D01*
X2768Y5935D01*
X2888Y6056D01*
X2768Y6176D01*
D02*
G37*
G36*
X3036Y6176D02*
X2916Y6056D01*
X3036Y5935D01*
X3042Y5941D01*
X3062Y5970D01*
X3075Y6003D01*
X3082Y6038D01*
Y6073D01*
X3075Y6108D01*
X3062Y6141D01*
X3042Y6170D01*
X3036Y6176D01*
D02*
G37*
G36*
X1832Y6176D02*
X1712Y6056D01*
X1832Y5935D01*
X1838Y5941D01*
X1858Y5970D01*
X1871Y6003D01*
X1878Y6038D01*
Y6073D01*
X1871Y6108D01*
X1858Y6141D01*
X1838Y6170D01*
X1832Y6176D01*
D02*
G37*
G36*
X1564D02*
X1558Y6170D01*
X1538Y6141D01*
X1525Y6108D01*
X1518Y6073D01*
Y6038D01*
X1525Y6003D01*
X1538Y5970D01*
X1558Y5941D01*
X1564Y5935D01*
X1684Y6056D01*
X1564Y6176D01*
D02*
G37*
G36*
X2902Y6041D02*
X2782Y5921D01*
X2787Y5916D01*
X2817Y5896D01*
X2849Y5882D01*
X2884Y5876D01*
X2920D01*
X2955Y5882D01*
X2987Y5896D01*
X3017Y5916D01*
X3022Y5921D01*
X2902Y6041D01*
D02*
G37*
G36*
X1698Y6041D02*
X1578Y5921D01*
X1583Y5916D01*
X1613Y5896D01*
X1645Y5882D01*
X1680Y5876D01*
X1716D01*
X1751Y5882D01*
X1783Y5896D01*
X1813Y5916D01*
X1818Y5921D01*
X1698Y6041D01*
D02*
G37*
G36*
X2188Y5885D02*
X2162D01*
X2136Y5878D01*
X2114Y5865D01*
X2111Y5862D01*
X2175Y5799D01*
X2239Y5862D01*
X2236Y5865D01*
X2214Y5878D01*
X2188Y5885D01*
D02*
G37*
G36*
X2253Y5848D02*
X2189Y5784D01*
X2253Y5721D01*
X2255Y5723D01*
X2268Y5746D01*
X2275Y5771D01*
Y5798D01*
X2268Y5823D01*
X2255Y5846D01*
X2253Y5848D01*
D02*
G37*
G36*
X2097Y5848D02*
X2095Y5846D01*
X2082Y5823D01*
X2075Y5798D01*
Y5771D01*
X2082Y5746D01*
X2095Y5723D01*
X2097Y5721D01*
X2161Y5784D01*
X2097Y5848D01*
D02*
G37*
G36*
X2438Y5885D02*
X2412D01*
X2386Y5878D01*
X2364Y5865D01*
X2345Y5846D01*
X2332Y5823D01*
X2325Y5798D01*
Y5771D01*
X2332Y5746D01*
X2336Y5739D01*
X2279Y5682D01*
X2278Y5681D01*
X2262Y5680D01*
X2258Y5683D01*
X2247Y5685D01*
X2228D01*
X2225Y5698D01*
X2236Y5704D01*
X2239Y5707D01*
X2175Y5770D01*
X2111Y5707D01*
X2114Y5704D01*
X2125Y5698D01*
X2122Y5685D01*
X2103D01*
X2092Y5683D01*
X2083Y5677D01*
X2077Y5667D01*
X2074Y5656D01*
Y5646D01*
X1805D01*
X1781Y5641D01*
X1761Y5628D01*
X1547Y5413D01*
X1533Y5393D01*
X1529Y5370D01*
Y5311D01*
X1518D01*
X1507Y5308D01*
X1498Y5302D01*
X1492Y5293D01*
X1489Y5282D01*
Y5078D01*
X1492Y5067D01*
X1498Y5058D01*
X1507Y5052D01*
X1518Y5049D01*
X1522D01*
X1527Y5038D01*
X1505Y5015D01*
X1497Y5004D01*
X1494Y4990D01*
Y4951D01*
X1439D01*
X1428Y4948D01*
X1418Y4942D01*
X1412Y4932D01*
X1409Y4921D01*
Y4739D01*
X1412Y4728D01*
X1418Y4718D01*
X1428Y4712D01*
X1439Y4709D01*
X1584D01*
Y4095D01*
X1565D01*
X1555Y4094D01*
X1547Y4088D01*
X1541Y4080D01*
X1540Y4070D01*
Y3865D01*
X1541Y3855D01*
X1547Y3847D01*
X1555Y3841D01*
X1565Y3840D01*
X1655D01*
X1665Y3841D01*
X1673Y3847D01*
X1679Y3855D01*
X1680Y3865D01*
Y4070D01*
X1679Y4080D01*
X1673Y4088D01*
X1665Y4094D01*
X1656Y4095D01*
Y4730D01*
X1653Y4744D01*
X1645Y4755D01*
X1631Y4770D01*
Y4921D01*
X1628Y4932D01*
X1622Y4942D01*
X1612Y4948D01*
X1601Y4951D01*
X1566D01*
Y4975D01*
X1615Y5025D01*
X1623Y5036D01*
X1626Y5049D01*
X1662D01*
X1673Y5052D01*
X1682Y5058D01*
X1688Y5067D01*
X1691Y5078D01*
Y5144D01*
X1745D01*
X1825Y5065D01*
X1836Y5057D01*
X1850Y5054D01*
X1955D01*
Y5043D01*
X1956Y5034D01*
X1961Y5026D01*
X1969Y5021D01*
X1969Y5021D01*
Y5005D01*
X1963Y4998D01*
X1955Y4980D01*
Y4960D01*
X1963Y4942D01*
X1977Y4928D01*
X1995Y4920D01*
X2015D01*
X2033Y4928D01*
X2047Y4942D01*
X2055Y4960D01*
Y4980D01*
X2047Y4998D01*
X2041Y5005D01*
Y5021D01*
X2041Y5021D01*
X2049Y5026D01*
X2054Y5034D01*
X2055Y5043D01*
Y5137D01*
X2054Y5146D01*
X2049Y5154D01*
X2041Y5159D01*
X2032Y5160D01*
X1978D01*
X1969Y5159D01*
X1961Y5154D01*
X1956Y5146D01*
X1955Y5137D01*
Y5126D01*
X1865D01*
X1785Y5205D01*
X1774Y5213D01*
X1760Y5216D01*
X1691D01*
Y5282D01*
X1688Y5293D01*
X1682Y5302D01*
X1673Y5308D01*
X1662Y5311D01*
X1651D01*
Y5345D01*
X1830Y5523D01*
X2074D01*
Y5512D01*
X2077Y5502D01*
X2083Y5492D01*
X2092Y5486D01*
X2103Y5484D01*
X2247D01*
X2257Y5486D01*
X2259Y5486D01*
X2269Y5479D01*
Y5463D01*
X2078Y5272D01*
X2072Y5262D01*
X2069Y5250D01*
X2069Y5250D01*
Y4920D01*
X2064Y4919D01*
X2056Y4914D01*
X2051Y4906D01*
X2050Y4897D01*
Y4803D01*
X2051Y4794D01*
X2056Y4786D01*
X2064Y4781D01*
X2069Y4780D01*
Y4740D01*
X2069Y4740D01*
X2072Y4728D01*
X2078Y4718D01*
X2169Y4627D01*
Y4561D01*
X2137D01*
X2126Y4558D01*
X2118Y4552D01*
X2112Y4544D01*
X2109Y4533D01*
Y4501D01*
X2091D01*
Y4533D01*
X2088Y4544D01*
X2082Y4552D01*
X2074Y4558D01*
X2063Y4561D01*
X1937D01*
X1926Y4558D01*
X1918Y4552D01*
X1912Y4544D01*
X1909Y4533D01*
Y4407D01*
X1912Y4396D01*
X1918Y4388D01*
X1926Y4382D01*
X1937Y4379D01*
X2063D01*
X2074Y4382D01*
X2082Y4388D01*
X2088Y4396D01*
X2091Y4407D01*
Y4439D01*
X2109D01*
Y4407D01*
X2112Y4396D01*
X2118Y4388D01*
X2126Y4382D01*
X2137Y4379D01*
X2263D01*
X2274Y4382D01*
X2282Y4388D01*
X2288Y4396D01*
X2291Y4407D01*
Y4533D01*
X2288Y4544D01*
X2282Y4552D01*
X2274Y4558D01*
X2263Y4561D01*
X2231D01*
Y4640D01*
X2228Y4652D01*
X2222Y4662D01*
X2222Y4662D01*
X2131Y4753D01*
Y4780D01*
X2136Y4781D01*
X2144Y4786D01*
X2149Y4794D01*
X2150Y4803D01*
Y4897D01*
X2149Y4906D01*
X2144Y4914D01*
X2136Y4919D01*
X2131Y4920D01*
Y5237D01*
X2322Y5428D01*
X2322Y5428D01*
X2328Y5438D01*
X2331Y5450D01*
X2331Y5450D01*
Y5523D01*
X2343Y5526D01*
X2345Y5523D01*
X2364Y5504D01*
X2386Y5491D01*
X2394Y5489D01*
Y5405D01*
X2394Y5405D01*
X2397Y5393D01*
X2403Y5383D01*
X2469Y5317D01*
Y4920D01*
X2464Y4919D01*
X2456Y4914D01*
X2451Y4906D01*
X2450Y4897D01*
Y4803D01*
X2451Y4794D01*
X2456Y4786D01*
X2464Y4781D01*
X2469Y4780D01*
Y4743D01*
X2378Y4652D01*
X2372Y4642D01*
X2369Y4630D01*
X2369Y4630D01*
Y4561D01*
X2337D01*
X2326Y4558D01*
X2318Y4552D01*
X2312Y4544D01*
X2309Y4533D01*
Y4407D01*
X2312Y4396D01*
X2318Y4388D01*
X2326Y4382D01*
X2337Y4379D01*
X2463D01*
X2474Y4382D01*
X2482Y4388D01*
X2488Y4396D01*
X2491Y4407D01*
Y4533D01*
X2488Y4544D01*
X2482Y4552D01*
X2474Y4558D01*
X2463Y4561D01*
X2431D01*
Y4617D01*
X2522Y4708D01*
X2528Y4718D01*
X2531Y4730D01*
X2531Y4730D01*
Y4780D01*
X2536Y4781D01*
X2544Y4786D01*
X2549Y4794D01*
X2550Y4803D01*
Y4897D01*
X2549Y4906D01*
X2544Y4914D01*
X2536Y4919D01*
X2531Y4920D01*
Y5330D01*
X2528Y5342D01*
X2522Y5352D01*
X2522Y5352D01*
X2456Y5418D01*
Y5489D01*
X2464Y5491D01*
X2486Y5504D01*
X2505Y5523D01*
X2518Y5546D01*
X2525Y5571D01*
Y5598D01*
X2518Y5623D01*
X2505Y5646D01*
X2486Y5665D01*
X2464Y5678D01*
X2463Y5678D01*
Y5691D01*
X2464Y5691D01*
X2486Y5704D01*
X2505Y5723D01*
X2518Y5746D01*
X2525Y5771D01*
Y5798D01*
X2518Y5823D01*
X2505Y5846D01*
X2486Y5865D01*
X2464Y5878D01*
X2438Y5885D01*
D02*
G37*
G36*
X1242Y5311D02*
X1180D01*
Y5190D01*
X1271D01*
Y5282D01*
X1268Y5293D01*
X1262Y5302D01*
X1253Y5308D01*
X1242Y5311D01*
D02*
G37*
G36*
X1160D02*
X1098D01*
X1087Y5308D01*
X1078Y5302D01*
X1072Y5293D01*
X1069Y5282D01*
Y5190D01*
X1160D01*
Y5311D01*
D02*
G37*
G36*
X2622Y5160D02*
X2605D01*
Y5100D01*
X2645D01*
Y5137D01*
X2644Y5146D01*
X2639Y5154D01*
X2631Y5159D01*
X2622Y5160D01*
D02*
G37*
G36*
X2585D02*
X2568D01*
X2559Y5159D01*
X2551Y5154D01*
X2546Y5146D01*
X2545Y5137D01*
Y5100D01*
X2585D01*
Y5160D01*
D02*
G37*
G36*
X2222D02*
X2205D01*
Y5100D01*
X2245D01*
Y5137D01*
X2244Y5146D01*
X2239Y5154D01*
X2231Y5159D01*
X2222Y5160D01*
D02*
G37*
G36*
X2185D02*
X2168D01*
X2159Y5159D01*
X2151Y5154D01*
X2146Y5146D01*
X2145Y5137D01*
Y5100D01*
X2185D01*
Y5160D01*
D02*
G37*
G36*
X1271Y5170D02*
X1180D01*
Y5049D01*
X1242D01*
X1253Y5052D01*
X1262Y5058D01*
X1268Y5067D01*
X1271Y5078D01*
Y5170D01*
D02*
G37*
G36*
X1160D02*
X1069D01*
Y5078D01*
X1072Y5067D01*
X1078Y5058D01*
X1087Y5052D01*
X1098Y5049D01*
X1160D01*
Y5170D01*
D02*
G37*
G36*
X2645Y5080D02*
X2605D01*
Y5020D01*
X2622D01*
X2631Y5021D01*
X2639Y5026D01*
X2644Y5034D01*
X2645Y5043D01*
Y5080D01*
D02*
G37*
G36*
X2585D02*
X2545D01*
Y5043D01*
X2546Y5034D01*
X2551Y5026D01*
X2559Y5021D01*
X2568Y5020D01*
X2585D01*
Y5080D01*
D02*
G37*
G36*
X2245D02*
X2205D01*
Y5020D01*
X2222D01*
X2231Y5021D01*
X2239Y5026D01*
X2244Y5034D01*
X2245Y5043D01*
Y5080D01*
D02*
G37*
G36*
X2185D02*
X2145D01*
Y5043D01*
X2146Y5034D01*
X2151Y5026D01*
X2159Y5021D01*
X2168Y5020D01*
X2185D01*
Y5080D01*
D02*
G37*
G36*
X2432Y5160D02*
X2378D01*
X2369Y5159D01*
X2361Y5154D01*
X2356Y5146D01*
X2355Y5137D01*
Y5043D01*
X2356Y5034D01*
X2361Y5026D01*
X2369Y5021D01*
X2369Y5021D01*
Y5005D01*
X2363Y4998D01*
X2355Y4980D01*
Y4960D01*
X2363Y4942D01*
X2377Y4928D01*
X2395Y4920D01*
X2415D01*
X2433Y4928D01*
X2447Y4942D01*
X2455Y4960D01*
Y4980D01*
X2447Y4998D01*
X2441Y5005D01*
Y5021D01*
X2441Y5021D01*
X2449Y5026D01*
X2454Y5034D01*
X2455Y5043D01*
Y5137D01*
X2454Y5146D01*
X2449Y5154D01*
X2441Y5159D01*
X2432Y5160D01*
D02*
G37*
G36*
X1321Y4951D02*
X1250D01*
Y4840D01*
X1351D01*
Y4921D01*
X1348Y4932D01*
X1342Y4942D01*
X1332Y4948D01*
X1321Y4951D01*
D02*
G37*
G36*
X1230D02*
X1159D01*
X1148Y4948D01*
X1138Y4942D01*
X1132Y4932D01*
X1129Y4921D01*
Y4840D01*
X1230D01*
Y4951D01*
D02*
G37*
G36*
X1351Y4820D02*
X1250D01*
Y4709D01*
X1321D01*
X1332Y4712D01*
X1342Y4718D01*
X1348Y4728D01*
X1351Y4739D01*
Y4820D01*
D02*
G37*
G36*
X1230D02*
X1129D01*
Y4739D01*
X1132Y4728D01*
X1138Y4718D01*
X1148Y4712D01*
X1159Y4709D01*
X1230D01*
Y4820D01*
D02*
G37*
G36*
X1195Y4095D02*
X1160D01*
Y3978D01*
X1220D01*
Y4070D01*
X1219Y4080D01*
X1213Y4088D01*
X1205Y4094D01*
X1195Y4095D01*
D02*
G37*
G36*
X1140D02*
X1105D01*
X1095Y4094D01*
X1087Y4088D01*
X1081Y4080D01*
X1080Y4070D01*
Y3978D01*
X1140D01*
Y4095D01*
D02*
G37*
G36*
X1220Y3958D02*
X1160D01*
Y3840D01*
X1195D01*
X1205Y3841D01*
X1213Y3847D01*
X1219Y3855D01*
X1220Y3865D01*
Y3958D01*
D02*
G37*
G36*
X1140D02*
X1080D01*
Y3865D01*
X1081Y3855D01*
X1087Y3847D01*
X1095Y3841D01*
X1105Y3840D01*
X1140D01*
Y3958D01*
D02*
G37*
G36*
X1532Y4681D02*
X1228D01*
X1216Y4678D01*
X1206Y4671D01*
X1199Y4661D01*
X1197Y4649D01*
Y4588D01*
X1012D01*
X999Y4585D01*
X987Y4578D01*
X689Y4280D01*
X311D01*
Y4325D01*
X308Y4336D01*
X302Y4346D01*
X292Y4352D01*
X281Y4355D01*
X119D01*
X108Y4352D01*
X98Y4346D01*
X92Y4336D01*
X89Y4325D01*
Y4163D01*
X92Y4152D01*
X98Y4142D01*
X108Y4136D01*
X119Y4133D01*
X281D01*
X292Y4136D01*
X302Y4142D01*
X308Y4152D01*
X311Y4163D01*
Y4208D01*
X704D01*
X718Y4211D01*
X729Y4219D01*
X1027Y4517D01*
X1197D01*
Y4456D01*
X1199Y4444D01*
X1206Y4434D01*
X1216Y4427D01*
X1228Y4424D01*
X1344D01*
Y4095D01*
X1335D01*
X1325Y4094D01*
X1317Y4088D01*
X1311Y4080D01*
X1310Y4070D01*
Y3865D01*
X1311Y3855D01*
X1317Y3847D01*
X1325Y3841D01*
X1335Y3840D01*
X1344D01*
Y3830D01*
X1347Y3816D01*
X1352Y3810D01*
X1342Y3802D01*
X1338Y3804D01*
X1332Y3808D01*
X1321Y3811D01*
X1250D01*
Y3700D01*
X1351D01*
Y3781D01*
X1348Y3792D01*
X1348Y3792D01*
X1348Y3793D01*
X1347Y3796D01*
X1356Y3803D01*
X1360Y3800D01*
X1409Y3750D01*
Y3599D01*
X1412Y3588D01*
X1418Y3578D01*
X1428Y3572D01*
X1439Y3569D01*
X1484D01*
Y3551D01*
X1439D01*
X1428Y3548D01*
X1418Y3542D01*
X1412Y3532D01*
X1409Y3521D01*
Y3339D01*
X1412Y3328D01*
X1418Y3318D01*
X1428Y3312D01*
X1439Y3309D01*
X1601D01*
X1612Y3312D01*
X1622Y3318D01*
X1628Y3328D01*
X1631Y3339D01*
Y3384D01*
X1795D01*
X1800Y3379D01*
X1801Y3370D01*
X1800Y3364D01*
X1798Y3362D01*
X1792Y3354D01*
X1789Y3343D01*
Y3217D01*
X1792Y3206D01*
X1798Y3198D01*
X1806Y3192D01*
X1817Y3189D01*
X1844D01*
X1847Y3176D01*
X1855Y3165D01*
X1895Y3125D01*
X1906Y3117D01*
X1920Y3114D01*
X1985D01*
X1989Y3110D01*
Y3033D01*
X1990Y3029D01*
Y2970D01*
X1978Y2965D01*
X1812Y3132D01*
X1802Y3138D01*
X1790Y3141D01*
X1790Y3141D01*
X1253D01*
X382Y4012D01*
X372Y4018D01*
X360Y4021D01*
X360Y4021D01*
X306D01*
X303Y4032D01*
X288Y4058D01*
X268Y4078D01*
X242Y4093D01*
X214Y4100D01*
X186D01*
X158Y4093D01*
X132Y4078D01*
X112Y4058D01*
X97Y4032D01*
X90Y4004D01*
Y3976D01*
X97Y3948D01*
X112Y3922D01*
X132Y3902D01*
X158Y3887D01*
X186Y3880D01*
X214D01*
X242Y3887D01*
X268Y3902D01*
X288Y3922D01*
X303Y3948D01*
X306Y3959D01*
X347D01*
X528Y3778D01*
X524Y3767D01*
X306D01*
X303Y3778D01*
X288Y3804D01*
X268Y3824D01*
X242Y3839D01*
X214Y3846D01*
X186D01*
X158Y3839D01*
X132Y3824D01*
X112Y3804D01*
X97Y3778D01*
X90Y3750D01*
Y3722D01*
X97Y3694D01*
X112Y3668D01*
X132Y3648D01*
X158Y3633D01*
X186Y3626D01*
X214D01*
X242Y3633D01*
X268Y3648D01*
X288Y3668D01*
X303Y3694D01*
X306Y3705D01*
X541D01*
X1198Y3048D01*
X1198Y3048D01*
X1208Y3042D01*
X1220Y3039D01*
X1757D01*
X1847Y2950D01*
Y2920D01*
X1785D01*
Y2850D01*
Y2750D01*
Y2644D01*
X1772Y2641D01*
X1772Y2642D01*
X1772Y2642D01*
X1742Y2672D01*
X1732Y2678D01*
X1721Y2680D01*
Y2713D01*
X1718Y2724D01*
X1712Y2732D01*
X1704Y2738D01*
X1693Y2741D01*
X1567D01*
X1556Y2738D01*
X1548Y2732D01*
X1542Y2724D01*
X1539Y2713D01*
Y2587D01*
X1542Y2576D01*
X1548Y2568D01*
X1556Y2562D01*
X1567Y2559D01*
X1693D01*
X1704Y2562D01*
X1707Y2564D01*
X1707Y2564D01*
X1721Y2559D01*
X1722Y2553D01*
X1728Y2543D01*
X1758Y2513D01*
X1758Y2513D01*
X1768Y2507D01*
X1780Y2504D01*
X1785Y2494D01*
Y2395D01*
X1877D01*
X1970D01*
Y2450D01*
Y2550D01*
Y2650D01*
Y2750D01*
Y2873D01*
X1983Y2881D01*
X1990Y2879D01*
X2100D01*
X2100Y2879D01*
X2112Y2882D01*
X2122Y2888D01*
X2147Y2913D01*
X2147Y2913D01*
X2153Y2923D01*
X2156Y2935D01*
X2166Y2940D01*
X2610D01*
Y3125D01*
X2256D01*
Y3932D01*
X2422Y4098D01*
X2422Y4098D01*
X2428Y4108D01*
X2431Y4120D01*
X2431Y4120D01*
Y4179D01*
X2463D01*
X2474Y4182D01*
X2482Y4188D01*
X2488Y4196D01*
X2491Y4207D01*
Y4333D01*
X2488Y4344D01*
X2482Y4352D01*
X2474Y4358D01*
X2463Y4361D01*
X2337D01*
X2326Y4358D01*
X2318Y4352D01*
X2312Y4344D01*
X2309Y4333D01*
Y4207D01*
X2312Y4196D01*
X2318Y4188D01*
X2326Y4182D01*
X2337Y4179D01*
X2369D01*
Y4133D01*
X2217Y3981D01*
X2206Y3985D01*
Y4179D01*
X2263D01*
X2274Y4182D01*
X2282Y4188D01*
X2288Y4196D01*
X2291Y4207D01*
Y4333D01*
X2288Y4344D01*
X2282Y4352D01*
X2274Y4358D01*
X2263Y4361D01*
X2137D01*
X2126Y4358D01*
X2118Y4352D01*
X2112Y4344D01*
X2109Y4333D01*
Y4207D01*
X2112Y4196D01*
X2118Y4188D01*
X2126Y4182D01*
X2137Y4179D01*
X2144D01*
Y3372D01*
X2143Y3371D01*
X2090D01*
Y3280D01*
X2070D01*
Y3371D01*
X2049D01*
X2044Y3383D01*
X2052Y3392D01*
X2060Y3410D01*
Y3430D01*
X2052Y3448D01*
X2038Y3462D01*
X2020Y3470D01*
X2000D01*
X1982Y3462D01*
X1980Y3461D01*
X1978Y3462D01*
X1960Y3470D01*
X1940D01*
X1922Y3462D01*
X1920Y3461D01*
X1918Y3462D01*
X1900Y3470D01*
X1880D01*
X1862Y3462D01*
X1860Y3461D01*
X1858Y3462D01*
X1840Y3470D01*
X1820D01*
X1802Y3462D01*
X1795Y3456D01*
X1631D01*
Y3521D01*
X1628Y3532D01*
X1622Y3542D01*
X1612Y3548D01*
X1601Y3551D01*
X1556D01*
Y3569D01*
X1601D01*
X1612Y3572D01*
X1622Y3578D01*
X1628Y3588D01*
X1631Y3599D01*
Y3654D01*
X1760D01*
X1774Y3657D01*
X1785Y3665D01*
X2025Y3905D01*
X2033Y3916D01*
X2036Y3930D01*
Y4179D01*
X2063D01*
X2074Y4182D01*
X2082Y4188D01*
X2088Y4196D01*
X2091Y4207D01*
Y4333D01*
X2088Y4344D01*
X2082Y4352D01*
X2074Y4358D01*
X2063Y4361D01*
X1937D01*
X1926Y4358D01*
X1918Y4352D01*
X1912Y4344D01*
X1909Y4333D01*
Y4207D01*
X1912Y4196D01*
X1918Y4188D01*
X1926Y4182D01*
X1937Y4179D01*
X1964D01*
Y3945D01*
X1745Y3726D01*
X1631D01*
Y3781D01*
X1628Y3792D01*
X1622Y3802D01*
X1612Y3808D01*
X1601Y3811D01*
X1450D01*
X1432Y3828D01*
X1434Y3839D01*
X1436Y3842D01*
X1443Y3847D01*
X1449Y3855D01*
X1450Y3865D01*
Y4070D01*
X1449Y4080D01*
X1443Y4088D01*
X1435Y4094D01*
X1425Y4095D01*
X1416D01*
Y4424D01*
X1532D01*
X1544Y4427D01*
X1554Y4434D01*
X1561Y4444D01*
X1563Y4456D01*
Y4649D01*
X1561Y4661D01*
X1554Y4671D01*
X1544Y4678D01*
X1532Y4681D01*
D02*
G37*
G36*
X1230Y3811D02*
X1159D01*
X1148Y3808D01*
X1138Y3802D01*
X1132Y3792D01*
X1129Y3781D01*
Y3700D01*
X1230D01*
Y3811D01*
D02*
G37*
G36*
X1351Y3680D02*
X1250D01*
Y3569D01*
X1321D01*
X1332Y3572D01*
X1342Y3578D01*
X1348Y3588D01*
X1351Y3599D01*
Y3680D01*
D02*
G37*
G36*
X1230D02*
X1129D01*
Y3599D01*
X1132Y3588D01*
X1138Y3578D01*
X1148Y3572D01*
X1159Y3569D01*
X1230D01*
Y3680D01*
D02*
G37*
G36*
X214Y3592D02*
X186D01*
X158Y3585D01*
X132Y3570D01*
X129Y3567D01*
X200Y3496D01*
X271Y3567D01*
X268Y3570D01*
X242Y3585D01*
X214Y3592D01*
D02*
G37*
G36*
X1321Y3551D02*
X1250D01*
Y3440D01*
X1351D01*
Y3521D01*
X1348Y3532D01*
X1342Y3542D01*
X1332Y3548D01*
X1321Y3551D01*
D02*
G37*
G36*
X1230D02*
X1159D01*
X1148Y3548D01*
X1138Y3542D01*
X1132Y3532D01*
X1129Y3521D01*
Y3440D01*
X1230D01*
Y3551D01*
D02*
G37*
G36*
X285Y3553D02*
X214Y3482D01*
X285Y3411D01*
X288Y3414D01*
X303Y3440D01*
X310Y3468D01*
Y3496D01*
X303Y3524D01*
X288Y3550D01*
X285Y3553D01*
D02*
G37*
G36*
X115D02*
X112Y3550D01*
X97Y3524D01*
X90Y3496D01*
Y3468D01*
X97Y3440D01*
X112Y3414D01*
X115Y3411D01*
X186Y3482D01*
X115Y3553D01*
D02*
G37*
G36*
X200Y3468D02*
X129Y3397D01*
X132Y3394D01*
X158Y3379D01*
X186Y3372D01*
X214D01*
X242Y3379D01*
X268Y3394D01*
X271Y3397D01*
X200Y3468D01*
D02*
G37*
G36*
X1351Y3420D02*
X1250D01*
Y3309D01*
X1321D01*
X1332Y3312D01*
X1342Y3318D01*
X1348Y3328D01*
X1351Y3339D01*
Y3420D01*
D02*
G37*
G36*
X1230D02*
X1129D01*
Y3339D01*
X1132Y3328D01*
X1138Y3318D01*
X1148Y3312D01*
X1159Y3309D01*
X1230D01*
Y3420D01*
D02*
G37*
G36*
X1020Y3020D02*
X980D01*
X979Y3020D01*
X978Y3020D01*
X939Y3015D01*
X937Y3015D01*
X936Y3015D01*
X898Y3004D01*
X897Y3004D01*
X896Y3004D01*
X859Y2988D01*
X858Y2988D01*
X857Y2987D01*
X823Y2968D01*
X822Y2967D01*
X821Y2966D01*
X789Y2942D01*
X788Y2941D01*
X787Y2940D01*
X760Y2913D01*
X759Y2912D01*
X758Y2911D01*
X734Y2879D01*
X733Y2878D01*
X732Y2877D01*
X713Y2843D01*
X712Y2842D01*
X712Y2841D01*
X696Y2804D01*
X696Y2803D01*
X696Y2802D01*
X685Y2764D01*
X685Y2763D01*
X685Y2761D01*
X680Y2722D01*
X680Y2721D01*
X680Y2720D01*
Y2680D01*
X680Y2679D01*
X680Y2678D01*
X685Y2639D01*
X685Y2637D01*
X685Y2636D01*
X696Y2598D01*
X696Y2597D01*
X696Y2596D01*
X712Y2559D01*
X712Y2558D01*
X713Y2557D01*
X732Y2523D01*
X733Y2522D01*
X734Y2521D01*
X758Y2489D01*
X759Y2488D01*
X760Y2487D01*
X787Y2460D01*
X788Y2459D01*
X789Y2458D01*
X821Y2434D01*
X822Y2433D01*
X823Y2432D01*
X857Y2413D01*
X858Y2412D01*
X859Y2412D01*
X896Y2396D01*
X897Y2396D01*
X898Y2396D01*
X936Y2385D01*
X937Y2385D01*
X939Y2385D01*
X978Y2380D01*
X979Y2380D01*
X980Y2380D01*
X1020D01*
X1021Y2380D01*
X1022Y2380D01*
X1061Y2385D01*
X1063Y2385D01*
X1064Y2385D01*
X1102Y2396D01*
X1103Y2396D01*
X1104Y2396D01*
X1141Y2412D01*
X1142Y2412D01*
X1143Y2413D01*
X1177Y2432D01*
X1178Y2433D01*
X1179Y2434D01*
X1211Y2458D01*
X1212Y2459D01*
X1213Y2460D01*
X1240Y2487D01*
X1241Y2488D01*
X1242Y2489D01*
X1266Y2521D01*
X1267Y2522D01*
X1268Y2523D01*
X1287Y2557D01*
X1288Y2558D01*
X1288Y2559D01*
X1304Y2596D01*
X1304Y2597D01*
X1304Y2598D01*
X1315Y2636D01*
X1315Y2637D01*
X1315Y2639D01*
X1320Y2678D01*
X1320Y2679D01*
X1320Y2680D01*
Y2720D01*
X1320Y2721D01*
X1320Y2722D01*
X1315Y2761D01*
X1315Y2763D01*
X1315Y2764D01*
X1304Y2802D01*
X1304Y2803D01*
X1304Y2804D01*
X1288Y2841D01*
X1288Y2842D01*
X1287Y2843D01*
X1268Y2877D01*
X1267Y2878D01*
X1266Y2879D01*
X1242Y2911D01*
X1241Y2912D01*
X1240Y2913D01*
X1213Y2940D01*
X1212Y2941D01*
X1211Y2942D01*
X1179Y2966D01*
X1178Y2967D01*
X1177Y2968D01*
X1143Y2987D01*
X1142Y2988D01*
X1141Y2988D01*
X1104Y3004D01*
X1103Y3004D01*
X1102Y3004D01*
X1064Y3015D01*
X1063Y3015D01*
X1061Y3015D01*
X1022Y3020D01*
X1021Y3020D01*
X1020Y3020D01*
D02*
G37*
G36*
X4012Y2990D02*
X3988D01*
X3965Y2984D01*
X3945Y2972D01*
X3943Y2971D01*
X4000Y2914D01*
X4057Y2971D01*
X4055Y2972D01*
X4035Y2984D01*
X4012Y2990D01*
D02*
G37*
G36*
X3033Y3051D02*
X2907D01*
X2896Y3048D01*
X2888Y3042D01*
X2882Y3034D01*
X2879Y3023D01*
Y2996D01*
X2870D01*
X2856Y2993D01*
X2845Y2985D01*
X2780Y2921D01*
X2723D01*
X2719Y2920D01*
X2630D01*
Y2845D01*
X2723D01*
X2815D01*
Y2856D01*
X2820Y2860D01*
X2868Y2907D01*
X2879Y2902D01*
Y2897D01*
X2882Y2886D01*
X2888Y2878D01*
X2896Y2872D01*
X2907Y2869D01*
X3033D01*
X3044Y2872D01*
X3052Y2878D01*
X3058Y2886D01*
X3061Y2897D01*
Y2924D01*
X3075D01*
X3082Y2918D01*
X3100Y2910D01*
X3120D01*
X3138Y2918D01*
X3152Y2932D01*
X3160Y2950D01*
Y2970D01*
X3152Y2988D01*
X3138Y3002D01*
X3120Y3010D01*
X3100D01*
X3082Y3002D01*
X3075Y2996D01*
X3061D01*
Y3023D01*
X3058Y3034D01*
X3052Y3042D01*
X3044Y3048D01*
X3033Y3051D01*
D02*
G37*
G36*
X1693Y2941D02*
X1640D01*
Y2860D01*
X1721D01*
Y2913D01*
X1718Y2924D01*
X1712Y2932D01*
X1704Y2938D01*
X1693Y2941D01*
D02*
G37*
G36*
X1620D02*
X1567D01*
X1556Y2938D01*
X1548Y2932D01*
X1542Y2924D01*
X1539Y2913D01*
Y2860D01*
X1620D01*
Y2941D01*
D02*
G37*
G36*
X4071Y2957D02*
X4014Y2900D01*
X4071Y2843D01*
X4072Y2845D01*
X4084Y2865D01*
X4090Y2888D01*
Y2912D01*
X4084Y2935D01*
X4072Y2955D01*
X4071Y2957D01*
D02*
G37*
G36*
X3929Y2957D02*
X3928Y2955D01*
X3916Y2935D01*
X3910Y2912D01*
Y2888D01*
X3916Y2865D01*
X3928Y2845D01*
X3929Y2843D01*
X3986Y2900D01*
X3929Y2957D01*
D02*
G37*
G36*
X4000Y2886D02*
X3943Y2829D01*
X3945Y2828D01*
X3965Y2816D01*
X3988Y2810D01*
X4012D01*
X4035Y2816D01*
X4055Y2828D01*
X4057Y2829D01*
X4000Y2886D01*
D02*
G37*
G36*
X3033Y2851D02*
X2980D01*
Y2770D01*
X3061D01*
Y2823D01*
X3058Y2834D01*
X3052Y2842D01*
X3044Y2848D01*
X3033Y2851D01*
D02*
G37*
G36*
X2960D02*
X2907D01*
X2896Y2848D01*
X2888Y2842D01*
X2882Y2834D01*
X2879Y2823D01*
Y2770D01*
X2960D01*
Y2851D01*
D02*
G37*
G36*
X1721Y2840D02*
X1640D01*
Y2759D01*
X1693D01*
X1704Y2762D01*
X1712Y2768D01*
X1718Y2776D01*
X1721Y2787D01*
Y2840D01*
D02*
G37*
G36*
X1620D02*
X1539D01*
Y2787D01*
X1542Y2776D01*
X1548Y2768D01*
X1556Y2762D01*
X1567Y2759D01*
X1620D01*
Y2840D01*
D02*
G37*
G36*
X3061Y2750D02*
X2980D01*
Y2669D01*
X3033D01*
X3044Y2672D01*
X3052Y2678D01*
X3058Y2686D01*
X3061Y2697D01*
Y2750D01*
D02*
G37*
G36*
X2960D02*
X2879D01*
Y2697D01*
X2882Y2686D01*
X2888Y2678D01*
X2896Y2672D01*
X2907Y2669D01*
X2960D01*
Y2750D01*
D02*
G37*
G36*
X2815Y2825D02*
X2723D01*
X2630D01*
Y2800D01*
Y2700D01*
Y2600D01*
Y2500D01*
Y2400D01*
Y2300D01*
X2815D01*
Y2304D01*
X3002D01*
X3028Y2278D01*
X3038Y2272D01*
X3050Y2269D01*
X3050Y2269D01*
X3219D01*
Y2237D01*
X3222Y2226D01*
X3228Y2218D01*
X3236Y2212D01*
X3247Y2209D01*
X3373D01*
X3384Y2212D01*
X3392Y2218D01*
X3398Y2226D01*
X3401Y2237D01*
Y2363D01*
X3398Y2374D01*
X3392Y2382D01*
X3384Y2388D01*
X3373Y2391D01*
X3247D01*
X3236Y2388D01*
X3228Y2382D01*
X3222Y2374D01*
X3219Y2363D01*
Y2331D01*
X3063D01*
X3051Y2343D01*
X3055Y2354D01*
X3065D01*
X3065Y2354D01*
X3077Y2357D01*
X3087Y2363D01*
X3193Y2469D01*
X3915D01*
X3916Y2465D01*
X3928Y2445D01*
X3945Y2428D01*
X3965Y2416D01*
X3988Y2410D01*
X4012D01*
X4035Y2416D01*
X4055Y2428D01*
X4072Y2445D01*
X4084Y2465D01*
X4090Y2488D01*
Y2512D01*
X4084Y2535D01*
X4072Y2555D01*
X4055Y2572D01*
X4035Y2584D01*
X4012Y2590D01*
X3988D01*
X3965Y2584D01*
X3945Y2572D01*
X3928Y2555D01*
X3916Y2535D01*
X3915Y2531D01*
X3210D01*
X3206Y2542D01*
X3333Y2669D01*
X3915D01*
X3916Y2665D01*
X3928Y2645D01*
X3945Y2628D01*
X3965Y2616D01*
X3988Y2610D01*
X4012D01*
X4035Y2616D01*
X4055Y2628D01*
X4072Y2645D01*
X4084Y2665D01*
X4090Y2688D01*
Y2712D01*
X4084Y2735D01*
X4072Y2755D01*
X4055Y2772D01*
X4035Y2784D01*
X4012Y2790D01*
X3988D01*
X3965Y2784D01*
X3945Y2772D01*
X3928Y2755D01*
X3916Y2735D01*
X3915Y2731D01*
X3320D01*
X3308Y2728D01*
X3298Y2722D01*
X3298Y2722D01*
X3042Y2466D01*
X2815D01*
Y2550D01*
Y2650D01*
Y2750D01*
Y2825D01*
D02*
G37*
G36*
X1693Y2541D02*
X1640D01*
Y2460D01*
X1721D01*
Y2513D01*
X1718Y2524D01*
X1712Y2532D01*
X1704Y2538D01*
X1693Y2541D01*
D02*
G37*
G36*
X1620D02*
X1567D01*
X1556Y2538D01*
X1548Y2532D01*
X1542Y2524D01*
X1539Y2513D01*
Y2460D01*
X1620D01*
Y2541D01*
D02*
G37*
G36*
X1721Y2440D02*
X1640D01*
Y2359D01*
X1693D01*
X1704Y2362D01*
X1712Y2368D01*
X1718Y2376D01*
X1721Y2387D01*
Y2440D01*
D02*
G37*
G36*
X1620D02*
X1539D01*
Y2387D01*
X1542Y2376D01*
X1548Y2368D01*
X1556Y2362D01*
X1567Y2359D01*
X1620D01*
Y2440D01*
D02*
G37*
G36*
X1970Y2375D02*
X1877D01*
X1785D01*
Y2364D01*
X1780Y2360D01*
X1732Y2313D01*
X1720Y2318D01*
X1718Y2324D01*
X1712Y2332D01*
X1704Y2338D01*
X1693Y2341D01*
X1567D01*
X1556Y2338D01*
X1548Y2332D01*
X1542Y2324D01*
X1539Y2313D01*
Y2276D01*
X1525D01*
X1518Y2282D01*
X1500Y2290D01*
X1480D01*
X1462Y2282D01*
X1448Y2268D01*
X1440Y2250D01*
Y2230D01*
X1448Y2212D01*
X1462Y2198D01*
X1480Y2190D01*
X1500D01*
X1518Y2198D01*
X1525Y2204D01*
X1539D01*
Y2187D01*
X1542Y2176D01*
X1548Y2168D01*
X1556Y2162D01*
X1567Y2159D01*
X1693D01*
X1704Y2162D01*
X1712Y2168D01*
X1718Y2176D01*
X1721Y2187D01*
Y2214D01*
X1734Y2217D01*
X1745Y2225D01*
X1820Y2299D01*
X1877D01*
X1881Y2300D01*
X1970D01*
Y2350D01*
Y2375D01*
D02*
G37*
G36*
X3573Y2391D02*
X3447D01*
X3436Y2388D01*
X3428Y2382D01*
X3422Y2374D01*
X3419Y2363D01*
Y2237D01*
X3422Y2226D01*
X3428Y2218D01*
X3436Y2212D01*
X3447Y2209D01*
X3573D01*
X3584Y2212D01*
X3592Y2218D01*
X3598Y2226D01*
X3601Y2237D01*
Y2269D01*
X3915D01*
X3916Y2265D01*
X3928Y2245D01*
X3945Y2228D01*
X3965Y2216D01*
X3988Y2210D01*
X4012D01*
X4035Y2216D01*
X4055Y2228D01*
X4072Y2245D01*
X4084Y2265D01*
X4090Y2288D01*
Y2312D01*
X4084Y2335D01*
X4072Y2355D01*
X4055Y2372D01*
X4035Y2384D01*
X4012Y2390D01*
X3988D01*
X3965Y2384D01*
X3945Y2372D01*
X3928Y2355D01*
X3916Y2335D01*
X3915Y2331D01*
X3601D01*
Y2363D01*
X3598Y2374D01*
X3592Y2382D01*
X3584Y2388D01*
X3573Y2391D01*
D02*
G37*
G36*
X2365Y2280D02*
X1990D01*
Y2095D01*
X2294D01*
Y2068D01*
X2237Y2011D01*
X2110D01*
X2110Y2011D01*
X2098Y2008D01*
X2088Y2002D01*
X2028Y1942D01*
X2022Y1932D01*
X2020Y1921D01*
X1987D01*
X1976Y1918D01*
X1968Y1912D01*
X1962Y1904D01*
X1959Y1893D01*
Y1767D01*
X1962Y1756D01*
X1968Y1748D01*
X1976Y1742D01*
X1987Y1739D01*
X2113D01*
X2124Y1742D01*
X2132Y1748D01*
X2138Y1756D01*
X2141Y1767D01*
Y1893D01*
X2138Y1904D01*
X2132Y1912D01*
X2124Y1918D01*
X2113Y1921D01*
X2110D01*
X2106Y1932D01*
X2123Y1949D01*
X2250D01*
X2250Y1949D01*
X2262Y1952D01*
X2272Y1958D01*
X2347Y2033D01*
X2353Y2043D01*
X2356Y2055D01*
X2356Y2055D01*
Y2095D01*
X2365D01*
Y2188D01*
Y2280D01*
D02*
G37*
G36*
X4012Y2190D02*
X3988D01*
X3965Y2184D01*
X3945Y2172D01*
X3928Y2155D01*
X3916Y2135D01*
X3910Y2112D01*
Y2088D01*
X3916Y2065D01*
X3928Y2045D01*
X3945Y2028D01*
X3965Y2016D01*
X3988Y2010D01*
X4012D01*
X4035Y2016D01*
X4055Y2028D01*
X4072Y2045D01*
X4084Y2065D01*
X4090Y2088D01*
Y2112D01*
X4084Y2135D01*
X4072Y2155D01*
X4055Y2172D01*
X4035Y2184D01*
X4012Y2190D01*
D02*
G37*
G36*
X2313Y1921D02*
X2260D01*
Y1841D01*
X2341D01*
Y1894D01*
X2338Y1904D01*
X2332Y1913D01*
X2324Y1919D01*
X2313Y1921D01*
D02*
G37*
G36*
X2240D02*
X2187D01*
X2176Y1919D01*
X2168Y1913D01*
X2162Y1904D01*
X2159Y1894D01*
Y1841D01*
X2240D01*
Y1921D01*
D02*
G37*
G36*
X2341Y1821D02*
X2260D01*
Y1740D01*
X2313D01*
X2324Y1742D01*
X2332Y1748D01*
X2338Y1757D01*
X2341Y1768D01*
Y1821D01*
D02*
G37*
G36*
X2240D02*
X2159D01*
Y1768D01*
X2162Y1757D01*
X2168Y1748D01*
X2176Y1742D01*
X2187Y1740D01*
X2240D01*
Y1821D01*
D02*
G37*
G36*
X2313Y1721D02*
X2260D01*
Y1641D01*
X2341D01*
Y1694D01*
X2338Y1704D01*
X2332Y1713D01*
X2324Y1719D01*
X2313Y1721D01*
D02*
G37*
G36*
X2240D02*
X2187D01*
X2176Y1719D01*
X2168Y1713D01*
X2162Y1704D01*
X2159Y1694D01*
Y1641D01*
X2240D01*
Y1721D01*
D02*
G37*
G36*
X2113Y1721D02*
X2060D01*
Y1640D01*
X2141D01*
Y1693D01*
X2138Y1704D01*
X2132Y1712D01*
X2124Y1718D01*
X2113Y1721D01*
D02*
G37*
G36*
X2040D02*
X1987D01*
X1976Y1718D01*
X1968Y1712D01*
X1962Y1704D01*
X1959Y1693D01*
Y1640D01*
X2040D01*
Y1721D01*
D02*
G37*
G36*
X2610Y2280D02*
X2385D01*
Y2188D01*
Y2095D01*
X2399D01*
Y2050D01*
X2399Y2050D01*
X2402Y2038D01*
X2408Y2028D01*
X2408Y2028D01*
X2419Y2017D01*
Y1921D01*
X2387D01*
X2376Y1919D01*
X2368Y1913D01*
X2362Y1904D01*
X2359Y1894D01*
Y1768D01*
X2362Y1757D01*
X2368Y1748D01*
X2376Y1742D01*
X2387Y1740D01*
X2419D01*
Y1721D01*
X2387D01*
X2376Y1719D01*
X2368Y1713D01*
X2362Y1704D01*
X2359Y1694D01*
Y1568D01*
X2362Y1557D01*
X2368Y1548D01*
X2376Y1542D01*
X2387Y1540D01*
X2513D01*
X2524Y1542D01*
X2532Y1548D01*
X2538Y1557D01*
X2541Y1568D01*
Y1600D01*
X2559D01*
X2572Y1588D01*
X2590Y1580D01*
X2610D01*
X2628Y1588D01*
X2642Y1602D01*
X2650Y1620D01*
Y1640D01*
X2642Y1658D01*
X2628Y1672D01*
X2610Y1680D01*
X2590D01*
X2572Y1672D01*
X2560Y1661D01*
X2541D01*
Y1694D01*
X2538Y1704D01*
X2532Y1713D01*
X2524Y1719D01*
X2513Y1721D01*
X2481D01*
Y1740D01*
X2513D01*
X2524Y1742D01*
X2532Y1748D01*
X2538Y1757D01*
X2541Y1768D01*
Y1894D01*
X2538Y1904D01*
X2532Y1913D01*
X2524Y1919D01*
X2513Y1921D01*
X2481D01*
Y2030D01*
X2481Y2030D01*
X2478Y2042D01*
X2472Y2052D01*
X2472Y2052D01*
X2461Y2063D01*
Y2095D01*
X2610D01*
Y2280D01*
D02*
G37*
G36*
X2341Y1621D02*
X2260D01*
Y1540D01*
X2313D01*
X2324Y1542D01*
X2332Y1548D01*
X2338Y1557D01*
X2341Y1568D01*
Y1621D01*
D02*
G37*
G36*
X2240D02*
X2159D01*
Y1568D01*
X2162Y1557D01*
X2168Y1548D01*
X2176Y1542D01*
X2187Y1540D01*
X2240D01*
Y1621D01*
D02*
G37*
G36*
X2141Y1620D02*
X2060D01*
Y1539D01*
X2113D01*
X2124Y1542D01*
X2132Y1548D01*
X2138Y1556D01*
X2141Y1567D01*
Y1620D01*
D02*
G37*
G36*
X2040D02*
X1959D01*
Y1567D01*
X1962Y1556D01*
X1968Y1548D01*
X1976Y1542D01*
X1987Y1539D01*
X2040D01*
Y1620D01*
D02*
G37*
G36*
X2320Y1520D02*
X2280D01*
X2279Y1520D01*
X2278Y1520D01*
X2239Y1515D01*
X2237Y1515D01*
X2236Y1515D01*
X2198Y1504D01*
X2197Y1504D01*
X2196Y1504D01*
X2159Y1488D01*
X2158Y1488D01*
X2157Y1487D01*
X2123Y1468D01*
X2122Y1467D01*
X2121Y1466D01*
X2089Y1442D01*
X2088Y1441D01*
X2087Y1440D01*
X2060Y1413D01*
X2059Y1412D01*
X2058Y1411D01*
X2034Y1379D01*
X2033Y1378D01*
X2032Y1377D01*
X2013Y1343D01*
X2012Y1342D01*
X2012Y1341D01*
X1996Y1304D01*
X1996Y1303D01*
X1996Y1302D01*
X1985Y1264D01*
X1985Y1263D01*
X1985Y1261D01*
X1980Y1222D01*
X1980Y1221D01*
X1980Y1220D01*
Y1180D01*
X1980Y1179D01*
X1980Y1178D01*
X1985Y1139D01*
X1985Y1137D01*
X1985Y1136D01*
X1996Y1098D01*
X1996Y1097D01*
X1996Y1096D01*
X2012Y1059D01*
X2012Y1058D01*
X2013Y1057D01*
X2032Y1023D01*
X2033Y1022D01*
X2034Y1021D01*
X2058Y989D01*
X2059Y988D01*
X2060Y987D01*
X2087Y960D01*
X2088Y959D01*
X2089Y958D01*
X2121Y934D01*
X2122Y933D01*
X2123Y932D01*
X2157Y913D01*
X2158Y912D01*
X2159Y912D01*
X2196Y896D01*
X2197Y896D01*
X2198Y896D01*
X2236Y885D01*
X2237Y885D01*
X2239Y885D01*
X2278Y880D01*
X2279Y880D01*
X2280Y880D01*
X2320D01*
X2321Y880D01*
X2322Y880D01*
X2361Y885D01*
X2363Y885D01*
X2364Y885D01*
X2402Y896D01*
X2403Y896D01*
X2404Y896D01*
X2441Y912D01*
X2442Y912D01*
X2443Y913D01*
X2477Y932D01*
X2478Y933D01*
X2479Y934D01*
X2511Y958D01*
X2512Y959D01*
X2513Y960D01*
X2540Y987D01*
X2541Y988D01*
X2542Y989D01*
X2566Y1021D01*
X2567Y1022D01*
X2568Y1023D01*
X2587Y1057D01*
X2588Y1058D01*
X2588Y1059D01*
X2604Y1096D01*
X2604Y1097D01*
X2604Y1098D01*
X2615Y1136D01*
X2615Y1137D01*
X2615Y1139D01*
X2620Y1178D01*
X2620Y1179D01*
X2620Y1180D01*
Y1220D01*
X2620Y1221D01*
X2620Y1222D01*
X2615Y1261D01*
X2615Y1263D01*
X2615Y1264D01*
X2604Y1302D01*
X2604Y1303D01*
X2604Y1304D01*
X2588Y1341D01*
X2588Y1342D01*
X2587Y1343D01*
X2568Y1377D01*
X2567Y1378D01*
X2566Y1379D01*
X2542Y1411D01*
X2541Y1412D01*
X2540Y1413D01*
X2513Y1440D01*
X2512Y1441D01*
X2511Y1442D01*
X2479Y1466D01*
X2478Y1467D01*
X2477Y1468D01*
X2443Y1487D01*
X2442Y1488D01*
X2441Y1488D01*
X2404Y1504D01*
X2403Y1504D01*
X2402Y1504D01*
X2364Y1515D01*
X2363Y1515D01*
X2361Y1515D01*
X2322Y1520D01*
X2321Y1520D01*
X2320Y1520D01*
D02*
G37*
G36*
X3620Y720D02*
X3580D01*
X3579Y720D01*
X3578Y720D01*
X3539Y715D01*
X3537Y715D01*
X3536Y715D01*
X3498Y704D01*
X3497Y704D01*
X3496Y704D01*
X3459Y688D01*
X3458Y688D01*
X3457Y687D01*
X3423Y668D01*
X3422Y667D01*
X3421Y666D01*
X3389Y642D01*
X3388Y641D01*
X3387Y640D01*
X3360Y613D01*
X3359Y612D01*
X3358Y611D01*
X3334Y579D01*
X3333Y578D01*
X3332Y577D01*
X3313Y543D01*
X3312Y542D01*
X3312Y541D01*
X3296Y504D01*
X3296Y503D01*
X3296Y502D01*
X3285Y464D01*
X3285Y463D01*
X3285Y461D01*
X3280Y422D01*
X3280Y421D01*
X3280Y420D01*
Y380D01*
X3280Y379D01*
X3280Y378D01*
X3285Y339D01*
X3285Y337D01*
X3285Y336D01*
X3296Y298D01*
X3296Y297D01*
X3296Y296D01*
X3312Y259D01*
X3312Y258D01*
X3313Y257D01*
X3332Y223D01*
X3333Y222D01*
X3334Y221D01*
X3358Y189D01*
X3359Y188D01*
X3360Y187D01*
X3387Y160D01*
X3388Y159D01*
X3389Y158D01*
X3421Y134D01*
X3422Y133D01*
X3423Y132D01*
X3457Y113D01*
X3458Y112D01*
X3459Y112D01*
X3496Y96D01*
X3497Y96D01*
X3498Y96D01*
X3536Y85D01*
X3537Y85D01*
X3539Y85D01*
X3578Y80D01*
X3579Y80D01*
X3580Y80D01*
X3620D01*
X3621Y80D01*
X3622Y80D01*
X3661Y85D01*
X3663Y85D01*
X3664Y85D01*
X3702Y96D01*
X3703Y96D01*
X3704Y96D01*
X3741Y112D01*
X3742Y112D01*
X3743Y113D01*
X3777Y132D01*
X3778Y133D01*
X3779Y134D01*
X3811Y158D01*
X3812Y159D01*
X3813Y160D01*
X3840Y187D01*
X3841Y188D01*
X3842Y189D01*
X3866Y221D01*
X3867Y222D01*
X3868Y223D01*
X3887Y257D01*
X3888Y258D01*
X3888Y259D01*
X3904Y296D01*
X3904Y297D01*
X3904Y298D01*
X3915Y336D01*
X3915Y337D01*
X3915Y339D01*
X3920Y378D01*
X3920Y379D01*
X3920Y380D01*
Y420D01*
X3920Y421D01*
X3920Y422D01*
X3915Y461D01*
X3915Y463D01*
X3915Y464D01*
X3904Y502D01*
X3904Y503D01*
X3904Y504D01*
X3888Y541D01*
X3888Y542D01*
X3887Y543D01*
X3868Y577D01*
X3867Y578D01*
X3866Y579D01*
X3842Y611D01*
X3841Y612D01*
X3840Y613D01*
X3813Y640D01*
X3812Y641D01*
X3811Y642D01*
X3779Y666D01*
X3778Y667D01*
X3777Y668D01*
X3743Y687D01*
X3742Y688D01*
X3741Y688D01*
X3704Y704D01*
X3703Y704D01*
X3702Y704D01*
X3664Y715D01*
X3663Y715D01*
X3661Y715D01*
X3622Y720D01*
X3621Y720D01*
X3620Y720D01*
D02*
G37*
%LPD*%
D11*
X2100Y4850D02*
Y5250D01*
X2300Y5450D01*
X2100Y4740D02*
Y4850D01*
X2300Y5660D02*
X2425Y5785D01*
X2500Y4850D02*
Y5330D01*
Y4730D02*
Y4850D01*
X2425Y5405D02*
Y5585D01*
Y5405D02*
X2500Y5330D01*
X2400Y4630D02*
X2500Y4730D01*
X2400Y4470D02*
Y4630D01*
X2300Y5450D02*
Y5660D01*
X2100Y4740D02*
X2200Y4640D01*
Y4470D02*
Y4640D01*
X2000Y4470D02*
X2200D01*
X2175Y3363D02*
Y4245D01*
X1220Y3070D02*
X1770D01*
X1877Y2885D02*
Y2962D01*
X1770Y3070D02*
X1877Y2962D01*
X200Y3736D02*
X554D01*
X1220Y3070D01*
X200Y3990D02*
X360D01*
X1240Y3110D02*
X1790D01*
X360Y3990D02*
X1240Y3110D01*
X1790D02*
X1990Y2910D01*
X2100D01*
X2125Y2935D01*
Y3033D01*
X2075Y3275D02*
X2080Y3280D01*
X2075Y3033D02*
Y3275D01*
X2180Y3202D02*
Y3358D01*
X2175Y3033D02*
Y3197D01*
X2180Y3202D01*
X2175Y3363D02*
X2180Y3358D01*
X2175Y4245D02*
X2200Y4270D01*
X2225Y3033D02*
Y3945D01*
X2400Y4120D01*
Y4270D01*
X3320Y2700D02*
X4000D01*
X3055Y2435D02*
X3320Y2700D01*
X2723Y2435D02*
X3055D01*
X3180Y2500D02*
X4000D01*
X3065Y2385D02*
X3180Y2500D01*
X2723Y2385D02*
X3065D01*
X3510Y2300D02*
X4000D01*
X3510Y2300D02*
X3510Y2300D01*
X3310D02*
X3310Y2300D01*
X3050Y2300D02*
X3310D01*
X3015Y2335D02*
X3050Y2300D01*
X2723Y2335D02*
X3015D01*
X2450Y1631D02*
X2599D01*
X2600Y1630D01*
X2450Y1631D02*
Y1830D01*
X1780Y2535D02*
X1877D01*
X1750Y2565D02*
Y2620D01*
Y2565D02*
X1780Y2535D01*
X1720Y2650D02*
X1750Y2620D01*
X1630Y2650D02*
X1720D01*
X2430Y2050D02*
X2450Y2030D01*
X2430Y2050D02*
Y2183D01*
X2450Y1831D02*
Y2030D01*
X2425Y2188D02*
X2430Y2183D01*
X2250Y1980D02*
X2325Y2055D01*
Y2188D01*
X2450Y1830D02*
X2450Y1830D01*
X2110Y1980D02*
X2250D01*
X2050Y1920D02*
X2110Y1980D01*
X2050Y1830D02*
Y1920D01*
D13*
X1880Y3280D02*
D03*
X2080D02*
D03*
X2450Y1631D02*
D03*
X2250D02*
D03*
X2450Y1831D02*
D03*
X2250D02*
D03*
X3510Y2300D02*
D03*
X3310D02*
D03*
D14*
X1877Y2335D02*
D03*
Y2385D02*
D03*
Y2435D02*
D03*
Y2485D02*
D03*
Y2535D02*
D03*
Y2585D02*
D03*
Y2635D02*
D03*
Y2685D02*
D03*
Y2735D02*
D03*
Y2785D02*
D03*
Y2835D02*
D03*
Y2885D02*
D03*
X2723D02*
D03*
Y2835D02*
D03*
Y2785D02*
D03*
Y2735D02*
D03*
Y2685D02*
D03*
Y2635D02*
D03*
Y2585D02*
D03*
Y2535D02*
D03*
Y2485D02*
D03*
Y2435D02*
D03*
Y2385D02*
D03*
Y2335D02*
D03*
D15*
X2025Y3033D02*
D03*
X2075D02*
D03*
X2125D02*
D03*
X2175D02*
D03*
X2225D02*
D03*
X2275D02*
D03*
X2325D02*
D03*
X2375D02*
D03*
X2425D02*
D03*
X2475D02*
D03*
X2525D02*
D03*
X2575D02*
D03*
Y2188D02*
D03*
X2525D02*
D03*
X2475D02*
D03*
X2425D02*
D03*
X2375D02*
D03*
X2325D02*
D03*
X2275D02*
D03*
X2225D02*
D03*
X2175D02*
D03*
X2125D02*
D03*
X2075D02*
D03*
X2025D02*
D03*
D16*
X1630Y2650D02*
D03*
Y2850D02*
D03*
Y2250D02*
D03*
Y2450D02*
D03*
X2050Y1830D02*
D03*
Y1630D02*
D03*
X2970Y2960D02*
D03*
Y2760D02*
D03*
X2400Y4270D02*
D03*
Y4470D02*
D03*
X2200Y4270D02*
D03*
Y4470D02*
D03*
X2000Y4270D02*
D03*
Y4470D02*
D03*
D17*
X1240Y3690D02*
D03*
X1520D02*
D03*
X1240Y3430D02*
D03*
X1520D02*
D03*
X1240Y4830D02*
D03*
X1520D02*
D03*
D18*
X1380Y4553D02*
D03*
D19*
X1610Y3967D02*
D03*
X1380D02*
D03*
X1150D02*
D03*
D20*
X1590Y5180D02*
D03*
X1170D02*
D03*
D21*
X2100Y4850D02*
D03*
X2005Y5090D02*
D03*
X2195D02*
D03*
X2500Y4850D02*
D03*
X2405Y5090D02*
D03*
X2595D02*
D03*
D37*
X2405Y4970D02*
Y5090D01*
X2005Y4970D02*
Y5090D01*
X1012Y4553D02*
X1380D01*
X704Y4244D02*
X1012Y4553D01*
X200Y4244D02*
X704D01*
X1830Y3420D02*
X1880D01*
Y3280D02*
Y3420D01*
X1950D02*
X2010D01*
X1890D02*
X1950D01*
X1830D02*
X1890D01*
X1530D02*
X1830D01*
X1520Y3430D02*
X1530Y3420D01*
X1520Y3430D02*
Y3690D01*
X2000Y3930D02*
Y4270D01*
X1760Y3690D02*
X2000Y3930D01*
X1520Y3690D02*
X1760D01*
X1380Y3830D02*
X1520Y3690D01*
X1380Y3830D02*
Y3967D01*
Y4553D01*
X1610Y3967D02*
X1620Y3978D01*
Y4730D01*
X1520Y4830D02*
X1620Y4730D01*
X1520Y4830D02*
X1530Y4840D01*
Y4990D01*
X1590Y5050D01*
Y5180D01*
X1850Y5090D02*
X2005D01*
X1760Y5180D02*
X1850Y5090D01*
X1590Y5180D02*
X1760D01*
X1880Y3190D02*
Y3280D01*
X1920Y3150D02*
X2000D01*
X2025Y3125D01*
X1880Y3190D02*
X1920Y3150D01*
X3110Y2960D02*
X3110Y2960D01*
X2970Y2960D02*
X3110D01*
X2723Y2885D02*
X2795D01*
X2870Y2960D02*
X2970D01*
X2795Y2885D02*
X2870Y2960D01*
X2025Y3033D02*
Y3125D01*
X1490Y2240D02*
X1620D01*
X1630Y2250D01*
X1805Y2335D02*
X1877D01*
X1720Y2250D02*
X1805Y2335D01*
X1630Y2250D02*
X1720D01*
D38*
X1170Y5180D02*
Y5530D01*
X1424Y5785D01*
X2175D01*
X1590Y5180D02*
Y5370D01*
X1805Y5585D01*
X2175D01*
D39*
X200Y3482D02*
D03*
Y3736D02*
D03*
Y3990D02*
D03*
D40*
Y4244D02*
D03*
D41*
X2175Y5585D02*
D03*
D42*
X1698Y6056D02*
D03*
X2902D02*
D03*
D43*
X2425Y5585D02*
D03*
X2175Y5785D02*
D03*
X2425D02*
D03*
D44*
X4000Y2500D02*
D03*
Y2100D02*
D03*
Y2700D02*
D03*
Y2900D02*
D03*
Y2300D02*
D03*
D45*
X2500Y2400D02*
D03*
X2300D02*
D03*
X2100D02*
D03*
X2500Y2600D02*
D03*
X2300D02*
D03*
X2100D02*
D03*
X2500Y2800D02*
D03*
X2300D02*
D03*
X2100D02*
D03*
X2405Y4970D02*
D03*
X2005D02*
D03*
X1960Y5320D02*
D03*
X2110Y3420D02*
D03*
X2010D02*
D03*
X1950D02*
D03*
X1890D02*
D03*
X1830D02*
D03*
X1490Y2850D02*
D03*
X3110Y2960D02*
D03*
X2600Y1630D02*
D03*
X1490Y2450D02*
D03*
Y2240D02*
D03*
M02*
