M48
;Layer_Color=6710886
;FILE_FORMAT=4:2
METRIC,LZ
;TYPE=PLATED
T1F00S00C0.30
T2F00S00C0.80
T3F00S00C1.00
T4F00S00C1.02
T5F00S00C2.30
%
T01
X00149Y00224
X00161Y00251
X001709Y002585
X00171Y0027
X00163Y0029
X0021Y0028
X0023
Y0026
Y0024
X0021
Y0026
X0025
Y0024
Y0028
X002802Y00326
X00313Y00297
X00373Y003138
X003691Y002241
X00316Y00223
Y00204
X002449Y002006
X0026Y00163
X00211Y00342
X00195
X00189
X00183
X00071Y00362
X002005Y00497
X00196Y00532
X00221Y00523
X00263Y00524
X002405Y00497
T02
X00404Y00114
Y00134
Y00184
Y00204
Y00224
Y00244
Y00294
Y00314
Y00334
Y00354
T03
X002175Y005585
Y005785
X002425
Y005585
T04
X0002Y003482
Y003736
Y00399
Y004244
T05
X001698Y006056
X002902
M30
