M48
;Layer_Color=6710886
;FILE_FORMAT=4:2
METRIC,LZ
;TYPE=PLATED
T1F00S00C0.80
T2F00S00C1.00
T3F00S00C1.02
T4F00S00C1.50
T5F00S00C2.30
%
T01
X00075Y00128
X00095
X00115
X00135
X00388Y0017
Y0019
Y00242
Y00262
Y00282
Y00302
T02
X002175Y005585
Y005785
X002425
Y005585
X003355Y006145
X003805
T03
X003069Y004716
X003323
X003577
X003831
T04
X00323Y005895
X00393
T05
X001698Y006056
X002902
M30
