<?xml version="1.0" ?>
<svg xmlns="http://www.w3.org/2000/svg" xmlns:xlink="http://www.w3.org/1999/xlink" version="1.1" width="32.94999979974675mm" height="49.549999799734714mm" viewBox="7.0990001001326455 -37.15099969960207 32.94999979974675 49.549999799734714">
	<g transform="scale(1,-1)">
		<g>
			<path fill-rule="evenodd" fill="#66cc99" stroke="#555555" stroke-width="0.02" opacity="0.6" d="M 13.898999899879401,12.799 L 13.897073791042432,12.759793153926884 L 13.891314014000503,12.720963890968942 L 13.881776038543101,12.682886158399851 L 13.868551720587845,12.645926665599598 L 13.85176841754583,12.610441352688072 L 13.831587761799998,12.576771962626761 L 13.808204104097074,12.545242750047572 L 13.781842641843511,12.516157358503214 L 13.752757250331538,12.489795896214053 L 13.721228037781016,12.46641223847247 L 13.687558647744455,12.44623158268536 L 13.652073334853478,12.429448279599825 L 13.615113842069459,12.416223961599263 L 13.577036109512035,12.40668598609517 L 13.538206846561124,12.400926209005632 L 13.49900000024519,12.399000100132644 L 13.459793153926887,12.400926208957568 L 13.420963890968943,12.406685985999497 L 13.382886158399852,12.416223961456899 L 13.345926665599599,12.429448279412155 L 13.310441352688073,12.44623158245417 L 13.276771962626762,12.466412238200002 L 13.245242750047574,12.489795895902926 L 13.216157358503215,12.516157358156487 L 13.189795896214054,12.545242749668462 L 13.166412238472473,12.576771962218984 L 13.146231582685362,12.610441352255545 L 13.129448279599826,12.645926665146522 L 13.116223961599264,12.682886157930541 L 13.10668598609517,12.720963890487965 L 13.100926209005634,12.759793153438876 L 13.099000100132645,12.79899999975481 L 13.100926208957569,12.838206846073113 L 13.106685985999498,12.877036109031057 L 13.1162239614569,12.915113841600148 L 13.129448279412156,12.952073334400401 L 13.14623158245417,12.987558647311927 L 13.166412238200003,13.021228037373238 L 13.189795895902927,13.052757249952426 L 13.21615735815649,13.081842641496785 L 13.245242749668463,13.108204103785946 L 13.276771962218985,13.131587761527529 L 13.310441352255546,13.151768417314639 L 13.345926665146523,13.168551720400174 L 13.382886157930542,13.181776038400736 L 13.420963890487966,13.19131401390483 L 13.459793153438877,13.197073790994367 L 13.49899999975481,13.198999899867355 L 13.538206846073114,13.197073791042431 L 13.577036109031056,13.191314014000502 L 13.615113841600147,13.1817760385431 L 13.6520733344004,13.168551720587844 L 13.687558647311928,13.15176841754583 L 13.721228037373237,13.131587761799997 L 13.752757249952426,13.108204104097075 L 13.781842641496784,13.081842641843512 L 13.808204103785945,13.052757250331538 L 13.831587761527528,13.021228037781016 L 13.85176841731464,12.987558647744455 L 13.868551720400173,12.952073334853479 L 13.881776038400735,12.915113842069461 L 13.89131401390483,12.877036109512035 L 13.897073790994368,12.838206846561125 L 13.898999899879401,12.799 z"/>
			<path fill-rule="evenodd" fill="#66cc99" stroke="#555555" stroke-width="0.02" opacity="0.6" d="M 11.898999899879401,12.799 L 11.897073791042432,12.759793153926884 L 11.891314014000503,12.720963890968942 L 11.881776038543101,12.682886158399851 L 11.868551720587845,12.645926665599598 L 11.85176841754583,12.610441352688072 L 11.831587761799998,12.576771962626761 L 11.808204104097074,12.545242750047572 L 11.781842641843511,12.516157358503214 L 11.752757250331538,12.489795896214053 L 11.721228037781016,12.46641223847247 L 11.687558647744455,12.44623158268536 L 11.652073334853478,12.429448279599825 L 11.615113842069459,12.416223961599263 L 11.577036109512035,12.40668598609517 L 11.538206846561124,12.400926209005632 L 11.49900000024519,12.399000100132644 L 11.459793153926887,12.400926208957568 L 11.420963890968943,12.406685985999497 L 11.382886158399852,12.416223961456899 L 11.345926665599599,12.429448279412155 L 11.310441352688073,12.44623158245417 L 11.276771962626762,12.466412238200002 L 11.245242750047574,12.489795895902926 L 11.216157358503215,12.516157358156487 L 11.189795896214054,12.545242749668462 L 11.166412238472473,12.576771962218984 L 11.146231582685362,12.610441352255545 L 11.129448279599826,12.645926665146522 L 11.116223961599264,12.682886157930541 L 11.10668598609517,12.720963890487965 L 11.100926209005634,12.759793153438876 L 11.099000100132645,12.79899999975481 L 11.100926208957569,12.838206846073113 L 11.106685985999498,12.877036109031057 L 11.1162239614569,12.915113841600148 L 11.129448279412156,12.952073334400401 L 11.14623158245417,12.987558647311927 L 11.166412238200003,13.021228037373238 L 11.189795895902927,13.052757249952426 L 11.21615735815649,13.081842641496785 L 11.245242749668463,13.108204103785946 L 11.276771962218985,13.131587761527529 L 11.310441352255546,13.151768417314639 L 11.345926665146523,13.168551720400174 L 11.382886157930542,13.181776038400736 L 11.420963890487966,13.19131401390483 L 11.459793153438877,13.197073790994367 L 11.49899999975481,13.198999899867355 L 11.538206846073114,13.197073791042431 L 11.577036109031056,13.191314014000502 L 11.615113841600147,13.1817760385431 L 11.6520733344004,13.168551720587844 L 11.687558647311928,13.15176841754583 L 11.721228037373237,13.131587761799997 L 11.752757249952426,13.108204104097075 L 11.781842641496784,13.081842641843512 L 11.808204103785945,13.052757250331538 L 11.831587761527528,13.021228037781016 L 11.85176841731464,12.987558647744455 L 11.868551720400173,12.952073334853479 L 11.881776038400735,12.915113842069461 L 11.89131401390483,12.877036109512035 L 11.897073790994368,12.838206846561125 L 11.898999899879401,12.799 z"/>
			<path fill-rule="evenodd" fill="#66cc99" stroke="#555555" stroke-width="0.02" opacity="0.6" d="M 9.898999899879401,12.799 L 9.897073791042432,12.759793153926884 L 9.891314014000503,12.720963890968942 L 9.881776038543101,12.682886158399851 L 9.868551720587845,12.645926665599598 L 9.85176841754583,12.610441352688072 L 9.831587761799998,12.576771962626761 L 9.808204104097074,12.545242750047572 L 9.781842641843511,12.516157358503214 L 9.752757250331538,12.489795896214053 L 9.721228037781016,12.46641223847247 L 9.687558647744455,12.44623158268536 L 9.652073334853478,12.429448279599825 L 9.615113842069459,12.416223961599263 L 9.577036109512035,12.40668598609517 L 9.538206846561124,12.400926209005632 L 9.49900000024519,12.399000100132644 L 9.459793153926887,12.400926208957568 L 9.420963890968943,12.406685985999497 L 9.382886158399852,12.416223961456899 L 9.345926665599599,12.429448279412155 L 9.310441352688073,12.44623158245417 L 9.276771962626762,12.466412238200002 L 9.245242750047574,12.489795895902926 L 9.216157358503215,12.516157358156487 L 9.189795896214054,12.545242749668462 L 9.166412238472473,12.576771962218984 L 9.146231582685362,12.610441352255545 L 9.129448279599826,12.645926665146522 L 9.116223961599264,12.682886157930541 L 9.10668598609517,12.720963890487965 L 9.100926209005634,12.759793153438876 L 9.099000100132645,12.79899999975481 L 9.100926208957569,12.838206846073113 L 9.106685985999498,12.877036109031057 L 9.1162239614569,12.915113841600148 L 9.129448279412156,12.952073334400401 L 9.14623158245417,12.987558647311927 L 9.166412238200003,13.021228037373238 L 9.189795895902927,13.052757249952426 L 9.21615735815649,13.081842641496785 L 9.245242749668463,13.108204103785946 L 9.276771962218985,13.131587761527529 L 9.310441352255546,13.151768417314639 L 9.345926665146523,13.168551720400174 L 9.382886157930542,13.181776038400736 L 9.420963890487966,13.19131401390483 L 9.459793153438877,13.197073790994367 L 9.49899999975481,13.198999899867355 L 9.538206846073114,13.197073791042431 L 9.577036109031056,13.191314014000502 L 9.615113841600147,13.1817760385431 L 9.6520733344004,13.168551720587844 L 9.687558647311928,13.15176841754583 L 9.721228037373237,13.131587761799997 L 9.752757249952426,13.108204104097075 L 9.781842641496784,13.081842641843512 L 9.808204103785945,13.052757250331538 L 9.831587761527528,13.021228037781016 L 9.85176841731464,12.987558647744455 L 9.868551720400173,12.952073334853479 L 9.881776038400735,12.915113842069461 L 9.89131401390483,12.877036109512035 L 9.897073790994368,12.838206846561125 L 9.898999899879401,12.799 z"/>
			<path fill-rule="evenodd" fill="#66cc99" stroke="#555555" stroke-width="0.02" opacity="0.6" d="M 7.898999899879401,12.799 L 7.897073791042435,12.759793153926912 L 7.891314014000505,12.720963890968951 L 7.881776038543092,12.682886158399823 L 7.868551720587843,12.64592666559959 L 7.85176841754582,12.610441352688051 L 7.831587761799989,12.576771962626745 L 7.808204104097055,12.545242750047546 L 7.781842641843523,12.516157358503229 L 7.75275725033152,12.489795896214037 L 7.721228037781008,12.466412238472463 L 7.68755864774445,12.446231582685357 L 7.6520733348534655,12.42944827959982 L 7.615113842069442,12.416223961599256 L 7.577036109512034,12.40668598609517 L 7.538206846561123,12.400926209005632 L 7.499000000245193,12.399000100132644 L 7.459793153926887,12.400926208957568 L 7.420963890968942,12.406685985999497 L 7.382886158399833,12.416223961456906 L 7.345926665599586,12.42944827941216 L 7.310441352688061,12.446231582454175 L 7.276771962626753,12.466412238200007 L 7.245242750047569,12.489795895902928 L 7.216157358503225,12.516157358156478 L 7.189795896214041,12.545242749668477 L 7.166412238472453,12.57677196221901 L 7.146231582685352,12.61044135225556 L 7.12944827959982,12.645926665146536 L 7.116223961599258,12.682886157930561 L 7.106685986095168,12.720963890487974 L 7.100926209005635,12.759793153438867 L 7.0990001001326455,12.79899999975481 L 7.100926208957566,12.838206846073085 L 7.106685985999496,12.877036109031048 L 7.116223961456909,12.915113841600176 L 7.129448279412158,12.952073334400408 L 7.146231582454181,12.987558647311948 L 7.166412238200012,13.021228037373254 L 7.189795895902946,13.052757249952453 L 7.216157358156478,13.08184264149677 L 7.245242749668481,13.108204103785962 L 7.2767719622189935,13.131587761527536 L 7.310441352255551,13.151768417314642 L 7.345926665146536,13.16855172040018 L 7.382886157930559,13.181776038400743 L 7.4209638904879665,13.19131401390483 L 7.459793153438878,13.197073790994367 L 7.498999999754808,13.198999899867355 L 7.538206846073114,13.197073791042431 L 7.5770361090310585,13.191314014000502 L 7.615113841600167,13.181776038543093 L 7.652073334400415,13.168551720587839 L 7.687558647311939,13.151768417545824 L 7.721228037373248,13.131587761799992 L 7.752757249952431,13.108204104097073 L 7.781842641496775,13.08184264184352 L 7.808204103785958,13.052757250331524 L 7.8315877615275475,13.021228037780991 L 7.851768417314649,12.987558647744441 L 7.8685517204001805,12.952073334853464 L 7.8817760384007425,12.915113842069442 L 7.891314013904832,12.877036109512026 L 7.897073790994365,12.838206846561134 L 7.898999899879401,12.799 z"/>
			<path fill-rule="evenodd" fill="#66cc99" stroke="#555555" stroke-width="0.02" opacity="0.6" d="M 39.1989998998794,16.999 L 39.197073791042435,16.959793153926846 L 39.19131401400049,16.92096389096883 L 39.1817760385431,16.882886158399863 L 39.168551720587836,16.845926665599574 L 39.15176841754579,16.81044135268798 L 39.131587761799956,16.7767719626267 L 39.10820410409707,16.74524275004757 L 39.08184264184352,16.716157358503235 L 39.05275725033148,16.689795896214 L 39.02122803778105,16.666412238472496 L 38.98755864774451,16.64623158268539 L 38.95207333485345,16.629448279599817 L 38.91511384206943,16.616223961599253 L 38.87703610951208,16.606685986095183 L 38.83820684656113,16.600926209005635 L 38.79900000024523,16.59900010013265 L 38.75979315392693,16.600926208957564 L 38.72096389096894,16.6066859859995 L 38.68288615839981,16.61622396145691 L 38.64592666559966,16.629448279412127 L 38.61044135268808,16.64623158245417 L 38.57677196262678,16.66641223819999 L 38.54524275004755,16.68979589590294 L 38.516157358503236,16.716157358156472 L 38.48979589621405,16.745242749668463 L 38.46641223847245,16.776771962219012 L 38.44623158268529,16.810441352255655 L 38.42944827959982,16.84592666514654 L 38.41622396159927,16.882886157930525 L 38.40668598609514,16.920963890488043 L 38.40092620900562,16.959793153438994 L 38.39900010013264,16.998999999754844 L 38.400926208957564,17.03820684607315 L 38.40668598599951,17.077036109031166 L 38.4162239614569,17.115113841600134 L 38.42944827941216,17.152073334400423 L 38.44623158245421,17.187558647312017 L 38.46641223820004,17.221228037373297 L 38.48979589590293,17.252757249952428 L 38.51615735815648,17.281842641496763 L 38.54524274966852,17.308204103785997 L 38.57677196221895,17.3315877615275 L 38.61044135225549,17.351768417314606 L 38.64592666514655,17.36855172040018 L 38.68288615793057,17.381776038400744 L 38.720963890487916,17.391314013904815 L 38.75979315343887,17.397073790994362 L 38.79899999975477,17.39899989986735 L 38.838206846073064,17.397073791042434 L 38.87703610903106,17.391314014000496 L 38.91511384160019,17.381776038543087 L 38.95207333440034,17.36855172058787 L 38.98755864731192,17.351768417545827 L 39.02122803737322,17.33158776180001 L 39.05275724995245,17.308204104097058 L 39.08184264149676,17.28184264184353 L 39.10820410378595,17.252757250331534 L 39.13158776152755,17.221228037780985 L 39.151768417314706,17.187558647744343 L 39.16855172040018,17.152073334853462 L 39.18177603840073,17.115113842069476 L 39.19131401390486,17.077036109511955 L 39.19707379099438,17.038206846561007 L 39.1989998998794,16.999 z"/>
			<path fill-rule="evenodd" fill="#66cc99" stroke="#555555" stroke-width="0.02" opacity="0.6" d="M 39.1989998998794,18.999 L 39.197073791042435,18.959793153926846 L 39.19131401400049,18.92096389096883 L 39.1817760385431,18.882886158399863 L 39.168551720587836,18.845926665599574 L 39.15176841754579,18.81044135268798 L 39.131587761799956,18.7767719626267 L 39.10820410409707,18.74524275004757 L 39.08184264184352,18.716157358503235 L 39.05275725033148,18.689795896214 L 39.02122803778105,18.666412238472496 L 38.98755864774451,18.64623158268539 L 38.95207333485345,18.629448279599817 L 38.91511384206943,18.616223961599253 L 38.87703610951208,18.606685986095183 L 38.83820684656113,18.600926209005635 L 38.79900000024523,18.59900010013265 L 38.75979315392693,18.600926208957564 L 38.72096389096894,18.6066859859995 L 38.68288615839981,18.61622396145691 L 38.64592666559966,18.629448279412127 L 38.61044135268808,18.64623158245417 L 38.57677196262678,18.66641223819999 L 38.54524275004755,18.68979589590294 L 38.516157358503236,18.716157358156472 L 38.48979589621405,18.745242749668463 L 38.46641223847245,18.776771962219012 L 38.44623158268529,18.810441352255655 L 38.42944827959982,18.84592666514654 L 38.41622396159927,18.882886157930525 L 38.40668598609514,18.920963890488043 L 38.40092620900562,18.959793153438994 L 38.39900010013264,18.998999999754844 L 38.400926208957564,19.03820684607315 L 38.40668598599951,19.077036109031166 L 38.4162239614569,19.115113841600134 L 38.42944827941216,19.152073334400423 L 38.44623158245421,19.187558647312017 L 38.46641223820004,19.221228037373297 L 38.48979589590293,19.252757249952428 L 38.51615735815648,19.281842641496763 L 38.54524274966852,19.308204103785997 L 38.57677196221895,19.3315877615275 L 38.61044135225549,19.351768417314606 L 38.64592666514655,19.36855172040018 L 38.68288615793057,19.381776038400744 L 38.720963890487916,19.391314013904815 L 38.75979315343887,19.397073790994362 L 38.79899999975477,19.39899989986735 L 38.838206846073064,19.397073791042434 L 38.87703610903106,19.391314014000496 L 38.91511384160019,19.381776038543087 L 38.95207333440034,19.36855172058787 L 38.98755864731192,19.351768417545827 L 39.02122803737322,19.33158776180001 L 39.05275724995245,19.308204104097058 L 39.08184264149676,19.28184264184353 L 39.10820410378595,19.252757250331534 L 39.13158776152755,19.221228037780985 L 39.151768417314706,19.187558647744343 L 39.16855172040018,19.152073334853462 L 39.18177603840073,19.115113842069476 L 39.19131401390486,19.077036109511955 L 39.19707379099438,19.038206846561007 L 39.1989998998794,18.999 z"/>
			<path fill-rule="evenodd" fill="#66cc99" stroke="#555555" stroke-width="0.02" opacity="0.6" d="M 39.1989998998794,24.199 L 39.197073791042435,24.15979315392685 L 39.19131401400049,24.120963890968834 L 39.1817760385431,24.082886158399866 L 39.168551720587836,24.045926665599577 L 39.15176841754579,24.010441352687984 L 39.131587761799956,23.976771962626703 L 39.10820410409707,23.945242750047573 L 39.08184264184352,23.916157358503238 L 39.05275725033148,23.889795896214004 L 39.02122803778105,23.8664122384725 L 38.98755864774451,23.846231582685395 L 38.95207333485345,23.82944827959982 L 38.91511384206943,23.816223961599256 L 38.87703610951208,23.806685986095186 L 38.83820684656113,23.800926209005638 L 38.79900000024523,23.799000100132652 L 38.75979315392693,23.800926208957566 L 38.72096389096894,23.806685985999504 L 38.68288615839981,23.816223961456913 L 38.64592666559966,23.82944827941213 L 38.61044135268808,23.846231582454173 L 38.57677196262678,23.86641223819999 L 38.54524275004755,23.889795895902942 L 38.516157358503236,23.916157358156475 L 38.48979589621405,23.945242749668466 L 38.46641223847245,23.976771962219015 L 38.44623158268529,24.010441352255658 L 38.42944827959982,24.045926665146542 L 38.41622396159927,24.082886157930528 L 38.40668598609514,24.120963890488046 L 38.40092620900562,24.159793153438997 L 38.39900010013264,24.198999999754847 L 38.400926208957564,24.238206846073155 L 38.40668598599951,24.27703610903117 L 38.4162239614569,24.315113841600137 L 38.42944827941216,24.352073334400426 L 38.44623158245421,24.38755864731202 L 38.46641223820004,24.4212280373733 L 38.48979589590293,24.45275724995243 L 38.51615735815648,24.481842641496765 L 38.54524274966852,24.508204103786 L 38.57677196221895,24.531587761527504 L 38.61044135225549,24.55176841731461 L 38.64592666514655,24.568551720400183 L 38.68288615793057,24.581776038400747 L 38.720963890487916,24.591314013904817 L 38.75979315343887,24.597073790994365 L 38.79899999975477,24.59899989986735 L 38.838206846073064,24.597073791042437 L 38.87703610903106,24.5913140140005 L 38.91511384160019,24.58177603854309 L 38.95207333440034,24.568551720587873 L 38.98755864731192,24.55176841754583 L 39.02122803737322,24.53158776180001 L 39.05275724995245,24.50820410409706 L 39.08184264149676,24.48184264184353 L 39.10820410378595,24.452757250331537 L 39.13158776152755,24.42122803778099 L 39.151768417314706,24.387558647744346 L 39.16855172040018,24.352073334853465 L 39.18177603840073,24.31511384206948 L 39.19131401390486,24.277036109511958 L 39.19707379099438,24.23820684656101 L 39.1989998998794,24.199 z"/>
			<path fill-rule="evenodd" fill="#66cc99" stroke="#555555" stroke-width="0.02" opacity="0.6" d="M 39.1989998998794,26.199 L 39.197073791042435,26.15979315392685 L 39.19131401400049,26.120963890968834 L 39.1817760385431,26.082886158399866 L 39.168551720587836,26.045926665599577 L 39.15176841754579,26.010441352687984 L 39.131587761799956,25.976771962626703 L 39.10820410409707,25.945242750047573 L 39.08184264184352,25.916157358503238 L 39.05275725033148,25.889795896214004 L 39.02122803778105,25.8664122384725 L 38.98755864774451,25.846231582685395 L 38.95207333485345,25.82944827959982 L 38.91511384206943,25.816223961599256 L 38.87703610951208,25.806685986095186 L 38.83820684656113,25.800926209005638 L 38.79900000024523,25.799000100132652 L 38.75979315392693,25.800926208957566 L 38.72096389096894,25.806685985999504 L 38.68288615839981,25.816223961456913 L 38.64592666559966,25.82944827941213 L 38.61044135268808,25.846231582454173 L 38.57677196262678,25.86641223819999 L 38.54524275004755,25.889795895902942 L 38.516157358503236,25.916157358156475 L 38.48979589621405,25.945242749668466 L 38.46641223847245,25.976771962219015 L 38.44623158268529,26.010441352255658 L 38.42944827959982,26.045926665146542 L 38.41622396159927,26.082886157930528 L 38.40668598609514,26.120963890488046 L 38.40092620900562,26.159793153438997 L 38.39900010013264,26.198999999754847 L 38.400926208957564,26.238206846073155 L 38.40668598599951,26.27703610903117 L 38.4162239614569,26.315113841600137 L 38.42944827941216,26.352073334400426 L 38.44623158245421,26.38755864731202 L 38.46641223820004,26.4212280373733 L 38.48979589590293,26.45275724995243 L 38.51615735815648,26.481842641496765 L 38.54524274966852,26.508204103786 L 38.57677196221895,26.531587761527504 L 38.61044135225549,26.55176841731461 L 38.64592666514655,26.568551720400183 L 38.68288615793057,26.581776038400747 L 38.720963890487916,26.591314013904817 L 38.75979315343887,26.597073790994365 L 38.79899999975477,26.59899989986735 L 38.838206846073064,26.597073791042437 L 38.87703610903106,26.5913140140005 L 38.91511384160019,26.58177603854309 L 38.95207333440034,26.568551720587873 L 38.98755864731192,26.55176841754583 L 39.02122803737322,26.53158776180001 L 39.05275724995245,26.50820410409706 L 39.08184264149676,26.48184264184353 L 39.10820410378595,26.452757250331537 L 39.13158776152755,26.42122803778099 L 39.151768417314706,26.387558647744346 L 39.16855172040018,26.352073334853465 L 39.18177603840073,26.31511384206948 L 39.19131401390486,26.277036109511958 L 39.19707379099438,26.23820684656101 L 39.1989998998794,26.199 z"/>
			<path fill-rule="evenodd" fill="#66cc99" stroke="#555555" stroke-width="0.02" opacity="0.6" d="M 39.1989998998794,28.199 L 39.197073791042435,28.15979315392685 L 39.19131401400049,28.120963890968834 L 39.1817760385431,28.082886158399866 L 39.168551720587836,28.045926665599577 L 39.15176841754579,28.010441352687984 L 39.131587761799956,27.976771962626703 L 39.10820410409707,27.945242750047573 L 39.08184264184352,27.916157358503238 L 39.05275725033148,27.889795896214004 L 39.02122803778105,27.8664122384725 L 38.98755864774451,27.846231582685395 L 38.95207333485345,27.82944827959982 L 38.91511384206943,27.816223961599256 L 38.87703610951208,27.806685986095186 L 38.83820684656113,27.800926209005638 L 38.79900000024523,27.799000100132652 L 38.75979315392693,27.800926208957566 L 38.72096389096894,27.806685985999504 L 38.68288615839981,27.816223961456913 L 38.64592666559966,27.82944827941213 L 38.61044135268808,27.846231582454173 L 38.57677196262678,27.86641223819999 L 38.54524275004755,27.889795895902942 L 38.516157358503236,27.916157358156475 L 38.48979589621405,27.945242749668466 L 38.46641223847245,27.976771962219015 L 38.44623158268529,28.010441352255658 L 38.42944827959982,28.045926665146542 L 38.41622396159927,28.082886157930528 L 38.40668598609514,28.120963890488046 L 38.40092620900562,28.159793153438997 L 38.39900010013264,28.198999999754847 L 38.400926208957564,28.238206846073155 L 38.40668598599951,28.27703610903117 L 38.4162239614569,28.315113841600137 L 38.42944827941216,28.352073334400426 L 38.44623158245421,28.38755864731202 L 38.46641223820004,28.4212280373733 L 38.48979589590293,28.45275724995243 L 38.51615735815648,28.481842641496765 L 38.54524274966852,28.508204103786 L 38.57677196221895,28.531587761527504 L 38.61044135225549,28.55176841731461 L 38.64592666514655,28.568551720400183 L 38.68288615793057,28.581776038400747 L 38.720963890487916,28.591314013904817 L 38.75979315343887,28.597073790994365 L 38.79899999975477,28.59899989986735 L 38.838206846073064,28.597073791042437 L 38.87703610903106,28.5913140140005 L 38.91511384160019,28.58177603854309 L 38.95207333440034,28.568551720587873 L 38.98755864731192,28.55176841754583 L 39.02122803737322,28.53158776180001 L 39.05275724995245,28.50820410409706 L 39.08184264149676,28.48184264184353 L 39.10820410378595,28.452757250331537 L 39.13158776152755,28.42122803778099 L 39.151768417314706,28.387558647744346 L 39.16855172040018,28.352073334853465 L 39.18177603840073,28.31511384206948 L 39.19131401390486,28.277036109511958 L 39.19707379099438,28.23820684656101 L 39.1989998998794,28.199 z"/>
			<path fill-rule="evenodd" fill="#66cc99" stroke="#555555" stroke-width="0.02" opacity="0.6" d="M 39.1989998998794,30.199 L 39.197073791042435,30.15979315392685 L 39.19131401400049,30.120963890968834 L 39.1817760385431,30.082886158399866 L 39.168551720587836,30.045926665599577 L 39.15176841754579,30.010441352687984 L 39.131587761799956,29.976771962626703 L 39.10820410409707,29.945242750047573 L 39.08184264184352,29.916157358503238 L 39.05275725033148,29.889795896214004 L 39.02122803778105,29.8664122384725 L 38.98755864774451,29.846231582685395 L 38.95207333485345,29.82944827959982 L 38.91511384206943,29.816223961599256 L 38.87703610951208,29.806685986095186 L 38.83820684656113,29.800926209005638 L 38.79900000024523,29.799000100132652 L 38.75979315392693,29.800926208957566 L 38.72096389096894,29.806685985999504 L 38.68288615839981,29.816223961456913 L 38.64592666559966,29.82944827941213 L 38.61044135268808,29.846231582454173 L 38.57677196262678,29.86641223819999 L 38.54524275004755,29.889795895902942 L 38.516157358503236,29.916157358156475 L 38.48979589621405,29.945242749668466 L 38.46641223847245,29.976771962219015 L 38.44623158268529,30.010441352255658 L 38.42944827959982,30.045926665146542 L 38.41622396159927,30.082886157930528 L 38.40668598609514,30.120963890488046 L 38.40092620900562,30.159793153438997 L 38.39900010013264,30.198999999754847 L 38.400926208957564,30.238206846073155 L 38.40668598599951,30.27703610903117 L 38.4162239614569,30.315113841600137 L 38.42944827941216,30.352073334400426 L 38.44623158245421,30.38755864731202 L 38.46641223820004,30.4212280373733 L 38.48979589590293,30.45275724995243 L 38.51615735815648,30.481842641496765 L 38.54524274966852,30.508204103786 L 38.57677196221895,30.531587761527504 L 38.61044135225549,30.55176841731461 L 38.64592666514655,30.568551720400183 L 38.68288615793057,30.581776038400747 L 38.720963890487916,30.591314013904817 L 38.75979315343887,30.597073790994365 L 38.79899999975477,30.59899989986735 L 38.838206846073064,30.597073791042437 L 38.87703610903106,30.5913140140005 L 38.91511384160019,30.58177603854309 L 38.95207333440034,30.568551720587873 L 38.98755864731192,30.55176841754583 L 39.02122803737322,30.53158776180001 L 39.05275724995245,30.50820410409706 L 39.08184264149676,30.48184264184353 L 39.10820410378595,30.452757250331537 L 39.13158776152755,30.42122803778099 L 39.151768417314706,30.387558647744346 L 39.16855172040018,30.352073334853465 L 39.18177603840073,30.31511384206948 L 39.19131401390486,30.277036109511958 L 39.19707379099438,30.23820684656101 L 39.1989998998794,30.199 z"/>
			<path fill-rule="evenodd" fill="#66cc99" stroke="#555555" stroke-width="0.02" opacity="0.6" d="M 24.748999899879397,55.849000000000004 L 24.746592263709655,55.79999143989398 L 24.73939254204082,55.75145485876733 L 24.727470072116308,55.70385769067437 L 24.710939673838997,55.657658322363154 L 24.689960543980664,55.61330167900548 L 24.664734723030264,55.57121493932482 L 24.63550514943333,55.53180342163119 L 24.60255331996218,55.49544668038458 L 24.566196578747896,55.46249485087778 L 24.526785061082943,55.4332652772422 L 24.484698321426944,55.408039456250464 L 24.44034167808997,55.38706032634869 L 24.39414230979492,55.37052992802605 L 24.346545141713566,55.35860745805483 L 24.29800856059396,55.3514077363384 L 24.249000000245154,55.34900010013264 L 24.19999143989389,55.35140773629035 L 24.15145485876722,55.358607457959195 L 24.103857690674417,55.37052992788368 L 24.057658322363064,55.387060326161034 L 24.013301679005384,55.40803945601938 L 23.97121493932474,55.43326527696979 L 23.931803421631205,55.46249485056666 L 23.89544668038458,55.49544668003782 L 23.862494850877727,55.53180342125216 L 23.833265277242244,55.57121493891699 L 23.808039456250555,55.613301678572896 L 23.787060326348687,55.65765832191005 L 23.770529928026033,55.703857690205126 L 23.758607458054858,55.75145485828631 L 23.751407736338415,55.79999143940592 L 23.749000100132648,55.848999999754774 L 23.751407736290343,55.89800856010603 L 23.758607457959176,55.946545141232676 L 23.77052992788369,55.99414230932564 L 23.787060326161,56.04034167763685 L 23.808039456019333,56.08469832099453 L 23.833265276969733,56.12678506067519 L 23.862494850566666,56.16619657836882 L 23.895446680037818,56.202553319615426 L 23.931803421252102,56.235505149122226 L 23.971214938917054,56.26473472275781 L 24.013301678573054,56.289960543749544 L 24.05765832191003,56.31093967365132 L 24.10385769020508,56.327470071973956 L 24.15145485828643,56.33939254194518 L 24.199991439406038,56.346592263661606 L 24.248999999754844,56.348999899867366 L 24.29800856010611,56.34659226370966 L 24.346545141232777,56.33939254204081 L 24.39414230932558,56.32747007211633 L 24.44034167763693,56.31093967383897 L 24.484698320994614,56.289960543980634 L 24.52678506067526,56.264734723030216 L 24.566196578368793,56.23550514943335 L 24.602553319615417,56.202553319962185 L 24.635505149122267,56.16619657874785 L 24.664734722757753,56.12678506108302 L 24.68996054374944,56.08469832142712 L 24.71093967365131,56.040341678089966 L 24.727470071973965,55.99414230979489 L 24.73939254194514,55.946545141713706 L 24.74659226366158,55.89800856059409 L 24.748999899879397,55.849000000000004 z"/>
			<path fill-rule="evenodd" fill="#66cc99" stroke="#555555" stroke-width="0.02" opacity="0.6" d="M 22.248999899879397,55.849000000000004 L 22.246592263709655,55.79999143989398 L 22.23939254204082,55.75145485876733 L 22.227470072116308,55.70385769067437 L 22.210939673838997,55.657658322363154 L 22.189960543980664,55.61330167900548 L 22.164734723030264,55.57121493932482 L 22.13550514943333,55.53180342163119 L 22.10255331996218,55.49544668038458 L 22.066196578747896,55.46249485087778 L 22.026785061082943,55.4332652772422 L 21.984698321426944,55.408039456250464 L 21.94034167808997,55.38706032634869 L 21.89414230979492,55.37052992802605 L 21.846545141713566,55.35860745805483 L 21.79800856059396,55.3514077363384 L 21.749000000245154,55.34900010013264 L 21.69999143989389,55.35140773629035 L 21.65145485876722,55.358607457959195 L 21.603857690674417,55.37052992788368 L 21.557658322363064,55.387060326161034 L 21.513301679005384,55.40803945601938 L 21.47121493932474,55.43326527696979 L 21.431803421631205,55.46249485056666 L 21.39544668038458,55.49544668003782 L 21.362494850877727,55.53180342125216 L 21.333265277242244,55.57121493891699 L 21.308039456250555,55.613301678572896 L 21.287060326348687,55.65765832191005 L 21.270529928026033,55.703857690205126 L 21.258607458054858,55.75145485828631 L 21.251407736338415,55.79999143940592 L 21.249000100132648,55.848999999754774 L 21.251407736290343,55.89800856010603 L 21.258607457959176,55.946545141232676 L 21.27052992788369,55.99414230932564 L 21.287060326161,56.04034167763685 L 21.308039456019333,56.08469832099453 L 21.333265276969733,56.12678506067519 L 21.362494850566666,56.16619657836882 L 21.395446680037818,56.202553319615426 L 21.431803421252102,56.235505149122226 L 21.471214938917054,56.26473472275781 L 21.513301678573054,56.289960543749544 L 21.55765832191003,56.31093967365132 L 21.60385769020508,56.327470071973956 L 21.65145485828643,56.33939254194518 L 21.699991439406038,56.346592263661606 L 21.748999999754844,56.348999899867366 L 21.79800856010611,56.34659226370966 L 21.846545141232777,56.33939254204081 L 21.89414230932558,56.32747007211633 L 21.94034167763693,56.31093967383897 L 21.984698320994614,56.289960543980634 L 22.02678506067526,56.264734723030216 L 22.066196578368793,56.23550514943335 L 22.102553319615417,56.202553319962185 L 22.135505149122267,56.16619657874785 L 22.164734722757753,56.12678506108302 L 22.18996054374944,56.08469832142712 L 22.21093967365131,56.040341678089966 L 22.227470071973965,55.99414230979489 L 22.23939254194514,55.946545141713706 L 22.24659226366158,55.89800856059409 L 22.248999899879397,55.849000000000004 z"/>
			<path fill-rule="evenodd" fill="#66cc99" stroke="#555555" stroke-width="0.02" opacity="0.6" d="M 24.748999899879397,57.849000000000004 L 24.746592263709655,57.79999143989398 L 24.73939254204082,57.75145485876733 L 24.727470072116308,57.70385769067437 L 24.710939673838997,57.657658322363154 L 24.689960543980664,57.61330167900548 L 24.664734723030264,57.57121493932482 L 24.63550514943333,57.53180342163119 L 24.60255331996218,57.49544668038458 L 24.566196578747896,57.46249485087778 L 24.526785061082943,57.4332652772422 L 24.484698321426944,57.408039456250464 L 24.44034167808997,57.38706032634869 L 24.39414230979492,57.37052992802605 L 24.346545141713566,57.35860745805483 L 24.29800856059396,57.3514077363384 L 24.249000000245154,57.34900010013264 L 24.19999143989389,57.35140773629035 L 24.15145485876722,57.358607457959195 L 24.103857690674417,57.37052992788368 L 24.057658322363064,57.387060326161034 L 24.013301679005384,57.40803945601938 L 23.97121493932474,57.43326527696979 L 23.931803421631205,57.46249485056666 L 23.89544668038458,57.49544668003782 L 23.862494850877727,57.53180342125216 L 23.833265277242244,57.57121493891699 L 23.808039456250555,57.613301678572896 L 23.787060326348687,57.65765832191005 L 23.770529928026033,57.703857690205126 L 23.758607458054858,57.75145485828631 L 23.751407736338415,57.79999143940592 L 23.749000100132648,57.848999999754774 L 23.751407736290343,57.89800856010603 L 23.758607457959176,57.946545141232676 L 23.77052992788369,57.99414230932564 L 23.787060326161,58.04034167763685 L 23.808039456019333,58.08469832099453 L 23.833265276969733,58.12678506067519 L 23.862494850566666,58.16619657836882 L 23.895446680037818,58.202553319615426 L 23.931803421252102,58.235505149122226 L 23.971214938917054,58.26473472275781 L 24.013301678573054,58.289960543749544 L 24.05765832191003,58.31093967365132 L 24.10385769020508,58.327470071973956 L 24.15145485828643,58.33939254194518 L 24.199991439406038,58.346592263661606 L 24.248999999754844,58.348999899867366 L 24.29800856010611,58.34659226370966 L 24.346545141232777,58.33939254204081 L 24.39414230932558,58.32747007211633 L 24.44034167763693,58.31093967383897 L 24.484698320994614,58.289960543980634 L 24.52678506067526,58.264734723030216 L 24.566196578368793,58.23550514943335 L 24.602553319615417,58.202553319962185 L 24.635505149122267,58.16619657874785 L 24.664734722757753,58.12678506108302 L 24.68996054374944,58.08469832142712 L 24.71093967365131,58.040341678089966 L 24.727470071973965,57.99414230979489 L 24.73939254194514,57.946545141713706 L 24.74659226366158,57.89800856059409 L 24.748999899879397,57.849000000000004 z"/>
			<path fill-rule="evenodd" fill="#66cc99" stroke="#555555" stroke-width="0.02" opacity="0.6" d="M 22.248999899879397,57.849000000000004 L 22.246592263709655,57.79999143989398 L 22.23939254204082,57.75145485876733 L 22.227470072116308,57.70385769067437 L 22.210939673838997,57.657658322363154 L 22.189960543980664,57.61330167900548 L 22.164734723030264,57.57121493932482 L 22.13550514943333,57.53180342163119 L 22.10255331996218,57.49544668038458 L 22.066196578747896,57.46249485087778 L 22.026785061082943,57.4332652772422 L 21.984698321426944,57.408039456250464 L 21.94034167808997,57.38706032634869 L 21.89414230979492,57.37052992802605 L 21.846545141713566,57.35860745805483 L 21.79800856059396,57.3514077363384 L 21.749000000245154,57.34900010013264 L 21.69999143989389,57.35140773629035 L 21.65145485876722,57.358607457959195 L 21.603857690674417,57.37052992788368 L 21.557658322363064,57.387060326161034 L 21.513301679005384,57.40803945601938 L 21.47121493932474,57.43326527696979 L 21.431803421631205,57.46249485056666 L 21.39544668038458,57.49544668003782 L 21.362494850877727,57.53180342125216 L 21.333265277242244,57.57121493891699 L 21.308039456250555,57.613301678572896 L 21.287060326348687,57.65765832191005 L 21.270529928026033,57.703857690205126 L 21.258607458054858,57.75145485828631 L 21.251407736338415,57.79999143940592 L 21.249000100132648,57.848999999754774 L 21.251407736290343,57.89800856010603 L 21.258607457959176,57.946545141232676 L 21.27052992788369,57.99414230932564 L 21.287060326161,58.04034167763685 L 21.308039456019333,58.08469832099453 L 21.333265276969733,58.12678506067519 L 21.362494850566666,58.16619657836882 L 21.395446680037818,58.202553319615426 L 21.431803421252102,58.235505149122226 L 21.471214938917054,58.26473472275781 L 21.513301678573054,58.289960543749544 L 21.55765832191003,58.31093967365132 L 21.60385769020508,58.327470071973956 L 21.65145485828643,58.33939254194518 L 21.699991439406038,58.346592263661606 L 21.748999999754844,58.348999899867366 L 21.79800856010611,58.34659226370966 L 21.846545141232777,58.33939254204081 L 21.89414230932558,58.32747007211633 L 21.94034167763693,58.31093967383897 L 21.984698320994614,58.289960543980634 L 22.02678506067526,58.264734723030216 L 22.066196578368793,58.23550514943335 L 22.102553319615417,58.202553319962185 L 22.135505149122267,58.16619657874785 L 22.164734722757753,58.12678506108302 L 22.18996054374944,58.08469832142712 L 22.21093967365131,58.040341678089966 L 22.227470071973965,57.99414230979489 L 22.23939254194514,57.946545141713706 L 22.24659226366158,57.89800856059409 L 22.248999899879397,57.849000000000004 z"/>
			<path fill-rule="evenodd" fill="#66cc99" stroke="#555555" stroke-width="0.02" opacity="0.6" d="M 40.0489998998794,58.949 L 40.045388445377704,58.87548715481149 L 40.03458886214162,58.8026822782632 L 40.01670515604936,58.73128652136075 L 39.99190955696679,58.66198746427179 L 39.96044086006773,58.59545249479892 L 39.92260212610587,58.53232238106988 L 39.878757762774015,58.47320510059028 L 39.82933001525878,58.41866998508791 L 39.77479489978876,58.369242237537044 L 39.7156776193379,58.3253978741666 L 39.652547505633464,58.28755914016339 L 39.586012536181244,58.25609044322086 L 39.5167134791085,58.23129484409298 L 39.44531772221762,58.21341113795402 L 39.372512845676354,58.20261155467035 L 39.29900000024516,58.199000100132636 L 39.225487154811496,58.202611554622294 L 39.15268227826321,58.21341113785838 L 39.08128652136076,58.231294843950636 L 39.01198746427179,58.25609044303321 L 38.94545249479892,58.28755913993227 L 38.88232238106988,58.325397873894126 L 38.82320510059028,58.36924223722598 L 38.76866998508791,58.41866998474121 L 38.719242237537046,58.47320510021124 L 38.6753978741666,58.532322380662094 L 38.63755914016339,58.59545249436653 L 38.606090443220864,58.661987463818754 L 38.58129484409298,58.731286520891494 L 38.56341113795402,58.80268227778238 L 38.55261155467035,58.87548715432364 L 38.54900010013264,58.94899999975484 L 38.552611554622295,59.0225128451885 L 38.56341113785838,59.09531772173679 L 38.58129484395064,59.16671347863924 L 38.60609044303321,59.23601253572821 L 38.63755913993227,59.302547505201076 L 38.67539787389413,59.365677618930114 L 38.719242237225984,59.42479489940972 L 38.768669984741216,59.47933001491209 L 38.82320510021124,59.52875776246295 L 38.882322380662096,59.5726021258334 L 38.945452494366535,59.61044085983661 L 39.011987463818755,59.64190955677913 L 39.081286520891496,59.66670515590702 L 39.15268227778238,59.68458886204598 L 39.225487154323645,59.69538844532965 L 39.29899999975484,59.69899989986736 L 39.3725128451885,59.6953884453777 L 39.44531772173679,59.68458886214162 L 39.51671347863924,59.66670515604936 L 39.58601253572821,59.64190955696679 L 39.65254750520108,59.610440860067726 L 39.715677618930116,59.57260212610587 L 39.77479489940972,59.52875776277401 L 39.82933001491209,59.47933001525879 L 39.878757762462946,59.42479489978876 L 39.9226021258334,59.36567761933791 L 39.96044085983661,59.30254750563347 L 39.991909556779135,59.23601253618125 L 40.01670515590701,59.1667134791085 L 40.03458886204598,59.095317722217615 L 40.04538844532965,59.02251284567635 L 40.0489998998794,58.949 z"/>
			<path fill-rule="evenodd" fill="#66cc99" stroke="#555555" stroke-width="0.02" opacity="0.6" d="M 18.128999899879396,60.559000000000005 L 18.123462336046583,60.44628029867977 L 18.106902974302923,60.33464614945685 L 18.079481290342244,60.225172650458966 L 18.041461369971334,60.11891409132584 L 17.993209365807093,60.01689380006858 L 17.93518997102692,59.92009428786208 L 17.867961944119113,59.829447786924824 L 17.792172727733437,59.74582727261333 L 17.70855221345427,59.670038056192 L 17.617905712545685,59.602810029245546 L 17.521106200363842,59.54479063442403 L 17.41908590912728,59.49653863021636 L 17.312827350010323,59.45851870980012 L 17.20335385102405,59.431097025792724 L 17.091719701808177,59.41453766400147 L 16.979000000245158,59.409000100132644 L 16.866280298679676,59.41453766395342 L 16.75464614945674,59.43109702569709 L 16.64517265045902,59.458518709657746 L 16.538914091325758,59.4965386300287 L 16.436893800068486,59.54479063419295 L 16.340094287861998,59.60281002897313 L 16.249447786924836,59.67003805588088 L 16.165827272613324,59.74582727226657 L 16.09003805619195,59.82944778654579 L 16.02281002924559,59.92009428745425 L 15.964790634424103,60.016893799636044 L 15.916538630216365,60.1189140908727 L 15.878518709800108,60.22517264998969 L 15.851097025792745,60.33464614897588 L 15.834537664001486,60.44628029819172 L 15.829000100132644,60.55899999975481 L 15.83453766395342,60.6717197013203 L 15.851097025697076,60.78335385054317 L 15.878518709657744,60.89282734954101 L 15.916538630028684,60.999085908674196 L 15.964790634192896,61.101106199931415 L 16.02281002897308,61.19790571213793 L 16.090038055880886,61.288552213075185 L 16.16582727226656,61.372172727386676 L 16.24944778654573,61.44796194380801 L 16.340094287454313,61.51518997075446 L 16.436893799636156,61.57320936557598 L 16.53891409087272,61.62146136978365 L 16.645172649989675,61.65948129019989 L 16.754646148975947,61.686902974207285 L 16.86628029819182,61.70346233599854 L 16.97899999975484,61.708999899867365 L 17.09171970132032,61.70346233604659 L 17.20335385054326,61.68690297430292 L 17.312827349540978,61.65948129034226 L 17.419085908674237,61.62146136997131 L 17.52110619993151,61.57320936580707 L 17.617905712137997,61.51518997102688 L 17.70855221307516,61.44796194411913 L 17.79217272738667,61.37217272773344 L 17.867961943808044,61.288552213454224 L 17.935189970754408,61.19790571254576 L 17.99320936557587,61.10110620036402 L 18.041461369783644,60.99908590912728 L 18.0794812901999,60.89282735001029 L 18.106902974207237,60.783353851024195 L 18.12346233599851,60.67171970180831 L 18.128999899879396,60.559000000000005 z"/>
			<path fill-rule="evenodd" fill="#66cc99" stroke="#555555" stroke-width="0.02" opacity="0.6" d="M 38.5489998998794,61.449 L 38.546592263709655,61.39999143989388 L 38.53939254204081,61.351454858767234 L 38.52747007211631,61.30385769067437 L 38.51093967383897,61.25765832236306 L 38.48996054398064,61.21330167900542 L 38.46473472303023,61.17121493932478 L 38.43550514943333,61.13180342163118 L 38.40255331996215,61.09544668038454 L 38.36619657874785,61.062494850877734 L 38.32678506108301,61.033265277242236 L 38.284698321426966,61.00803945625048 L 38.24034167808997,60.98706032634868 L 38.194142309794884,60.97052992802603 L 38.14654514171358,60.95860745805483 L 38.09800856059396,60.951407736338396 L 38.04900000024516,60.949000100132636 L 37.99999143989388,60.95140773629034 L 37.951454858767235,60.95860745795919 L 37.90385769067437,60.97052992788369 L 37.857658322363065,60.98706032616103 L 37.81330167900542,61.00803945601936 L 37.771214939324786,61.033265276969765 L 37.731803421631184,61.062494850566665 L 37.69544668038454,61.095446680037846 L 37.662494850877735,61.13180342125215 L 37.63326527724224,61.17121493891699 L 37.60803945625048,61.21330167857303 L 37.587060326348684,61.25765832191003 L 37.57052992802603,61.30385769020511 L 37.55860745805483,61.35145485828642 L 37.5514077363384,61.39999143940604 L 37.54900010013264,61.44899999975484 L 37.551407736290344,61.498008560106115 L 37.55860745795919,61.54654514123276 L 37.57052992788369,61.594142309325626 L 37.58706032616103,61.64034167763693 L 37.60803945601936,61.68469832099458 L 37.633265276969766,61.72678506067522 L 37.66249485056667,61.76619657836881 L 37.69544668003785,61.802553319615456 L 37.73180342125215,61.83550514912226 L 37.77121493891699,61.86473472275776 L 37.81330167857303,61.88996054374952 L 37.85765832191003,61.91093967365131 L 37.903857690205115,61.927470071973964 L 37.95145485828642,61.93939254194517 L 37.99999143940604,61.9465922636616 L 38.04899999975484,61.94899989986736 L 38.098008560106116,61.946592263709654 L 38.146545141232764,61.93939254204081 L 38.19414230932563,61.92747007211631 L 38.240341677636934,61.91093967383897 L 38.28469832099458,61.88996054398064 L 38.32678506067521,61.86473472303023 L 38.36619657836881,61.83550514943333 L 38.40255331961545,61.80255331996215 L 38.435505149122264,61.766196578747845 L 38.46473472275776,61.72678506108301 L 38.48996054374952,61.68469832142697 L 38.51093967365131,61.640341678089975 L 38.527470071973966,61.59414230979489 L 38.53939254194517,61.54654514171359 L 38.5465922636616,61.498008560593966 L 38.5489998998794,61.449 z"/>
			<path fill-rule="evenodd" fill="#66cc99" stroke="#555555" stroke-width="0.02" opacity="0.6" d="M 34.0489998998794,61.449 L 34.046592263709655,61.39999143989388 L 34.03939254204081,61.351454858767234 L 34.02747007211631,61.30385769067437 L 34.01093967383897,61.25765832236306 L 33.98996054398064,61.21330167900542 L 33.96473472303023,61.17121493932478 L 33.93550514943333,61.13180342163118 L 33.90255331996215,61.09544668038454 L 33.86619657874785,61.062494850877734 L 33.82678506108301,61.033265277242236 L 33.784698321426966,61.00803945625048 L 33.74034167808997,60.98706032634868 L 33.694142309794884,60.97052992802603 L 33.64654514171358,60.95860745805483 L 33.59800856059396,60.951407736338396 L 33.54900000024516,60.949000100132636 L 33.49999143989388,60.95140773629034 L 33.451454858767235,60.95860745795919 L 33.40385769067437,60.97052992788369 L 33.357658322363065,60.98706032616103 L 33.31330167900542,61.00803945601936 L 33.271214939324786,61.033265276969765 L 33.231803421631184,61.062494850566665 L 33.19544668038454,61.095446680037846 L 33.162494850877735,61.13180342125215 L 33.13326527724224,61.17121493891699 L 33.10803945625048,61.21330167857303 L 33.087060326348684,61.25765832191003 L 33.07052992802603,61.30385769020511 L 33.05860745805483,61.35145485828642 L 33.0514077363384,61.39999143940604 L 33.04900010013264,61.44899999975484 L 33.051407736290344,61.498008560106115 L 33.05860745795919,61.54654514123276 L 33.07052992788369,61.594142309325626 L 33.08706032616103,61.64034167763693 L 33.10803945601936,61.68469832099458 L 33.133265276969766,61.72678506067522 L 33.16249485056667,61.76619657836881 L 33.19544668003785,61.802553319615456 L 33.23180342125215,61.83550514912226 L 33.27121493891699,61.86473472275776 L 33.31330167857303,61.88996054374952 L 33.35765832191003,61.91093967365131 L 33.403857690205115,61.927470071973964 L 33.45145485828642,61.93939254194517 L 33.49999143940604,61.9465922636616 L 33.54899999975484,61.94899989986736 L 33.598008560106116,61.946592263709654 L 33.646545141232764,61.93939254204081 L 33.69414230932563,61.92747007211631 L 33.740341677636934,61.91093967383897 L 33.78469832099458,61.88996054398064 L 33.82678506067521,61.86473472303023 L 33.86619657836881,61.83550514943333 L 33.90255331961545,61.80255331996215 L 33.935505149122264,61.766196578747845 L 33.96473472275776,61.72678506108301 L 33.98996054374952,61.68469832142697 L 34.01093967365131,61.640341678089975 L 34.027470071973966,61.59414230979489 L 34.03939254194517,61.54654514171359 L 34.0465922636616,61.498008560593966 L 34.0489998998794,61.449 z"/>
			<path fill-rule="evenodd" fill="#66cc99" stroke="#555555" stroke-width="0.02" opacity="0.6" d="M 33.0489998998794,58.949 L 33.045388445377704,58.87548715481149 L 33.03458886214162,58.8026822782632 L 33.01670515604936,58.73128652136075 L 32.99190955696679,58.66198746427179 L 32.96044086006773,58.59545249479892 L 32.92260212610587,58.53232238106988 L 32.878757762774015,58.47320510059028 L 32.82933001525878,58.41866998508791 L 32.77479489978876,58.369242237537044 L 32.7156776193379,58.3253978741666 L 32.652547505633464,58.28755914016339 L 32.586012536181244,58.25609044322086 L 32.5167134791085,58.23129484409298 L 32.44531772221762,58.21341113795402 L 32.372512845676354,58.20261155467035 L 32.29900000024516,58.199000100132636 L 32.225487154811496,58.202611554622294 L 32.15268227826321,58.21341113785838 L 32.08128652136076,58.231294843950636 L 32.01198746427179,58.25609044303321 L 31.945452494798886,58.287559139932284 L 31.88232238106984,58.32539787389415 L 31.823205100590293,58.36924223722597 L 31.768669985087943,58.41866998474118 L 31.719242237537046,58.47320510021124 L 31.675397874166606,58.53232238066209 L 31.637559140163468,58.59545249436639 L 31.606090443220864,58.66198746381877 L 31.58129484409298,58.7312865208915 L 31.563411137954052,58.80268227778227 L 31.552611554670367,58.87548715432352 L 31.54900010013265,58.94899999975477 L 31.552611554622295,59.02251284518841 L 31.56341113785837,59.0953177217367 L 31.581294843950637,59.166713478639245 L 31.606090443033178,59.23601253572812 L 31.637559139932247,59.30254750520102 L 31.6753978738941,59.36567761893008 L 31.71924223722598,59.42479489940972 L 31.76866998474118,59.47933001491205 L 31.82320510021119,59.52875776246291 L 31.882322380662153,59.57260212583344 L 31.945452494366556,59.61044085983663 L 32.011987463818755,59.64190955677913 L 32.081286520891496,59.66670515590702 L 32.15268227778238,59.68458886204598 L 32.225487154323645,59.69538844532965 L 32.29899999975484,59.69899989986736 L 32.3725128451885,59.6953884453777 L 32.44531772173679,59.68458886214162 L 32.51671347863924,59.66670515604936 L 32.58601253572821,59.64190955696679 L 32.65254750520108,59.610440860067726 L 32.715677618930116,59.57260212610587 L 32.77479489940972,59.52875776277401 L 32.82933001491209,59.47933001525879 L 32.878757762462946,59.42479489978876 L 32.9226021258334,59.36567761933791 L 32.96044085983661,59.30254750563347 L 32.991909556779135,59.23601253618125 L 33.01670515590701,59.1667134791085 L 33.03458886204598,59.095317722217615 L 33.04538844532965,59.02251284567635 L 33.0489998998794,58.949 z"/>
			<path fill-rule="evenodd" fill="#66cc99" stroke="#555555" stroke-width="0.02" opacity="0.6" d="M 30.1689998998794,60.559000000000005 L 30.163462336046585,60.44628029867977 L 30.146902974302925,60.33464614945685 L 30.119481290342247,60.225172650458966 L 30.081461369971336,60.11891409132584 L 30.033209365807096,60.01689380006858 L 29.97518997102692,59.92009428786208 L 29.907961944119116,59.829447786924824 L 29.83217272773344,59.74582727261333 L 29.74855221345427,59.670038056192 L 29.657905712545688,59.602810029245546 L 29.561106200363845,59.54479063442403 L 29.459085909127282,59.49653863021636 L 29.352827350010323,59.45851870980012 L 29.243353851024054,59.431097025792724 L 29.13171970180818,59.41453766400147 L 29.01900000024516,59.409000100132644 L 28.90628029867968,59.41453766395342 L 28.794646149456742,59.43109702569709 L 28.685172650459023,59.458518709657746 L 28.57891409132576,59.4965386300287 L 28.47689380006849,59.54479063419295 L 28.380094287862,59.60281002897313 L 28.28944778692484,59.67003805588088 L 28.205827272613327,59.74582727226657 L 28.130038056191953,59.82944778654579 L 28.062810029245593,59.92009428745425 L 28.00479063442413,60.016893799635994 L 27.956538630216354,60.118914090872735 L 27.9185187098001,60.22517264998972 L 27.891097025792764,60.33464614897582 L 27.87453766400149,60.44628029819171 L 27.869000100132652,60.558999999754775 L 27.87453766395342,60.67171970132024 L 27.89109702569708,60.78335385054316 L 27.918518709657757,60.89282734954104 L 27.956538630028668,60.99908590867416 L 28.004790634192908,61.10110619993143 L 28.062810028973082,61.19790571213793 L 28.13003805588089,61.288552213075185 L 28.205827272266564,61.372172727386676 L 28.289447786545733,61.44796194380801 L 28.380094287454316,61.51518997075446 L 28.47689379963616,61.57320936557598 L 28.578914090872722,61.62146136978365 L 28.685172649989678,61.65948129019989 L 28.79464614897595,61.686902974207285 L 28.906280298191824,61.70346233599854 L 29.018999999754843,61.708999899867365 L 29.13171970132032,61.70346233604659 L 29.24335385054326,61.68690297430292 L 29.35282734954098,61.65948129034226 L 29.45908590867424,61.62146136997131 L 29.561106199931512,61.57320936580707 L 29.657905712138,61.51518997102688 L 29.74855221307516,61.44796194411913 L 29.832172727386673,61.37217272773344 L 29.907961943808047,61.288552213454224 L 29.97518997075441,61.19790571254576 L 30.03320936557587,61.10110620036402 L 30.081461369783646,60.99908590912728 L 30.119481290199904,60.89282735001029 L 30.14690297420724,60.783353851024195 L 30.16346233599851,60.67171970180831 L 30.1689998998794,60.559000000000005 z"/>
			<path fill-rule="evenodd" fill="#66cc99" stroke="#555555" stroke-width="0.02" opacity="0.6" d="M 38.818999899879394,47.159 L 38.81654411097638,47.10901126849058 L 38.809200394844844,47.05950395554707 L 38.797039475473625,47.01095484390183 L 38.78017846916408,46.96383148803941 L 38.75877975662412,46.91858771163716 L 38.73304941915326,46.875659236994586 L 38.70323525396695,46.83545948878955 L 38.669624387774014,46.79837561257268 L 38.63254051158948,46.764764746344106 L 38.5923407634132,46.73495058111921 L 38.549412288795224,46.70922024360699 L 38.50416851241362,46.68782153102357 L 38.457045156567425,46.670960524668715 L 38.40849604493374,46.65879960525079 L 38.35898873199726,46.65145588907167 L 38.309000000245156,46.64900010013264 L 38.25901126849059,46.651455889023616 L 38.20950395554707,46.65879960515515 L 38.16095484390183,46.67096052452637 L 38.11383148803941,46.68782153083592 L 38.06858771163716,46.709220243375874 L 38.025659236994585,46.734950580846736 L 37.98545948878955,46.764764746033045 L 37.948375612572676,46.79837561222598 L 37.914764746344105,46.835459488410514 L 37.884950581119206,46.8756592365868 L 37.85922024360699,46.91858771120477 L 37.83782153102357,46.963831487586376 L 37.82096052466871,47.01095484343257 L 37.80879960525079,47.059503955066255 L 37.80145588907167,47.10901126800274 L 37.79900010013264,47.15899999975484 L 37.801455889023615,47.208988731509415 L 37.80879960515515,47.258496044452926 L 37.82096052452637,47.30704515609817 L 37.83782153083592,47.35416851196059 L 37.85922024337587,47.39941228836284 L 37.884950580846734,47.44234076300541 L 37.91476474603304,47.482540511210445 L 37.94837561222598,47.51962438742732 L 37.98545948841052,47.55323525365589 L 38.0256592365868,47.58304941888079 L 38.06858771120477,47.608779756393005 L 38.113831487586374,47.630178468976425 L 38.16095484343257,47.64703947533128 L 38.20950395506625,47.659200394749206 L 38.25901126800274,47.66654411092833 L 38.30899999975484,47.66899989986736 L 38.358988731509406,47.66654411097638 L 38.408496044452924,47.659200394844845 L 38.45704515609817,47.647039475473626 L 38.504168511960586,47.63017846916408 L 38.54941228836284,47.60877975662412 L 38.59234076300541,47.58304941915326 L 38.63254051121044,47.55323525396696 L 38.66962438742731,47.519624387774016 L 38.70323525365589,47.482540511589484 L 38.73304941888078,47.442340763413206 L 38.758779756393004,47.39941228879523 L 38.78017846897642,47.35416851241362 L 38.79703947533128,47.30704515656743 L 38.809200394749205,47.25849604493374 L 38.81654411092833,47.20898873199726 L 38.818999899879394,47.159 z"/>
			<path fill-rule="evenodd" fill="#66cc99" stroke="#555555" stroke-width="0.02" opacity="0.6" d="M 36.278999899879395,47.159 L 36.27654411097638,47.10901126849058 L 36.269200394844844,47.05950395554707 L 36.257039475473626,47.01095484390183 L 36.24017846916408,46.96383148803941 L 36.21877975662412,46.91858771163716 L 36.19304941915326,46.875659236994586 L 36.16323525396695,46.83545948878955 L 36.129624387774015,46.79837561257268 L 36.09254051158948,46.764764746344106 L 36.0523407634132,46.73495058111921 L 36.009412288795225,46.70922024360699 L 35.96416851241362,46.68782153102357 L 35.917045156567426,46.670960524668715 L 35.86849604493374,46.65879960525079 L 35.81898873199726,46.65145588907167 L 35.76900000024516,46.64900010013264 L 35.71901126849059,46.651455889023616 L 35.66950395554707,46.65879960515515 L 35.62095484390183,46.67096052452637 L 35.57383148803941,46.68782153083592 L 35.52858771163716,46.709220243375874 L 35.485659236994586,46.734950580846736 L 35.44545948878955,46.764764746033045 L 35.40837561257268,46.79837561222598 L 35.374764746344106,46.835459488410514 L 35.34495058111921,46.8756592365868 L 35.31922024360699,46.91858771120477 L 35.29782153102357,46.963831487586376 L 35.280960524668714,47.01095484343257 L 35.26879960525079,47.059503955066255 L 35.26145588907167,47.10901126800274 L 35.25900010013264,47.15899999975484 L 35.261455889023615,47.208988731509415 L 35.26879960515515,47.258496044452926 L 35.28096052452637,47.30704515609817 L 35.29782153083592,47.35416851196059 L 35.319220243375874,47.39941228836284 L 35.344950580846735,47.44234076300541 L 35.374764746033044,47.482540511210445 L 35.40837561222598,47.51962438742732 L 35.44545948841051,47.55323525365589 L 35.4856592365868,47.58304941888079 L 35.52858771120477,47.608779756393005 L 35.573831487586375,47.630178468976425 L 35.62095484343257,47.64703947533128 L 35.669503955066254,47.659200394749206 L 35.71901126800274,47.66654411092833 L 35.76899999975484,47.66899989986736 L 35.81898873150941,47.66654411097638 L 35.868496044452925,47.659200394844845 L 35.91704515609817,47.647039475473626 L 35.96416851196059,47.63017846916408 L 36.00941228836284,47.60877975662412 L 36.05234076300541,47.58304941915326 L 36.092540511210444,47.55323525396696 L 36.12962438742731,47.519624387774016 L 36.16323525365589,47.482540511589484 L 36.19304941888078,47.442340763413206 L 36.218779756393005,47.39941228879523 L 36.240178468976424,47.35416851241362 L 36.25703947533128,47.30704515656743 L 36.269200394749205,47.25849604493374 L 36.27654411092833,47.20898873199726 L 36.278999899879395,47.159 z"/>
			<path fill-rule="evenodd" fill="#66cc99" stroke="#555555" stroke-width="0.02" opacity="0.6" d="M 33.738999899879396,47.159 L 33.73654411097638,47.10901126849058 L 33.729200394844845,47.05950395554707 L 33.71703947547363,47.01095484390183 L 33.70017846916408,46.96383148803941 L 33.678779756624124,46.91858771163716 L 33.65304941915326,46.875659236994586 L 33.62323525396695,46.83545948878955 L 33.589624387774016,46.79837561257268 L 33.552540511589484,46.764764746344106 L 33.5123407634132,46.73495058111921 L 33.469412288795226,46.70922024360699 L 33.42416851241362,46.68782153102357 L 33.377045156567426,46.670960524668715 L 33.32849604493374,46.65879960525079 L 33.27898873199726,46.65145588907167 L 33.22900000024516,46.64900010013264 L 33.17901126849059,46.651455889023616 L 33.12950395554707,46.65879960515515 L 33.08095484390183,46.67096052452637 L 33.03383148803941,46.68782153083592 L 32.98858771163716,46.709220243375874 L 32.94565923699459,46.734950580846736 L 32.90545948878955,46.764764746033045 L 32.86837561257268,46.79837561222598 L 32.834764746344106,46.835459488410514 L 32.80495058111921,46.8756592365868 L 32.77922024360699,46.91858771120477 L 32.75782153102357,46.963831487586376 L 32.740960524668715,47.01095484343257 L 32.72879960525079,47.059503955066255 L 32.72145588907167,47.10901126800274 L 32.71900010013264,47.15899999975484 L 32.721455889023616,47.208988731509415 L 32.72879960515515,47.258496044452926 L 32.74096052452637,47.30704515609817 L 32.75782153083592,47.35416851196059 L 32.779220243375875,47.39941228836284 L 32.804950580846736,47.44234076300541 L 32.834764746033045,47.482540511210445 L 32.86837561222598,47.51962438742732 L 32.90545948841052,47.55323525365589 L 32.9456592365868,47.58304941888079 L 32.98858771120477,47.608779756393005 L 33.033831487586376,47.630178468976425 L 33.08095484343257,47.64703947533128 L 33.129503955066255,47.659200394749206 L 33.17901126800274,47.66654411092833 L 33.22899999975484,47.66899989986736 L 33.27898873150941,47.66654411097638 L 33.328496044452926,47.659200394844845 L 33.37704515609817,47.647039475473626 L 33.42416851196059,47.63017846916408 L 33.46941228836284,47.60877975662412 L 33.51234076300541,47.58304941915326 L 33.552540511210445,47.55323525396696 L 33.589624387427314,47.519624387774016 L 33.62323525365589,47.482540511589484 L 33.653049418880784,47.442340763413206 L 33.678779756393006,47.39941228879523 L 33.700178468976425,47.35416851241362 L 33.71703947533128,47.30704515656743 L 33.729200394749206,47.25849604493374 L 33.73654411092833,47.20898873199726 L 33.738999899879396,47.159 z"/>
			<path fill-rule="evenodd" fill="#66cc99" stroke="#555555" stroke-width="0.02" opacity="0.6" d="M 31.1989998998794,47.159 L 31.196544110976376,47.109011268490676 L 31.189200394844853,47.059503955547164 L 31.177039475473634,47.01095484390182 L 31.160178469164112,46.963831488039496 L 31.13877975662415,46.918587711637215 L 31.11304941915329,46.87565923699462 L 31.08323525396696,46.83545948878955 L 31.04962438777405,46.79837561257271 L 31.012540511589535,46.76476474634415 L 30.972340763413143,46.734950581119165 L 30.929412288795202,46.70922024360697 L 30.88416851241362,46.68782153102357 L 30.837045156567466,46.67096052466873 L 30.78849604493373,46.658799605250785 L 30.738988731997257,46.65145588907167 L 30.689000000245155,46.64900010013264 L 30.639011268490595,46.651455889023616 L 30.589503955547062,46.65879960515515 L 30.540954843901876,46.67096052452636 L 30.493831488039415,46.68782153083592 L 30.448587711637124,46.70922024337589 L 30.405659236994545,46.73495058084676 L 30.36545948878957,46.76476474603303 L 30.328375612572717,46.79837561222595 L 30.2947647463441,46.835459488410514 L 30.26495058111922,46.87565923658679 L 30.239220243607072,46.91858771120463 L 30.217821531023574,46.96383148758639 L 30.200960524668712,47.01095484343258 L 30.18879960525083,47.05950395506614 L 30.181455889071696,47.10901126800262 L 30.179000100132647,47.15899999975477 L 30.181455889023624,47.20898873150932 L 30.188799605155147,47.25849604445283 L 30.200960524526366,47.30704515609818 L 30.217821530835888,47.3541685119605 L 30.23922024337585,47.39941228836278 L 30.264950580846712,47.442340763005376 L 30.29476474603304,47.482540511210445 L 30.32837561222595,47.519624387427285 L 30.365459488410465,47.55323525365585 L 30.40565923658686,47.58304941888083 L 30.448587711204798,47.60877975639303 L 30.49383148758638,47.630178468976425 L 30.540954843432534,47.64703947533127 L 30.58950395506627,47.65920039474921 L 30.63901126800274,47.66654411092833 L 30.688999999754845,47.66899989986736 L 30.738988731509405,47.66654411097638 L 30.788496044452938,47.659200394844845 L 30.837045156098124,47.64703947547364 L 30.88416851196058,47.63017846916408 L 30.929412288362876,47.60877975662411 L 30.972340763005455,47.58304941915324 L 31.012540511210428,47.553235253966974 L 31.049624387427283,47.519624387774044 L 31.083235253655896,47.482540511589484 L 31.11304941888078,47.44234076341321 L 31.138779756392925,47.399412288795375 L 31.160178468976422,47.35416851241361 L 31.177039475331288,47.307045156567426 L 31.18920039474917,47.25849604493386 L 31.196544110928304,47.20898873199738 L 31.1989998998794,47.159 z"/>
		</g>
	</g>
	 
</svg>
