G04*
G04 #@! TF.GenerationSoftware,Altium Limited,Altium Designer,22.3.1 (43)*
G04*
G04 Layer_Physical_Order=2*
G04 Layer_Color=9720587*
%FSLAX42Y42*%
%MOMM*%
G71*
G04*
G04 #@! TF.SameCoordinates,630A2148-6CB2-4B37-8DB5-BDCE9195987D*
G04*
G04*
G04 #@! TF.FilePolarity,Positive*
G04*
G01*
G75*
G04:AMPARAMS|DCode=10|XSize=1.4mm|YSize=1.4mm|CornerRadius=0.07mm|HoleSize=0mm|Usage=FLASHONLY|Rotation=0.000|XOffset=0mm|YOffset=0mm|HoleType=Round|Shape=RoundedRectangle|*
%AMROUNDEDRECTD10*
21,1,1.40,1.26,0,0,0.0*
21,1,1.26,1.40,0,0,0.0*
1,1,0.14,0.63,-0.63*
1,1,0.14,-0.63,-0.63*
1,1,0.14,-0.63,0.63*
1,1,0.14,0.63,0.63*
%
%ADD10ROUNDEDRECTD10*%
G04:AMPARAMS|DCode=11|XSize=1.4mm|YSize=1.4mm|CornerRadius=0.07mm|HoleSize=0mm|Usage=FLASHONLY|Rotation=270.000|XOffset=0mm|YOffset=0mm|HoleType=Round|Shape=RoundedRectangle|*
%AMROUNDEDRECTD11*
21,1,1.40,1.26,0,0,270.0*
21,1,1.26,1.40,0,0,270.0*
1,1,0.14,-0.63,-0.63*
1,1,0.14,-0.63,0.63*
1,1,0.14,0.63,0.63*
1,1,0.14,0.63,-0.63*
%
%ADD11ROUNDEDRECTD11*%
G04:AMPARAMS|DCode=12|XSize=0.6mm|YSize=1mm|CornerRadius=0.03mm|HoleSize=0mm|Usage=FLASHONLY|Rotation=180.000|XOffset=0mm|YOffset=0mm|HoleType=Round|Shape=RoundedRectangle|*
%AMROUNDEDRECTD12*
21,1,0.60,0.94,0,0,180.0*
21,1,0.54,1.00,0,0,180.0*
1,1,0.06,-0.27,0.47*
1,1,0.06,0.27,0.47*
1,1,0.06,0.27,-0.47*
1,1,0.06,-0.27,-0.47*
%
%ADD12ROUNDEDRECTD12*%
G04:AMPARAMS|DCode=13|XSize=2.2mm|YSize=1.6mm|CornerRadius=0.08mm|HoleSize=0mm|Usage=FLASHONLY|Rotation=270.000|XOffset=0mm|YOffset=0mm|HoleType=Round|Shape=RoundedRectangle|*
%AMROUNDEDRECTD13*
21,1,2.20,1.44,0,0,270.0*
21,1,2.04,1.60,0,0,270.0*
1,1,0.16,-0.72,-1.02*
1,1,0.16,-0.72,1.02*
1,1,0.16,0.72,1.02*
1,1,0.16,0.72,-1.02*
%
%ADD13ROUNDEDRECTD13*%
G04:AMPARAMS|DCode=14|XSize=1mm|YSize=2.15mm|CornerRadius=0.05mm|HoleSize=0mm|Usage=FLASHONLY|Rotation=180.000|XOffset=0mm|YOffset=0mm|HoleType=Round|Shape=RoundedRectangle|*
%AMROUNDEDRECTD14*
21,1,1.00,2.05,0,0,180.0*
21,1,0.90,2.15,0,0,180.0*
1,1,0.10,-0.45,1.02*
1,1,0.10,0.45,1.02*
1,1,0.10,0.45,-1.02*
1,1,0.10,-0.45,-1.02*
%
%ADD14ROUNDEDRECTD14*%
G04:AMPARAMS|DCode=15|XSize=3.25mm|YSize=2.15mm|CornerRadius=0.11mm|HoleSize=0mm|Usage=FLASHONLY|Rotation=180.000|XOffset=0mm|YOffset=0mm|HoleType=Round|Shape=RoundedRectangle|*
%AMROUNDEDRECTD15*
21,1,3.25,1.94,0,0,180.0*
21,1,3.04,2.15,0,0,180.0*
1,1,0.22,-1.52,0.97*
1,1,0.22,1.52,0.97*
1,1,0.22,1.52,-0.97*
1,1,0.22,-1.52,-0.97*
%
%ADD15ROUNDEDRECTD15*%
%ADD16R,1.45X0.30*%
%ADD17R,0.30X1.45*%
G04:AMPARAMS|DCode=18|XSize=0.9mm|YSize=1.2mm|CornerRadius=0.05mm|HoleSize=0mm|Usage=FLASHONLY|Rotation=90.000|XOffset=0mm|YOffset=0mm|HoleType=Round|Shape=RoundedRectangle|*
%AMROUNDEDRECTD18*
21,1,0.90,1.11,0,0,90.0*
21,1,0.81,1.20,0,0,90.0*
1,1,0.09,0.56,0.41*
1,1,0.09,0.56,-0.41*
1,1,0.09,-0.56,-0.41*
1,1,0.09,-0.56,0.41*
%
%ADD18ROUNDEDRECTD18*%
G04:AMPARAMS|DCode=19|XSize=0.9mm|YSize=1.2mm|CornerRadius=0.05mm|HoleSize=0mm|Usage=FLASHONLY|Rotation=180.000|XOffset=0mm|YOffset=0mm|HoleType=Round|Shape=RoundedRectangle|*
%AMROUNDEDRECTD19*
21,1,0.90,1.11,0,0,180.0*
21,1,0.81,1.20,0,0,180.0*
1,1,0.09,-0.41,0.56*
1,1,0.09,0.41,0.56*
1,1,0.09,0.41,-0.56*
1,1,0.09,-0.41,-0.56*
%
%ADD19ROUNDEDRECTD19*%
G04:AMPARAMS|DCode=20|XSize=2mm|YSize=1.8mm|CornerRadius=0.09mm|HoleSize=0mm|Usage=FLASHONLY|Rotation=270.000|XOffset=0mm|YOffset=0mm|HoleType=Round|Shape=RoundedRectangle|*
%AMROUNDEDRECTD20*
21,1,2.00,1.62,0,0,270.0*
21,1,1.82,1.80,0,0,270.0*
1,1,0.18,-0.81,-0.91*
1,1,0.18,-0.81,0.91*
1,1,0.18,0.81,0.91*
1,1,0.18,0.81,-0.91*
%
%ADD20ROUNDEDRECTD20*%
%ADD21C,0.30*%
%ADD22C,0.20*%
%ADD23C,0.10*%
%ADD24C,1.40*%
%ADD25C,1.60*%
%ADD26C,3.20*%
G04:AMPARAMS|DCode=27|XSize=1.6mm|YSize=1.6mm|CornerRadius=0.08mm|HoleSize=0mm|Usage=FLASHONLY|Rotation=0.000|XOffset=0mm|YOffset=0mm|HoleType=Round|Shape=RoundedRectangle|*
%AMROUNDEDRECTD27*
21,1,1.60,1.44,0,0,0.0*
21,1,1.44,1.60,0,0,0.0*
1,1,0.16,0.72,-0.72*
1,1,0.16,-0.72,-0.72*
1,1,0.16,-0.72,0.72*
1,1,0.16,0.72,0.72*
%
%ADD27ROUNDEDRECTD27*%
G04:AMPARAMS|DCode=28|XSize=1.8mm|YSize=1.8mm|CornerRadius=0.09mm|HoleSize=0mm|Usage=FLASHONLY|Rotation=180.000|XOffset=0mm|YOffset=0mm|HoleType=Round|Shape=RoundedRectangle|*
%AMROUNDEDRECTD28*
21,1,1.80,1.62,0,0,180.0*
21,1,1.62,1.80,0,0,180.0*
1,1,0.18,-0.81,0.81*
1,1,0.18,0.81,0.81*
1,1,0.18,0.81,-0.81*
1,1,0.18,-0.81,-0.81*
%
%ADD28ROUNDEDRECTD28*%
%ADD29C,1.80*%
%ADD30C,2.20*%
G36*
X2187Y6739D02*
X1960Y6729D01*
X1734Y6711D01*
X1509Y6683D01*
X1286Y6646D01*
X1064Y6599D01*
X844Y6543D01*
X627Y6479D01*
X561Y6456D01*
X561Y5998D01*
X581Y5990D01*
X590Y5999D01*
X620Y6016D01*
X653Y6025D01*
X687D01*
X720Y6016D01*
X750Y5999D01*
X774Y5975D01*
X791Y5945D01*
X800Y5912D01*
Y5878D01*
X791Y5845D01*
X774Y5815D01*
X750Y5791D01*
X720Y5774D01*
X687Y5765D01*
X653D01*
X620Y5774D01*
X590Y5791D01*
X581Y5800D01*
X561Y5792D01*
X561Y5500D01*
X561Y5499D01*
X561Y5498D01*
X560Y5465D01*
X559Y5462D01*
X560Y5459D01*
X551Y5394D01*
X550Y5391D01*
X549Y5387D01*
X533Y5323D01*
X531Y5320D01*
X530Y5316D01*
X505Y5255D01*
X503Y5252D01*
X501Y5248D01*
X469Y5192D01*
X466Y5189D01*
X464Y5185D01*
X424Y5133D01*
X421Y5130D01*
X419Y5127D01*
X373Y5081D01*
X370Y5079D01*
X367Y5076D01*
X315Y5036D01*
X311Y5034D01*
X308Y5031D01*
X252Y4999D01*
X248Y4997D01*
X245Y4995D01*
X184Y4970D01*
X180Y4969D01*
X177Y4967D01*
X113Y4951D01*
X109Y4950D01*
X106Y4949D01*
X61Y4943D01*
Y61D01*
X966D01*
X967Y81D01*
X939Y85D01*
X937Y85D01*
X936Y85D01*
X898Y96D01*
X897Y96D01*
X896Y96D01*
X859Y112D01*
X858Y112D01*
X857Y113D01*
X823Y132D01*
X822Y133D01*
X821Y134D01*
X789Y158D01*
X788Y159D01*
X787Y160D01*
X760Y187D01*
X759Y188D01*
X758Y189D01*
X734Y221D01*
X733Y222D01*
X732Y223D01*
X713Y257D01*
X712Y258D01*
X712Y259D01*
X696Y296D01*
X696Y297D01*
X696Y298D01*
X685Y336D01*
X685Y337D01*
X685Y339D01*
X680Y378D01*
X680Y379D01*
X680Y380D01*
Y420D01*
X680Y421D01*
X680Y422D01*
X685Y461D01*
X685Y463D01*
X685Y464D01*
X696Y502D01*
X696Y503D01*
X696Y504D01*
X712Y541D01*
X712Y542D01*
X713Y543D01*
X732Y577D01*
X733Y578D01*
X734Y579D01*
X758Y611D01*
X759Y612D01*
X760Y613D01*
X787Y640D01*
X788Y641D01*
X789Y642D01*
X821Y666D01*
X822Y667D01*
X823Y668D01*
X857Y687D01*
X858Y688D01*
X859Y688D01*
X896Y704D01*
X897Y704D01*
X898Y704D01*
X936Y715D01*
X937Y715D01*
X939Y715D01*
X978Y720D01*
X979Y720D01*
X980Y720D01*
X1020D01*
X1021Y720D01*
X1022Y720D01*
X1061Y715D01*
X1063Y715D01*
X1064Y715D01*
X1102Y704D01*
X1103Y704D01*
X1104Y704D01*
X1141Y688D01*
X1142Y688D01*
X1143Y687D01*
X1177Y668D01*
X1178Y667D01*
X1179Y666D01*
X1211Y642D01*
X1212Y641D01*
X1213Y640D01*
X1240Y613D01*
X1241Y612D01*
X1242Y611D01*
X1266Y579D01*
X1267Y578D01*
X1268Y577D01*
X1287Y543D01*
X1288Y542D01*
X1288Y541D01*
X1304Y504D01*
X1304Y503D01*
X1304Y502D01*
X1315Y464D01*
X1315Y463D01*
X1315Y461D01*
X1320Y422D01*
X1320Y421D01*
X1320Y420D01*
Y380D01*
X1320Y379D01*
X1320Y378D01*
X1315Y339D01*
X1315Y337D01*
X1315Y336D01*
X1304Y298D01*
X1304Y297D01*
X1304Y296D01*
X1288Y259D01*
X1288Y258D01*
X1287Y257D01*
X1268Y223D01*
X1267Y222D01*
X1266Y221D01*
X1242Y189D01*
X1241Y188D01*
X1240Y187D01*
X1213Y160D01*
X1212Y159D01*
X1211Y158D01*
X1179Y134D01*
X1178Y133D01*
X1177Y132D01*
X1143Y113D01*
X1142Y112D01*
X1141Y112D01*
X1104Y96D01*
X1103Y96D01*
X1102Y96D01*
X1064Y85D01*
X1063Y85D01*
X1061Y85D01*
X1033Y81D01*
X1034Y61D01*
X4539D01*
Y4943D01*
X4494Y4949D01*
X4491Y4950D01*
X4487Y4951D01*
X4423Y4967D01*
X4420Y4969D01*
X4416Y4970D01*
X4355Y4995D01*
X4352Y4997D01*
X4348Y4999D01*
X4292Y5031D01*
X4289Y5034D01*
X4285Y5036D01*
X4233Y5076D01*
X4230Y5079D01*
X4227Y5081D01*
X4181Y5127D01*
X4179Y5130D01*
X4176Y5133D01*
X4136Y5185D01*
X4134Y5189D01*
X4131Y5192D01*
X4099Y5248D01*
X4097Y5252D01*
X4095Y5255D01*
X4070Y5316D01*
X4069Y5320D01*
X4067Y5323D01*
X4051Y5387D01*
X4050Y5391D01*
X4049Y5394D01*
X4040Y5459D01*
X4041Y5462D01*
X4040Y5465D01*
X4039Y5498D01*
X4039Y5499D01*
X4039Y5500D01*
X4039Y6456D01*
X3973Y6479D01*
X3756Y6543D01*
X3536Y6599D01*
X3314Y6646D01*
X3091Y6683D01*
X2866Y6711D01*
X2640Y6729D01*
X2413Y6739D01*
X2187Y6739D01*
D02*
G37*
%LPC*%
G36*
X1680Y6235D02*
X1716D01*
X1751Y6229D01*
X1783Y6215D01*
X1813Y6195D01*
X1818Y6190D01*
X1698Y6070D01*
X1578Y6190D01*
X1583Y6195D01*
X1613Y6215D01*
X1645Y6229D01*
X1680Y6235D01*
D02*
G37*
G36*
X2884D02*
X2920D01*
X2955Y6229D01*
X2987Y6215D01*
X3017Y6195D01*
X3022Y6190D01*
X2902Y6070D01*
X2782Y6190D01*
X2787Y6195D01*
X2817Y6215D01*
X2849Y6229D01*
X2884Y6235D01*
D02*
G37*
G36*
X1480Y6416D02*
X3150D01*
X3164Y6413D01*
X3175Y6405D01*
X3425Y6155D01*
X3433Y6144D01*
X3436Y6130D01*
Y5825D01*
X4095Y5165D01*
X4103Y5154D01*
X4106Y5140D01*
Y3090D01*
Y2000D01*
Y1500D01*
X4103Y1486D01*
X4095Y1475D01*
X3934Y1314D01*
X3940Y1292D01*
Y1268D01*
X3934Y1245D01*
X3922Y1225D01*
X3905Y1208D01*
X3885Y1196D01*
X3862Y1190D01*
X3838D01*
X3816Y1196D01*
X3395Y775D01*
X3384Y767D01*
X3370Y764D01*
X1000D01*
X986Y767D01*
X975Y775D01*
X575Y1175D01*
X567Y1186D01*
X564Y1200D01*
Y1950D01*
X567Y1964D01*
X575Y1975D01*
X645Y2045D01*
X656Y2053D01*
X670Y2056D01*
X1180D01*
X1194Y2053D01*
X1205Y2045D01*
X1525Y1726D01*
X2555D01*
X2652Y1822D01*
Y2001D01*
X2625D01*
X2614Y2003D01*
X2605Y2009D01*
X2599Y2018D01*
X2597Y2028D01*
X2578D01*
X2576Y2018D01*
X2570Y2009D01*
X2561Y2003D01*
X2551Y2001D01*
X2498D01*
Y2091D01*
X2488D01*
Y2101D01*
X2397D01*
Y2154D01*
X2399Y2165D01*
X2405Y2174D01*
X2414Y2180D01*
X2425Y2182D01*
Y2201D01*
X2414Y2203D01*
X2405Y2209D01*
X2399Y2218D01*
X2397Y2228D01*
Y2281D01*
X2488D01*
Y2291D01*
X2498D01*
Y2382D01*
X2551D01*
X2561Y2380D01*
X2570Y2374D01*
X2576Y2365D01*
X2578Y2354D01*
X2597D01*
X2599Y2365D01*
X2605Y2374D01*
X2614Y2380D01*
X2625Y2382D01*
X2642D01*
X2648Y2402D01*
X2625Y2424D01*
X2460D01*
X2446Y2427D01*
X2435Y2435D01*
X2395Y2475D01*
X2387Y2486D01*
X2384Y2500D01*
Y2533D01*
X2382Y2537D01*
X2380Y2545D01*
X2375D01*
Y2638D01*
Y2730D01*
X2600D01*
Y2668D01*
X2623D01*
X2634Y2666D01*
X2644Y2659D01*
X2812Y2492D01*
X2818Y2482D01*
X2821Y2470D01*
X2821Y2470D01*
Y1840D01*
X2821Y1840D01*
X2818Y1828D01*
X2812Y1818D01*
X2612Y1618D01*
X2612Y1618D01*
X2602Y1612D01*
X2590Y1609D01*
X2590Y1609D01*
X1391D01*
Y1593D01*
X1388Y1583D01*
X1382Y1574D01*
X1374Y1568D01*
X1363Y1566D01*
X1237D01*
X1226Y1568D01*
X1218Y1574D01*
X1212Y1583D01*
X1209Y1593D01*
X1191D01*
X1188Y1583D01*
X1182Y1574D01*
X1174Y1568D01*
X1163Y1566D01*
X1037D01*
X1026Y1568D01*
X1018Y1574D01*
X1012Y1583D01*
X1009Y1593D01*
Y1648D01*
X1000Y1650D01*
X990Y1657D01*
X809Y1838D01*
X783Y1836D01*
X775Y1828D01*
X755Y1816D01*
X732Y1810D01*
X708D01*
X685Y1816D01*
X665Y1828D01*
X656Y1837D01*
X636Y1829D01*
Y1771D01*
X656Y1763D01*
X665Y1772D01*
X685Y1784D01*
X708Y1790D01*
X732D01*
X755Y1784D01*
X775Y1772D01*
X777Y1771D01*
X713Y1707D01*
X720Y1700D01*
X713Y1693D01*
X777Y1629D01*
X775Y1628D01*
X755Y1616D01*
X732Y1610D01*
X708D01*
X685Y1616D01*
X665Y1628D01*
X656Y1637D01*
X636Y1629D01*
Y1215D01*
X1015Y836D01*
X3355D01*
X3703Y1184D01*
X3691Y1200D01*
X3685Y1196D01*
X3662Y1190D01*
X3638D01*
X3615Y1196D01*
X3612Y1198D01*
X3572Y1158D01*
X3572Y1158D01*
X3562Y1152D01*
X3550Y1149D01*
X3409D01*
X3409Y1149D01*
X3397Y1152D01*
X3387Y1158D01*
X3328Y1217D01*
X3309Y1212D01*
X3308Y1211D01*
X3305Y1208D01*
X3285Y1196D01*
X3262Y1190D01*
X3238D01*
X3215Y1196D01*
X3195Y1208D01*
X3193Y1209D01*
X3257Y1273D01*
X3250Y1280D01*
X3257Y1287D01*
X3193Y1351D01*
X3195Y1352D01*
X3215Y1364D01*
X3238Y1370D01*
X3262D01*
X3285Y1364D01*
X3299Y1355D01*
X3319Y1364D01*
Y1464D01*
X3319Y1464D01*
X3322Y1476D01*
X3328Y1486D01*
X3369Y1527D01*
Y1709D01*
X3337D01*
X3326Y1712D01*
X3318Y1718D01*
X3312Y1726D01*
X3309Y1737D01*
Y1769D01*
X3280D01*
X3280Y1769D01*
X3268Y1772D01*
X3258Y1778D01*
X3088Y1948D01*
X3082Y1958D01*
X3079Y1970D01*
X3079Y1970D01*
Y2867D01*
X2823Y3123D01*
X2805Y3116D01*
Y3050D01*
Y2950D01*
Y2850D01*
Y2750D01*
X2620D01*
Y2850D01*
Y2950D01*
Y3050D01*
Y3150D01*
Y3250D01*
Y3275D01*
X2712D01*
X2809D01*
X2815Y3266D01*
X2827Y3263D01*
X2837Y3257D01*
X3172Y2922D01*
X3178Y2912D01*
X3181Y2900D01*
X3181Y2900D01*
Y2033D01*
X3283Y1931D01*
X3304D01*
X3309Y1937D01*
Y2063D01*
X3312Y2074D01*
X3318Y2082D01*
X3326Y2088D01*
X3337Y2091D01*
X3463D01*
X3474Y2088D01*
X3482Y2082D01*
X3488Y2074D01*
X3491Y2063D01*
X3509Y2063D01*
X3512Y2074D01*
X3518Y2082D01*
X3526Y2088D01*
X3537Y2091D01*
X3663D01*
X3674Y2088D01*
X3682Y2082D01*
X3688Y2074D01*
X3691Y2063D01*
Y2036D01*
X4034D01*
Y3054D01*
X3620D01*
X3606Y3057D01*
X3595Y3065D01*
X3500Y3159D01*
X3409D01*
X3398Y3162D01*
X3388Y3168D01*
X3382Y3178D01*
X3379Y3189D01*
Y3244D01*
X3320D01*
X3307Y3247D01*
X3295Y3255D01*
X3184Y3366D01*
X3176Y3378D01*
X3173Y3391D01*
Y3394D01*
X3126Y3441D01*
X3102Y3438D01*
X3094Y3432D01*
X3083Y3429D01*
Y3411D01*
X3094Y3408D01*
X3102Y3402D01*
X3108Y3394D01*
X3111Y3383D01*
Y3330D01*
X2929D01*
Y3383D01*
X2932Y3394D01*
X2938Y3402D01*
X2946Y3408D01*
X2957Y3411D01*
Y3429D01*
X2946Y3432D01*
X2938Y3438D01*
X2925Y3440D01*
X2907Y3424D01*
Y3406D01*
X2904Y3392D01*
X2896Y3381D01*
X2825Y3310D01*
X2814Y3302D01*
X2805Y3300D01*
Y3295D01*
X2712D01*
X2620D01*
Y3370D01*
X2709D01*
X2712Y3371D01*
X2785D01*
X2835Y3421D01*
Y3449D01*
X2838Y3463D01*
X2846Y3474D01*
X2917Y3545D01*
X2929Y3553D01*
X2929Y3553D01*
Y3583D01*
X2932Y3594D01*
X2938Y3602D01*
X2946Y3608D01*
X2957Y3611D01*
X3083D01*
X3094Y3608D01*
X3102Y3602D01*
X3108Y3594D01*
X3111Y3583D01*
Y3553D01*
X3111Y3553D01*
X3123Y3545D01*
X3234Y3434D01*
X3242Y3422D01*
X3245Y3409D01*
Y3406D01*
X3335Y3316D01*
X3379D01*
Y3371D01*
X3382Y3382D01*
X3388Y3392D01*
X3398Y3398D01*
X3409Y3401D01*
Y3419D01*
X3398Y3422D01*
X3388Y3428D01*
X3382Y3438D01*
X3379Y3449D01*
Y3631D01*
X3382Y3642D01*
X3388Y3652D01*
X3398Y3658D01*
X3409Y3661D01*
X3560D01*
X3571Y3672D01*
X3572Y3676D01*
X3568Y3696D01*
X3567Y3697D01*
X3561Y3705D01*
X3560Y3715D01*
Y3920D01*
X3561Y3930D01*
X3567Y3938D01*
X3575Y3944D01*
X3585Y3945D01*
X3594D01*
Y4274D01*
X3478D01*
X3466Y4277D01*
X3456Y4284D01*
X3449Y4294D01*
X3447Y4306D01*
Y4499D01*
X3449Y4511D01*
X3456Y4521D01*
X3466Y4528D01*
X3478Y4531D01*
X3782D01*
X3794Y4528D01*
X3804Y4521D01*
X3811Y4511D01*
X3813Y4499D01*
Y4306D01*
X3811Y4294D01*
X3804Y4284D01*
X3794Y4277D01*
X3782Y4274D01*
X3666D01*
Y3945D01*
X3675D01*
X3685Y3944D01*
X3693Y3938D01*
X3699Y3930D01*
X3700Y3920D01*
Y3715D01*
X3699Y3705D01*
X3693Y3697D01*
X3685Y3691D01*
X3675Y3690D01*
X3674D01*
X3669Y3674D01*
X3684Y3659D01*
X3689Y3661D01*
X3760D01*
Y3550D01*
X3659D01*
Y3631D01*
X3659Y3631D01*
X3641Y3640D01*
X3601Y3600D01*
Y3449D01*
X3598Y3438D01*
X3592Y3428D01*
X3582Y3422D01*
X3571Y3419D01*
Y3401D01*
X3582Y3398D01*
X3592Y3392D01*
X3598Y3382D01*
X3601Y3371D01*
Y3189D01*
X3598Y3178D01*
X3592Y3168D01*
X3635Y3126D01*
X4034D01*
Y5125D01*
X3375Y5785D01*
X3367Y5796D01*
X3364Y5810D01*
Y6115D01*
X3135Y6344D01*
X2455D01*
X1370Y5260D01*
Y5253D01*
X1371Y5253D01*
Y5206D01*
X1450D01*
X1464Y5203D01*
X1475Y5195D01*
X1556Y5114D01*
X1564Y5103D01*
X1567Y5089D01*
Y4826D01*
X1612D01*
X1623Y4824D01*
X1633Y4817D01*
X1639Y4808D01*
X1642Y4797D01*
Y4669D01*
X1892Y4418D01*
X1895Y4417D01*
X1917Y4422D01*
X1918Y4422D01*
X1926Y4428D01*
X1937Y4431D01*
Y4449D01*
X1926Y4452D01*
X1918Y4458D01*
X1912Y4466D01*
X1909Y4477D01*
Y4603D01*
X1912Y4614D01*
X1918Y4622D01*
X1926Y4628D01*
X1937Y4631D01*
X2063D01*
X2074Y4628D01*
X2082Y4622D01*
X2088Y4614D01*
X2091Y4603D01*
X2109D01*
X2112Y4614D01*
X2118Y4622D01*
X2126Y4628D01*
X2137Y4631D01*
X2169D01*
Y4667D01*
X2078Y4758D01*
X2078Y4758D01*
X2072Y4768D01*
X2069Y4780D01*
Y4780D01*
X2064Y4781D01*
X2056Y4786D01*
X2051Y4794D01*
X2050Y4803D01*
Y4819D01*
X1860D01*
X1860Y4819D01*
X1848Y4822D01*
X1838Y4828D01*
X1738Y4928D01*
X1738Y4928D01*
X1732Y4938D01*
X1729Y4950D01*
Y5400D01*
X1729Y5400D01*
X1732Y5412D01*
X1738Y5422D01*
X1738Y5422D01*
X2078Y5761D01*
X2075Y5771D01*
Y5798D01*
X2082Y5823D01*
X2095Y5846D01*
X2114Y5865D01*
X2136Y5878D01*
X2162Y5885D01*
X2188D01*
X2214Y5878D01*
X2236Y5865D01*
X2255Y5846D01*
X2268Y5823D01*
X2275Y5798D01*
Y5771D01*
X2268Y5746D01*
X2255Y5723D01*
X2236Y5704D01*
X2221Y5695D01*
X2221Y5695D01*
Y5674D01*
X2221Y5674D01*
X2236Y5665D01*
X2255Y5646D01*
X2268Y5623D01*
X2275Y5598D01*
Y5571D01*
X2268Y5546D01*
X2255Y5523D01*
X2236Y5504D01*
X2214Y5491D01*
X2188Y5485D01*
X2162D01*
X2136Y5491D01*
X2129Y5495D01*
X1871Y5237D01*
Y5023D01*
X1923Y4971D01*
X2400D01*
X2400Y4971D01*
X2412Y4968D01*
X2422Y4962D01*
X2422Y4962D01*
X2464Y4919D01*
X2473Y4920D01*
X2527D01*
X2536Y4919D01*
X2544Y4914D01*
X2549Y4906D01*
X2550Y4897D01*
Y4803D01*
X2549Y4794D01*
X2544Y4786D01*
X2536Y4781D01*
X2531Y4780D01*
Y4750D01*
X2531Y4750D01*
X2528Y4738D01*
X2522Y4728D01*
X2444Y4651D01*
X2452Y4631D01*
X2463D01*
X2474Y4628D01*
X2482Y4622D01*
X2488Y4614D01*
X2491Y4603D01*
Y4477D01*
X2488Y4466D01*
X2482Y4458D01*
X2474Y4452D01*
X2463Y4449D01*
Y4431D01*
X2474Y4428D01*
X2482Y4422D01*
X2488Y4414D01*
X2491Y4403D01*
Y4277D01*
X2488Y4266D01*
X2482Y4258D01*
X2474Y4252D01*
X2463Y4249D01*
X2431D01*
Y4150D01*
X2431Y4150D01*
X2428Y4138D01*
X2422Y4128D01*
X2246Y3952D01*
Y3575D01*
X2600D01*
Y3390D01*
X2075D01*
Y3483D01*
Y3575D01*
X2084D01*
Y3621D01*
X2073Y3639D01*
X2020D01*
Y3730D01*
Y3821D01*
X2073D01*
X2084Y3839D01*
Y3922D01*
X1647Y4359D01*
X1457D01*
X1450Y4341D01*
X1835Y3955D01*
X1843Y3944D01*
X1846Y3930D01*
Y3821D01*
X1873D01*
X1884Y3818D01*
X1892Y3812D01*
X1898Y3804D01*
X1901Y3793D01*
X1919D01*
X1922Y3804D01*
X1928Y3812D01*
X1936Y3818D01*
X1947Y3821D01*
X2000D01*
Y3730D01*
Y3639D01*
X1947D01*
X1936Y3642D01*
X1928Y3648D01*
X1922Y3656D01*
X1919Y3667D01*
X1901D01*
X1898Y3656D01*
X1892Y3648D01*
X1884Y3642D01*
X1873Y3639D01*
X1846D01*
Y3615D01*
X1942Y3518D01*
X1980D01*
Y3575D01*
X2055D01*
Y3483D01*
Y3390D01*
X1980D01*
Y3447D01*
X1927D01*
X1914Y3450D01*
X1902Y3457D01*
X1785Y3575D01*
X1777Y3586D01*
X1774Y3600D01*
Y3639D01*
X1747D01*
X1736Y3642D01*
X1728Y3648D01*
X1722Y3656D01*
X1719Y3667D01*
Y3793D01*
X1722Y3804D01*
X1728Y3812D01*
X1736Y3818D01*
X1747Y3821D01*
X1774D01*
Y3915D01*
X1125Y4565D01*
X1117Y4576D01*
X1114Y4590D01*
Y4623D01*
X1094Y4631D01*
X1091Y4627D01*
X1065Y4613D01*
X1054Y4610D01*
Y4471D01*
X1562Y3963D01*
X1568Y3953D01*
X1571Y3942D01*
X1571Y3942D01*
Y3675D01*
X1876Y3370D01*
X1960D01*
Y3300D01*
Y3200D01*
Y3100D01*
Y3016D01*
X1970D01*
X1982Y3013D01*
X1992Y3007D01*
X2022Y2977D01*
X2028Y2967D01*
X2031Y2955D01*
X2031Y2955D01*
Y2760D01*
X2031Y2760D01*
X2029Y2750D01*
X2029Y2747D01*
X2040Y2730D01*
X2355D01*
Y2638D01*
Y2545D01*
X2346D01*
Y2445D01*
X2346Y2445D01*
X2343Y2433D01*
X2337Y2423D01*
X2200Y2287D01*
Y2233D01*
X2199Y2224D01*
X2194Y2216D01*
X2186Y2211D01*
X2177Y2210D01*
X2123D01*
X2114Y2211D01*
X2106Y2216D01*
X2101Y2224D01*
X2100Y2229D01*
X1941D01*
Y2197D01*
X1938Y2186D01*
X1932Y2178D01*
X1924Y2172D01*
X1913Y2169D01*
Y2151D01*
X1924Y2148D01*
X1932Y2142D01*
X1938Y2134D01*
X1941Y2123D01*
Y2070D01*
X1759D01*
Y2123D01*
X1762Y2134D01*
X1768Y2142D01*
X1776Y2148D01*
X1787Y2151D01*
Y2169D01*
X1776Y2172D01*
X1768Y2178D01*
X1762Y2186D01*
X1759Y2197D01*
Y2323D01*
X1762Y2334D01*
X1768Y2342D01*
X1776Y2348D01*
X1787Y2351D01*
X1913D01*
X1924Y2348D01*
X1932Y2342D01*
X1938Y2334D01*
X1941Y2323D01*
Y2291D01*
X2100D01*
Y2327D01*
X2101Y2336D01*
X2106Y2344D01*
X2114Y2349D01*
X2123Y2350D01*
X2177D01*
X2177Y2350D01*
X2284Y2458D01*
Y2545D01*
X1980D01*
Y2608D01*
X1960Y2617D01*
X1702Y2359D01*
X1711Y2339D01*
X1713Y2339D01*
X1721Y2333D01*
X1727Y2325D01*
X1729Y2316D01*
Y2234D01*
X1727Y2225D01*
X1721Y2217D01*
X1713Y2211D01*
X1704Y2210D01*
X1593D01*
X1583Y2211D01*
X1575Y2217D01*
X1570Y2225D01*
X1568Y2234D01*
Y2244D01*
X1541D01*
Y2197D01*
X1538Y2186D01*
X1532Y2178D01*
X1524Y2172D01*
X1513Y2169D01*
Y2151D01*
X1524Y2148D01*
X1532Y2142D01*
X1538Y2134D01*
X1541Y2123D01*
Y1997D01*
X1538Y1986D01*
X1532Y1978D01*
X1524Y1972D01*
X1513Y1969D01*
X1481D01*
Y1943D01*
X1533Y1891D01*
X1970D01*
Y1916D01*
X1971Y1925D01*
X1977Y1933D01*
X1985Y1939D01*
X1994Y1940D01*
X2004D01*
Y2020D01*
X2005Y2021D01*
Y2087D01*
X2006Y2096D01*
X2011Y2104D01*
X2019Y2109D01*
X2028Y2110D01*
X2082D01*
X2091Y2109D01*
X2099Y2104D01*
X2104Y2096D01*
X2105Y2087D01*
Y1993D01*
X2104Y1984D01*
X2099Y1976D01*
X2091Y1971D01*
X2082Y1970D01*
X2066D01*
Y1940D01*
X2075D01*
X2085Y1939D01*
X2093Y1933D01*
X2099Y1925D01*
X2100Y1916D01*
Y1805D01*
X2099Y1795D01*
X2093Y1787D01*
X2085Y1781D01*
X2075Y1780D01*
X1994D01*
X1985Y1781D01*
X1977Y1787D01*
X1971Y1795D01*
X1970Y1805D01*
Y1829D01*
X1520D01*
X1520Y1829D01*
X1508Y1832D01*
X1498Y1838D01*
X1428Y1908D01*
X1422Y1918D01*
X1419Y1930D01*
Y1969D01*
X1387D01*
X1376Y1972D01*
X1368Y1978D01*
X1362Y1986D01*
X1359Y1997D01*
Y2123D01*
X1362Y2134D01*
X1368Y2142D01*
X1376Y2148D01*
X1387Y2151D01*
Y2169D01*
X1376Y2172D01*
X1368Y2178D01*
X1362Y2186D01*
X1359Y2197D01*
Y2229D01*
X340D01*
X340Y2229D01*
X328Y2232D01*
X318Y2238D01*
X188Y2368D01*
X188Y2368D01*
X182Y2378D01*
X179Y2390D01*
Y4730D01*
X179Y4730D01*
X182Y4742D01*
X188Y4752D01*
X849Y5413D01*
Y6038D01*
X841Y6046D01*
X831Y6051D01*
X808Y6045D01*
X782D01*
X756Y6052D01*
X734Y6065D01*
X715Y6084D01*
X702Y6106D01*
X695Y6132D01*
Y6158D01*
X702Y6184D01*
X715Y6206D01*
X734Y6225D01*
X756Y6238D01*
X782Y6245D01*
X808D01*
X834Y6238D01*
X856Y6225D01*
X875Y6206D01*
X888Y6184D01*
X895Y6158D01*
Y6132D01*
X888Y6106D01*
X884Y6099D01*
X902Y6082D01*
X908Y6072D01*
X911Y6060D01*
X911Y6060D01*
Y5400D01*
X911Y5400D01*
X908Y5388D01*
X902Y5378D01*
X241Y4717D01*
Y2403D01*
X353Y2291D01*
X1359D01*
Y2323D01*
X1362Y2334D01*
X1368Y2342D01*
X1376Y2348D01*
X1387Y2351D01*
X1513D01*
X1524Y2348D01*
X1532Y2342D01*
X1538Y2334D01*
X1541Y2323D01*
Y2306D01*
X1568D01*
Y2316D01*
X1570Y2325D01*
X1575Y2333D01*
X1583Y2339D01*
X1593Y2340D01*
X1601D01*
X1618Y2348D01*
X1620Y2360D01*
X1627Y2370D01*
X1627Y2370D01*
X1919Y2663D01*
Y2710D01*
X1922Y2722D01*
X1927Y2730D01*
X1925Y2740D01*
X1921Y2750D01*
X1902D01*
X1900Y2741D01*
X1893Y2730D01*
X1778Y2615D01*
X1766Y2607D01*
X1752Y2604D01*
X1701D01*
Y2577D01*
X1698Y2566D01*
X1692Y2558D01*
X1684Y2552D01*
X1673Y2549D01*
X1547D01*
X1536Y2552D01*
X1528Y2558D01*
X1522Y2566D01*
X1519Y2577D01*
Y2703D01*
X1522Y2714D01*
X1528Y2722D01*
X1536Y2728D01*
X1547Y2731D01*
Y2749D01*
X1536Y2752D01*
X1528Y2758D01*
X1522Y2766D01*
X1519Y2777D01*
Y2830D01*
X1610D01*
X1701D01*
Y2777D01*
X1698Y2766D01*
X1692Y2758D01*
X1684Y2752D01*
X1673Y2749D01*
Y2731D01*
X1684Y2728D01*
X1692Y2722D01*
X1698Y2714D01*
X1701Y2703D01*
Y2676D01*
X1738D01*
X1794Y2732D01*
X1786Y2750D01*
X1775D01*
Y2800D01*
Y2825D01*
X1867D01*
Y2845D01*
X1775D01*
Y2900D01*
Y3004D01*
X1248D01*
X1211Y2967D01*
Y2936D01*
X1217Y2931D01*
X1343D01*
X1354Y2928D01*
X1362Y2922D01*
X1368Y2914D01*
X1371Y2903D01*
Y2777D01*
X1368Y2766D01*
X1362Y2758D01*
X1354Y2752D01*
X1343Y2749D01*
X1343Y2731D01*
X1354Y2728D01*
X1362Y2722D01*
X1368Y2714D01*
X1371Y2703D01*
Y2577D01*
X1368Y2566D01*
X1362Y2558D01*
X1354Y2552D01*
X1343Y2549D01*
X1233D01*
X1182Y2498D01*
X1172Y2492D01*
X1160Y2489D01*
X804D01*
X795Y2469D01*
X804Y2455D01*
X810Y2432D01*
Y2408D01*
X804Y2385D01*
X792Y2365D01*
X791Y2363D01*
X727Y2427D01*
X720Y2420D01*
X713Y2427D01*
X649Y2363D01*
X648Y2365D01*
X636Y2385D01*
X630Y2408D01*
Y2432D01*
X636Y2455D01*
X648Y2475D01*
X651Y2478D01*
X657Y2498D01*
X578Y2577D01*
X578Y2577D01*
X572Y2587D01*
X569Y2599D01*
X569Y2599D01*
Y2783D01*
X567Y2786D01*
X564Y2800D01*
Y2900D01*
X567Y2914D01*
X575Y2925D01*
X636Y2986D01*
X630Y3008D01*
Y3032D01*
X636Y3054D01*
X535Y3155D01*
X527Y3166D01*
X524Y3180D01*
Y3460D01*
X527Y3474D01*
X535Y3485D01*
X858Y3809D01*
Y4621D01*
X838Y4629D01*
X837Y4627D01*
X811Y4613D01*
X783Y4606D01*
X755D01*
X727Y4613D01*
X701Y4627D01*
X698Y4631D01*
X776Y4708D01*
X769Y4716D01*
X776Y4723D01*
X698Y4800D01*
X701Y4804D01*
X727Y4818D01*
X755Y4826D01*
X783D01*
X811Y4818D01*
X837Y4804D01*
X838Y4802D01*
X858Y4810D01*
Y5084D01*
X861Y5098D01*
X869Y5109D01*
X909Y5150D01*
Y5253D01*
X912Y5264D01*
X918Y5272D01*
X926Y5278D01*
X937Y5281D01*
X1063D01*
X1074Y5278D01*
X1082Y5272D01*
X1088Y5264D01*
X1091Y5253D01*
Y5226D01*
X1140D01*
X1150Y5224D01*
X1160Y5226D01*
X1189D01*
Y5253D01*
X1192Y5264D01*
X1198Y5272D01*
X1206Y5278D01*
X1217Y5281D01*
X1300D01*
X1302Y5288D01*
X1310Y5300D01*
X2335Y6326D01*
X2328Y6344D01*
X1495D01*
X1337Y6186D01*
X1338Y6184D01*
X1345Y6158D01*
Y6132D01*
X1338Y6106D01*
X1325Y6084D01*
X1306Y6065D01*
X1284Y6052D01*
X1258Y6045D01*
X1232D01*
X1206Y6052D01*
X1184Y6065D01*
X1165Y6084D01*
X1152Y6106D01*
X1145Y6132D01*
Y6158D01*
X1152Y6184D01*
X1165Y6206D01*
X1184Y6225D01*
X1206Y6238D01*
X1232Y6245D01*
X1258D01*
X1284Y6238D01*
X1286Y6237D01*
X1455Y6405D01*
X1466Y6413D01*
X1480Y6416D01*
D02*
G37*
G36*
X1832Y6176D02*
X1838Y6170D01*
X1858Y6141D01*
X1871Y6108D01*
X1878Y6073D01*
Y6038D01*
X1871Y6003D01*
X1858Y5970D01*
X1838Y5941D01*
X1832Y5935D01*
X1712Y6056D01*
X1832Y6176D01*
D02*
G37*
G36*
X1564Y6176D02*
X1684Y6056D01*
X1564Y5935D01*
X1558Y5941D01*
X1538Y5970D01*
X1525Y6003D01*
X1518Y6038D01*
Y6073D01*
X1525Y6108D01*
X1538Y6141D01*
X1558Y6170D01*
X1564Y6176D01*
D02*
G37*
G36*
X2768Y6176D02*
X2888Y6056D01*
X2768Y5935D01*
X2762Y5941D01*
X2742Y5970D01*
X2729Y6003D01*
X2722Y6038D01*
Y6073D01*
X2729Y6108D01*
X2742Y6141D01*
X2762Y6170D01*
X2768Y6176D01*
D02*
G37*
G36*
X3036D02*
X3042Y6170D01*
X3062Y6141D01*
X3075Y6108D01*
X3082Y6073D01*
Y6038D01*
X3075Y6003D01*
X3062Y5970D01*
X3042Y5941D01*
X3036Y5935D01*
X2916Y6056D01*
X3036Y6176D01*
D02*
G37*
G36*
X1698Y6041D02*
X1818Y5921D01*
X1813Y5916D01*
X1783Y5896D01*
X1751Y5882D01*
X1716Y5876D01*
X1680D01*
X1645Y5882D01*
X1613Y5896D01*
X1583Y5916D01*
X1578Y5921D01*
X1698Y6041D01*
D02*
G37*
G36*
X2902Y6041D02*
X3022Y5921D01*
X3017Y5916D01*
X2987Y5896D01*
X2955Y5882D01*
X2920Y5876D01*
X2884D01*
X2849Y5882D01*
X2817Y5896D01*
X2787Y5916D01*
X2782Y5921D01*
X2902Y6041D01*
D02*
G37*
G36*
X2412Y5885D02*
X2438D01*
X2464Y5878D01*
X2486Y5865D01*
X2489Y5862D01*
X2425Y5799D01*
X2361Y5862D01*
X2364Y5865D01*
X2386Y5878D01*
X2412Y5885D01*
D02*
G37*
G36*
X1353Y6025D02*
X1387D01*
X1420Y6016D01*
X1450Y5999D01*
X1474Y5975D01*
X1491Y5945D01*
X1500Y5912D01*
Y5878D01*
X1491Y5845D01*
X1474Y5815D01*
X1450Y5791D01*
X1420Y5774D01*
X1387Y5765D01*
X1353D01*
X1320Y5774D01*
X1290Y5791D01*
X1266Y5815D01*
X1249Y5845D01*
X1240Y5878D01*
Y5912D01*
X1249Y5945D01*
X1266Y5975D01*
X1290Y5999D01*
X1320Y6016D01*
X1353Y6025D01*
D02*
G37*
G36*
X2347Y5848D02*
X2411Y5784D01*
X2347Y5721D01*
X2345Y5723D01*
X2332Y5746D01*
X2325Y5771D01*
Y5798D01*
X2332Y5823D01*
X2345Y5846D01*
X2347Y5848D01*
D02*
G37*
G36*
X2503Y5848D02*
X2505Y5846D01*
X2518Y5823D01*
X2525Y5798D01*
Y5771D01*
X2518Y5746D01*
X2505Y5723D01*
X2503Y5721D01*
X2439Y5784D01*
X2503Y5848D01*
D02*
G37*
G36*
X2168Y5160D02*
X2185D01*
Y5100D01*
X2145D01*
Y5137D01*
X2146Y5146D01*
X2151Y5154D01*
X2159Y5159D01*
X2168Y5160D01*
D02*
G37*
G36*
X2568D02*
X2585D01*
Y5100D01*
X2545D01*
Y5137D01*
X2546Y5146D01*
X2551Y5154D01*
X2559Y5159D01*
X2568Y5160D01*
D02*
G37*
G36*
X2605D02*
X2622D01*
X2631Y5159D01*
X2639Y5154D01*
X2644Y5146D01*
X2645Y5137D01*
Y5100D01*
X2605D01*
Y5160D01*
D02*
G37*
G36*
X2205D02*
X2222D01*
X2231Y5159D01*
X2239Y5154D01*
X2244Y5146D01*
X2245Y5137D01*
Y5100D01*
X2205D01*
Y5160D01*
D02*
G37*
G36*
X2425Y5770D02*
X2489Y5707D01*
X2487Y5705D01*
X2487Y5702D01*
X2493Y5685D01*
X2497D01*
X2508Y5683D01*
X2517Y5677D01*
X2523Y5667D01*
X2526Y5656D01*
Y5620D01*
X3025D01*
X3039Y5617D01*
X3051Y5610D01*
X3445Y5216D01*
X3528D01*
X3541Y5213D01*
X3553Y5205D01*
X3692Y5066D01*
X3739D01*
Y5132D01*
X3742Y5143D01*
X3748Y5152D01*
X3757Y5158D01*
X3768Y5161D01*
X3912D01*
X3923Y5158D01*
X3932Y5152D01*
X3938Y5143D01*
X3941Y5132D01*
Y4928D01*
X3938Y4917D01*
X3932Y4908D01*
X3923Y4902D01*
X3912Y4899D01*
X3876D01*
Y4786D01*
X3878Y4782D01*
X3881Y4771D01*
Y4620D01*
X3985Y4515D01*
X3993Y4504D01*
X3996Y4490D01*
Y4240D01*
X3993Y4226D01*
X3985Y4215D01*
X3896Y4125D01*
Y3945D01*
X3905D01*
X3915Y3944D01*
X3923Y3938D01*
X3929Y3930D01*
X3930Y3920D01*
Y3715D01*
X3929Y3705D01*
X3923Y3697D01*
X3915Y3691D01*
X3905Y3690D01*
X3815D01*
X3805Y3691D01*
X3797Y3697D01*
X3791Y3705D01*
X3790Y3715D01*
Y3920D01*
X3791Y3930D01*
X3797Y3938D01*
X3805Y3944D01*
X3815Y3945D01*
X3824D01*
Y4140D01*
X3827Y4154D01*
X3835Y4165D01*
X3924Y4255D01*
Y4475D01*
X3840Y4559D01*
X3689D01*
X3678Y4562D01*
X3668Y4568D01*
X3662Y4578D01*
X3659Y4589D01*
Y4771D01*
X3662Y4782D01*
X3668Y4792D01*
X3678Y4798D01*
X3689Y4801D01*
X3804D01*
Y4899D01*
X3768D01*
X3757Y4902D01*
X3748Y4908D01*
X3742Y4917D01*
X3739Y4928D01*
Y4994D01*
X3678D01*
X3664Y4997D01*
X3652Y5005D01*
X3541Y5116D01*
X3521Y5108D01*
Y5040D01*
X3420D01*
X3319D01*
Y5132D01*
X3322Y5143D01*
X3328Y5152D01*
X3337Y5158D01*
X3348Y5161D01*
X3373D01*
X3381Y5179D01*
X3011Y5549D01*
X2526D01*
Y5512D01*
X2523Y5502D01*
X2517Y5492D01*
X2508Y5486D01*
X2497Y5484D01*
X2441D01*
Y5159D01*
X2441Y5159D01*
X2449Y5154D01*
X2454Y5146D01*
X2455Y5137D01*
Y5043D01*
X2454Y5034D01*
X2449Y5026D01*
X2441Y5021D01*
X2432Y5020D01*
X2378D01*
X2369Y5021D01*
X2361Y5026D01*
X2356Y5034D01*
X2355Y5043D01*
Y5137D01*
X2356Y5144D01*
X2285Y5214D01*
X2105D01*
X2048Y5158D01*
X2049Y5154D01*
X2054Y5146D01*
X2055Y5137D01*
Y5043D01*
X2054Y5034D01*
X2049Y5026D01*
X2041Y5021D01*
X2032Y5020D01*
X1978D01*
X1969Y5021D01*
X1961Y5026D01*
X1956Y5034D01*
X1955Y5043D01*
Y5137D01*
X1956Y5146D01*
X1961Y5154D01*
X1969Y5159D01*
X1969Y5159D01*
Y5165D01*
X1972Y5179D01*
X1980Y5190D01*
X2065Y5275D01*
X2076Y5283D01*
X2090Y5286D01*
X2300D01*
X2314Y5283D01*
X2325Y5275D01*
X2351Y5250D01*
X2369Y5257D01*
Y5484D01*
X2353D01*
X2342Y5486D01*
X2333Y5492D01*
X2327Y5502D01*
X2324Y5512D01*
Y5656D01*
X2327Y5667D01*
X2333Y5677D01*
X2342Y5683D01*
X2353Y5685D01*
X2357D01*
X2363Y5702D01*
X2363Y5705D01*
X2361Y5707D01*
X2425Y5770D01*
D02*
G37*
G36*
X2145Y5080D02*
X2185D01*
Y5020D01*
X2168D01*
X2159Y5021D01*
X2151Y5026D01*
X2146Y5034D01*
X2145Y5043D01*
Y5080D01*
D02*
G37*
G36*
X2205D02*
X2245D01*
Y5043D01*
X2244Y5034D01*
X2239Y5026D01*
X2231Y5021D01*
X2222Y5020D01*
X2205D01*
Y5080D01*
D02*
G37*
G36*
X2545D02*
X2585D01*
Y5020D01*
X2568D01*
X2559Y5021D01*
X2551Y5026D01*
X2546Y5034D01*
X2545Y5043D01*
Y5080D01*
D02*
G37*
G36*
X2605D02*
X2645D01*
Y5043D01*
X2644Y5034D01*
X2639Y5026D01*
X2631Y5021D01*
X2622Y5020D01*
X2605D01*
Y5080D01*
D02*
G37*
G36*
X3319Y5020D02*
X3410D01*
Y4899D01*
X3348D01*
X3337Y4902D01*
X3328Y4908D01*
X3322Y4917D01*
X3319Y4928D01*
Y5020D01*
D02*
G37*
G36*
X3430D02*
X3521D01*
Y4928D01*
X3518Y4917D01*
X3512Y4908D01*
X3503Y4902D01*
X3492Y4899D01*
X3430D01*
Y5020D01*
D02*
G37*
G36*
X3409Y4801D02*
X3480D01*
Y4690D01*
X3379D01*
Y4771D01*
X3382Y4782D01*
X3388Y4792D01*
X3398Y4798D01*
X3409Y4801D01*
D02*
G37*
G36*
X3500D02*
X3571D01*
X3582Y4798D01*
X3592Y4792D01*
X3598Y4782D01*
X3601Y4771D01*
Y4690D01*
X3500D01*
Y4801D01*
D02*
G37*
G36*
X684Y4786D02*
X755Y4716D01*
X684Y4645D01*
X681Y4648D01*
X666Y4673D01*
X659Y4701D01*
Y4730D01*
X666Y4758D01*
X681Y4783D01*
X684Y4786D01*
D02*
G37*
G36*
X3379Y4670D02*
X3480D01*
Y4559D01*
X3409D01*
X3398Y4562D01*
X3388Y4568D01*
X3382Y4578D01*
X3379Y4589D01*
Y4670D01*
D02*
G37*
G36*
X3500D02*
X3601D01*
Y4589D01*
X3598Y4578D01*
X3592Y4568D01*
X3582Y4562D01*
X3571Y4559D01*
X3500D01*
Y4670D01*
D02*
G37*
G36*
X3355Y3945D02*
X3390D01*
Y3828D01*
X3330D01*
Y3920D01*
X3331Y3930D01*
X3337Y3938D01*
X3345Y3944D01*
X3355Y3945D01*
D02*
G37*
G36*
X3410D02*
X3445D01*
X3455Y3944D01*
X3463Y3938D01*
X3469Y3930D01*
X3470Y3920D01*
Y3828D01*
X3410D01*
Y3945D01*
D02*
G37*
G36*
X3330Y3808D02*
X3390D01*
Y3690D01*
X3355D01*
X3345Y3691D01*
X3337Y3697D01*
X3331Y3705D01*
X3330Y3715D01*
Y3808D01*
D02*
G37*
G36*
X3410D02*
X3470D01*
Y3715D01*
X3469Y3705D01*
X3463Y3697D01*
X3455Y3691D01*
X3445Y3690D01*
X3410D01*
Y3808D01*
D02*
G37*
G36*
X3780Y3661D02*
X3851D01*
X3862Y3658D01*
X3872Y3652D01*
X3878Y3642D01*
X3881Y3631D01*
Y3550D01*
X3780D01*
Y3661D01*
D02*
G37*
G36*
X3659Y3530D02*
X3770D01*
X3881D01*
Y3449D01*
X3878Y3438D01*
X3872Y3428D01*
X3862Y3422D01*
X3851Y3419D01*
Y3401D01*
X3862Y3398D01*
X3872Y3392D01*
X3878Y3382D01*
X3881Y3371D01*
Y3290D01*
X3770D01*
X3659D01*
Y3371D01*
X3662Y3382D01*
X3668Y3392D01*
X3678Y3398D01*
X3689Y3401D01*
Y3419D01*
X3678Y3422D01*
X3668Y3428D01*
X3662Y3438D01*
X3659Y3449D01*
Y3530D01*
D02*
G37*
G36*
X2929Y3310D02*
X3010D01*
Y3229D01*
X2957D01*
X2946Y3232D01*
X2938Y3238D01*
X2932Y3246D01*
X2929Y3257D01*
Y3310D01*
D02*
G37*
G36*
X3030D02*
X3111D01*
Y3257D01*
X3108Y3246D01*
X3102Y3238D01*
X3094Y3232D01*
X3083Y3229D01*
X3030D01*
Y3310D01*
D02*
G37*
G36*
X3659Y3270D02*
X3760D01*
Y3159D01*
X3689D01*
X3678Y3162D01*
X3668Y3168D01*
X3662Y3178D01*
X3659Y3189D01*
Y3270D01*
D02*
G37*
G36*
X3780D02*
X3881D01*
Y3189D01*
X3878Y3178D01*
X3872Y3168D01*
X3862Y3162D01*
X3851Y3159D01*
X3780D01*
Y3270D01*
D02*
G37*
G36*
X3580Y3020D02*
X3620D01*
X3621Y3020D01*
X3622Y3020D01*
X3661Y3015D01*
X3663Y3015D01*
X3664Y3015D01*
X3702Y3004D01*
X3703Y3004D01*
X3704Y3004D01*
X3741Y2988D01*
X3742Y2988D01*
X3743Y2987D01*
X3777Y2968D01*
X3778Y2967D01*
X3779Y2966D01*
X3811Y2942D01*
X3812Y2941D01*
X3813Y2940D01*
X3840Y2913D01*
X3841Y2912D01*
X3842Y2911D01*
X3866Y2879D01*
X3867Y2878D01*
X3868Y2877D01*
X3887Y2843D01*
X3888Y2842D01*
X3888Y2841D01*
X3904Y2804D01*
X3904Y2803D01*
X3904Y2802D01*
X3915Y2764D01*
X3915Y2763D01*
X3915Y2761D01*
X3920Y2722D01*
X3920Y2721D01*
X3920Y2720D01*
Y2680D01*
X3920Y2679D01*
X3920Y2678D01*
X3915Y2639D01*
X3915Y2637D01*
X3915Y2636D01*
X3904Y2598D01*
X3904Y2597D01*
X3904Y2596D01*
X3888Y2559D01*
X3888Y2558D01*
X3887Y2557D01*
X3868Y2523D01*
X3867Y2522D01*
X3866Y2521D01*
X3842Y2489D01*
X3841Y2488D01*
X3840Y2487D01*
X3813Y2460D01*
X3812Y2459D01*
X3811Y2458D01*
X3779Y2434D01*
X3778Y2433D01*
X3777Y2432D01*
X3743Y2413D01*
X3742Y2412D01*
X3741Y2412D01*
X3704Y2396D01*
X3703Y2396D01*
X3702Y2396D01*
X3664Y2385D01*
X3663Y2385D01*
X3661Y2385D01*
X3622Y2380D01*
X3621Y2380D01*
X3620Y2380D01*
X3580D01*
X3579Y2380D01*
X3578Y2380D01*
X3539Y2385D01*
X3537Y2385D01*
X3536Y2385D01*
X3498Y2396D01*
X3497Y2396D01*
X3496Y2396D01*
X3459Y2412D01*
X3458Y2412D01*
X3457Y2413D01*
X3423Y2432D01*
X3422Y2433D01*
X3421Y2434D01*
X3389Y2458D01*
X3388Y2459D01*
X3387Y2460D01*
X3360Y2487D01*
X3359Y2488D01*
X3358Y2489D01*
X3334Y2521D01*
X3333Y2522D01*
X3332Y2523D01*
X3313Y2557D01*
X3312Y2558D01*
X3312Y2559D01*
X3296Y2596D01*
X3296Y2597D01*
X3296Y2598D01*
X3285Y2636D01*
X3285Y2637D01*
X3285Y2639D01*
X3280Y2678D01*
X3280Y2679D01*
X3280Y2680D01*
Y2720D01*
X3280Y2721D01*
X3280Y2722D01*
X3285Y2761D01*
X3285Y2763D01*
X3285Y2764D01*
X3296Y2802D01*
X3296Y2803D01*
X3296Y2804D01*
X3312Y2841D01*
X3312Y2842D01*
X3313Y2843D01*
X3332Y2877D01*
X3333Y2878D01*
X3334Y2879D01*
X3358Y2911D01*
X3359Y2912D01*
X3360Y2913D01*
X3387Y2940D01*
X3388Y2941D01*
X3389Y2942D01*
X3421Y2966D01*
X3422Y2967D01*
X3423Y2968D01*
X3457Y2987D01*
X3458Y2988D01*
X3459Y2988D01*
X3496Y3004D01*
X3497Y3004D01*
X3498Y3004D01*
X3536Y3015D01*
X3537Y3015D01*
X3539Y3015D01*
X3578Y3020D01*
X3579Y3020D01*
X3580Y3020D01*
D02*
G37*
G36*
X1547Y2931D02*
X1600D01*
Y2850D01*
X1519D01*
Y2903D01*
X1522Y2914D01*
X1528Y2922D01*
X1536Y2928D01*
X1547Y2931D01*
D02*
G37*
G36*
X1620D02*
X1673D01*
X1684Y2928D01*
X1692Y2922D01*
X1698Y2914D01*
X1701Y2903D01*
Y2850D01*
X1620D01*
Y2931D01*
D02*
G37*
G36*
X720Y2406D02*
X777Y2349D01*
X775Y2348D01*
X755Y2336D01*
X732Y2330D01*
X708D01*
X685Y2336D01*
X665Y2348D01*
X663Y2349D01*
X720Y2406D01*
D02*
G37*
G36*
X2425Y2382D02*
X2478D01*
Y2301D01*
X2397D01*
Y2354D01*
X2399Y2365D01*
X2405Y2374D01*
X2414Y2380D01*
X2425Y2382D01*
D02*
G37*
G36*
X1593Y2110D02*
X1638D01*
Y2055D01*
X1568D01*
Y2085D01*
X1570Y2095D01*
X1575Y2103D01*
X1583Y2109D01*
X1593Y2110D01*
D02*
G37*
G36*
X1658D02*
X1704D01*
X1713Y2109D01*
X1721Y2103D01*
X1727Y2095D01*
X1729Y2085D01*
Y2055D01*
X1658D01*
Y2110D01*
D02*
G37*
G36*
X2218Y2110D02*
X2235D01*
Y2050D01*
X2195D01*
Y2087D01*
X2196Y2096D01*
X2201Y2104D01*
X2209Y2109D01*
X2218Y2110D01*
D02*
G37*
G36*
X2255D02*
X2272D01*
X2281Y2109D01*
X2289Y2104D01*
X2294Y2096D01*
X2295Y2087D01*
Y2050D01*
X2255D01*
Y2110D01*
D02*
G37*
G36*
X2397Y2081D02*
X2478D01*
Y2001D01*
X2425D01*
X2414Y2003D01*
X2405Y2009D01*
X2399Y2018D01*
X2397Y2028D01*
Y2081D01*
D02*
G37*
G36*
X1568Y2035D02*
X1638D01*
Y1980D01*
X1593D01*
X1583Y1981D01*
X1575Y1987D01*
X1570Y1995D01*
X1568Y2005D01*
Y2035D01*
D02*
G37*
G36*
X1658D02*
X1729D01*
Y2005D01*
X1727Y1995D01*
X1721Y1987D01*
X1713Y1981D01*
X1704Y1980D01*
X1658D01*
Y2035D01*
D02*
G37*
G36*
X2195Y2030D02*
X2235D01*
Y1970D01*
X2218D01*
X2209Y1971D01*
X2201Y1976D01*
X2196Y1984D01*
X2195Y1993D01*
Y2030D01*
D02*
G37*
G36*
X2255D02*
X2295D01*
Y1993D01*
X2294Y1984D01*
X2289Y1976D01*
X2281Y1971D01*
X2272Y1970D01*
X2255D01*
Y2030D01*
D02*
G37*
G36*
X1759Y2050D02*
X1840D01*
Y1969D01*
X1787D01*
X1776Y1972D01*
X1768Y1978D01*
X1762Y1986D01*
X1759Y1997D01*
Y2050D01*
D02*
G37*
G36*
X1860D02*
X1941D01*
Y1997D01*
X1938Y1986D01*
X1932Y1978D01*
X1924Y1972D01*
X1913Y1969D01*
X1860D01*
Y2050D01*
D02*
G37*
G36*
X2225Y1940D02*
X2255D01*
Y1870D01*
X2200D01*
Y1916D01*
X2201Y1925D01*
X2207Y1933D01*
X2215Y1939D01*
X2225Y1940D01*
D02*
G37*
G36*
X2275D02*
X2306D01*
X2315Y1939D01*
X2323Y1933D01*
X2329Y1925D01*
X2330Y1916D01*
Y1870D01*
X2275D01*
Y1940D01*
D02*
G37*
G36*
X2200Y1850D02*
X2255D01*
Y1780D01*
X2225D01*
X2215Y1781D01*
X2207Y1787D01*
X2201Y1795D01*
X2200Y1805D01*
Y1850D01*
D02*
G37*
G36*
X2275D02*
X2330D01*
Y1805D01*
X2329Y1795D01*
X2323Y1787D01*
X2315Y1781D01*
X2306Y1780D01*
X2275D01*
Y1850D01*
D02*
G37*
G36*
X791Y1757D02*
X792Y1755D01*
X804Y1735D01*
X810Y1712D01*
Y1688D01*
X804Y1665D01*
X792Y1645D01*
X791Y1643D01*
X734Y1700D01*
X791Y1757D01*
D02*
G37*
G36*
X2280Y1520D02*
X2320D01*
X2321Y1520D01*
X2322Y1520D01*
X2361Y1515D01*
X2363Y1515D01*
X2364Y1515D01*
X2402Y1504D01*
X2403Y1504D01*
X2404Y1504D01*
X2441Y1488D01*
X2442Y1488D01*
X2443Y1487D01*
X2477Y1468D01*
X2478Y1467D01*
X2479Y1466D01*
X2511Y1442D01*
X2512Y1441D01*
X2513Y1440D01*
X2540Y1413D01*
X2541Y1412D01*
X2542Y1411D01*
X2566Y1379D01*
X2567Y1378D01*
X2568Y1377D01*
X2587Y1343D01*
X2588Y1342D01*
X2588Y1341D01*
X2604Y1304D01*
X2604Y1303D01*
X2604Y1302D01*
X2615Y1264D01*
X2615Y1263D01*
X2615Y1261D01*
X2620Y1222D01*
X2620Y1221D01*
X2620Y1220D01*
Y1180D01*
X2620Y1179D01*
X2620Y1178D01*
X2615Y1139D01*
X2615Y1137D01*
X2615Y1136D01*
X2604Y1098D01*
X2604Y1097D01*
X2604Y1096D01*
X2588Y1059D01*
X2588Y1058D01*
X2587Y1057D01*
X2568Y1023D01*
X2567Y1022D01*
X2566Y1021D01*
X2542Y989D01*
X2541Y988D01*
X2540Y987D01*
X2513Y960D01*
X2512Y959D01*
X2511Y958D01*
X2479Y934D01*
X2478Y933D01*
X2477Y932D01*
X2443Y913D01*
X2442Y912D01*
X2441Y912D01*
X2404Y896D01*
X2403Y896D01*
X2402Y896D01*
X2364Y885D01*
X2363Y885D01*
X2361Y885D01*
X2322Y880D01*
X2321Y880D01*
X2320Y880D01*
X2280D01*
X2279Y880D01*
X2278Y880D01*
X2239Y885D01*
X2237Y885D01*
X2236Y885D01*
X2198Y896D01*
X2197Y896D01*
X2196Y896D01*
X2159Y912D01*
X2158Y912D01*
X2157Y913D01*
X2123Y932D01*
X2122Y933D01*
X2121Y934D01*
X2089Y958D01*
X2088Y959D01*
X2087Y960D01*
X2060Y987D01*
X2059Y988D01*
X2058Y989D01*
X2034Y1021D01*
X2033Y1022D01*
X2032Y1023D01*
X2013Y1057D01*
X2012Y1058D01*
X2012Y1059D01*
X1996Y1096D01*
X1996Y1097D01*
X1996Y1098D01*
X1985Y1136D01*
X1985Y1137D01*
X1985Y1139D01*
X1980Y1178D01*
X1980Y1179D01*
X1980Y1180D01*
Y1220D01*
X1980Y1221D01*
X1980Y1222D01*
X1985Y1261D01*
X1985Y1263D01*
X1985Y1264D01*
X1996Y1302D01*
X1996Y1303D01*
X1996Y1304D01*
X2012Y1341D01*
X2012Y1342D01*
X2013Y1343D01*
X2032Y1377D01*
X2033Y1378D01*
X2034Y1379D01*
X2058Y1411D01*
X2059Y1412D01*
X2060Y1413D01*
X2087Y1440D01*
X2088Y1441D01*
X2089Y1442D01*
X2121Y1466D01*
X2122Y1467D01*
X2123Y1468D01*
X2157Y1487D01*
X2158Y1488D01*
X2159Y1488D01*
X2196Y1504D01*
X2197Y1504D01*
X2198Y1504D01*
X2236Y1515D01*
X2237Y1515D01*
X2239Y1515D01*
X2278Y1520D01*
X2279Y1520D01*
X2280Y1520D01*
D02*
G37*
G36*
X3179Y1337D02*
X3236Y1280D01*
X3179Y1223D01*
X3178Y1225D01*
X3166Y1245D01*
X3160Y1268D01*
Y1292D01*
X3166Y1315D01*
X3178Y1335D01*
X3179Y1337D01*
D02*
G37*
%LPD*%
D10*
X1610Y2840D02*
D03*
Y2640D02*
D03*
X3600Y1800D02*
D03*
Y2000D02*
D03*
X3400Y1800D02*
D03*
Y2000D02*
D03*
X1850Y2260D02*
D03*
Y2060D02*
D03*
X3020Y3320D02*
D03*
Y3520D02*
D03*
X1450Y2060D02*
D03*
Y2260D02*
D03*
X2400Y4540D02*
D03*
Y4340D02*
D03*
X2200Y4540D02*
D03*
Y4340D02*
D03*
X2000Y4540D02*
D03*
Y4340D02*
D03*
X1280Y4990D02*
D03*
Y5190D02*
D03*
X1000Y4990D02*
D03*
Y5190D02*
D03*
D11*
X1300Y1656D02*
D03*
X1100D02*
D03*
X1080Y2640D02*
D03*
X1280D02*
D03*
X1080Y2840D02*
D03*
X1280D02*
D03*
X2010Y3730D02*
D03*
X1810D02*
D03*
X2488Y2291D02*
D03*
X2688D02*
D03*
X2488Y2091D02*
D03*
X2688D02*
D03*
D12*
X2150Y2280D02*
D03*
X2245Y2040D02*
D03*
X2055D02*
D03*
X2500Y4850D02*
D03*
X2405Y5090D02*
D03*
X2595D02*
D03*
X2100Y4850D02*
D03*
X2005Y5090D02*
D03*
X2195D02*
D03*
D13*
X3840Y5030D02*
D03*
X3420D02*
D03*
D14*
X3400Y3817D02*
D03*
X3630D02*
D03*
X3860D02*
D03*
D15*
X3630Y4403D02*
D03*
D16*
X1867Y2785D02*
D03*
Y2835D02*
D03*
Y2885D02*
D03*
Y2935D02*
D03*
Y2985D02*
D03*
Y3035D02*
D03*
Y3085D02*
D03*
Y3135D02*
D03*
Y3185D02*
D03*
Y3235D02*
D03*
Y3285D02*
D03*
Y3335D02*
D03*
X2712D02*
D03*
Y3285D02*
D03*
Y3235D02*
D03*
Y3185D02*
D03*
Y3135D02*
D03*
Y3085D02*
D03*
Y3035D02*
D03*
Y2985D02*
D03*
Y2935D02*
D03*
Y2885D02*
D03*
Y2835D02*
D03*
Y2785D02*
D03*
D17*
X2015Y3483D02*
D03*
X2065D02*
D03*
X2115D02*
D03*
X2165D02*
D03*
X2215D02*
D03*
X2265D02*
D03*
X2315D02*
D03*
X2365D02*
D03*
X2415D02*
D03*
X2465D02*
D03*
X2515D02*
D03*
X2565D02*
D03*
Y2638D02*
D03*
X2515D02*
D03*
X2465D02*
D03*
X2415D02*
D03*
X2365D02*
D03*
X2315D02*
D03*
X2265D02*
D03*
X2215D02*
D03*
X2165D02*
D03*
X2115D02*
D03*
X2065D02*
D03*
X2015D02*
D03*
D18*
X1648Y2275D02*
D03*
Y2045D02*
D03*
D19*
X2035Y1860D02*
D03*
X2265D02*
D03*
D20*
X3490Y3540D02*
D03*
X3770D02*
D03*
Y4680D02*
D03*
X3490D02*
D03*
Y3280D02*
D03*
X3770D02*
D03*
D21*
X2440Y6380D02*
X1335Y5275D01*
Y5245D02*
Y5275D01*
Y5245D02*
X1280Y5190D01*
X3000Y1530D02*
Y1550D01*
X3250Y1280D02*
X3000Y1530D01*
Y1550D02*
Y2340D01*
Y1550D02*
X870D01*
X720Y1700D01*
X3370Y800D02*
X1000D01*
X3850Y1280D02*
X3370Y800D01*
X1000D02*
X600Y1200D01*
X670Y2020D02*
X600Y1950D01*
Y1200D02*
Y1950D01*
X1180Y2020D02*
X670D01*
X1550Y1740D02*
X1160Y2130D01*
X290D02*
X150Y2270D01*
X1160Y2130D02*
X290D01*
X1510Y1690D02*
X1180Y2020D01*
X2129Y1690D02*
X1510D01*
X2200Y1740D02*
X1550D01*
X3000Y2340D02*
X2570Y2770D01*
X2570Y1690D02*
X2129D01*
X2688Y1808D02*
Y2091D01*
Y1808D02*
X2570Y1690D01*
X1781Y2835D02*
X1776Y2830D01*
X1867Y2835D02*
X1781D01*
X1776Y2830D02*
X1750D01*
X1740Y2840D02*
X1610D01*
X1750Y2830D02*
X1740Y2840D01*
X1590Y2820D02*
X1500D01*
X1610Y2840D02*
X1590Y2820D01*
X1460Y2530D02*
Y2780D01*
X1500Y2820D02*
X1460Y2780D01*
Y2530D02*
X1350Y2420D01*
X720D01*
X2365Y2770D02*
Y3165D01*
Y2638D02*
Y2770D01*
X2570D02*
X2365D01*
X1150Y5560D02*
Y5930D01*
X910Y6170D02*
Y6193D01*
X833Y6270D02*
X770D01*
X910Y6193D02*
X833Y6270D01*
X1150Y5930D02*
X910Y6170D01*
X680Y6097D02*
Y6193D01*
X756Y6256D02*
X744D01*
X820Y5957D02*
X680Y6097D01*
X744Y6256D02*
X680Y6193D01*
X770Y6270D02*
X756Y6256D01*
X820Y5500D02*
X150Y4830D01*
X820Y5500D02*
Y5957D01*
X150Y2270D02*
Y4830D01*
X2245Y1785D02*
X2200Y1740D01*
X2245Y1785D02*
Y1840D01*
X2265Y1860D02*
X2245Y1840D01*
X1610Y2640D02*
X1600Y2630D01*
X1867Y2755D02*
X1752Y2640D01*
X1610D01*
X1867Y2755D02*
Y2785D01*
X600Y2800D02*
Y2900D01*
X720Y3020D02*
X600Y2900D01*
X720Y2420D02*
X715Y2425D01*
X635D02*
X490Y2570D01*
Y4437D01*
X715Y2425D02*
X635D01*
X2375Y3175D02*
X2365Y3165D01*
X2485Y3285D02*
X2375Y3175D01*
X2235D02*
X2065Y3345D01*
Y3483D01*
X2375Y3175D02*
X2235D01*
X2712Y3285D02*
X2485D01*
X2370Y2291D02*
X2351D01*
X2488D02*
X2370D01*
X2365Y2530D02*
Y2571D01*
X2365Y2571D01*
Y2638D01*
X2415Y2551D02*
Y2638D01*
X2460Y2460D02*
X2420Y2500D01*
X2370Y2291D02*
Y2525D01*
X2420Y2500D02*
Y2546D01*
X2370Y2525D02*
X2365Y2530D01*
X2420Y2546D02*
X2415Y2551D01*
X2265Y1860D02*
X2245Y1880D01*
Y2040D01*
Y2135D02*
X2220Y2160D01*
X2245Y2040D02*
Y2135D01*
X2488Y2091D02*
Y2291D01*
X2351D02*
X2220Y2160D01*
X1950D01*
X1850Y2060D01*
X1835Y2045D02*
X1648D01*
X1850Y2060D02*
X1835Y2045D01*
X1681Y5881D02*
Y6038D01*
X1698Y6056D02*
X1681Y6038D01*
Y5881D02*
X1360Y5560D01*
X1150D02*
X769Y5179D01*
X1360Y5560D02*
X1150D01*
X769Y4716D02*
Y5179D01*
Y4716D02*
X490Y4437D01*
X560Y3180D02*
Y3460D01*
X720Y3020D02*
X560Y3180D01*
X894Y3794D02*
X560Y3460D01*
X894Y3794D02*
Y5084D01*
X1000Y5190D02*
X894Y5084D01*
X2440Y6380D02*
X1480D01*
X3150D02*
X2440D01*
X2510Y5870D02*
X2425Y5785D01*
X2902Y6056D02*
X2717Y5870D01*
X2510D01*
X3263Y5840D02*
X3117D01*
X2902Y6056D01*
X3928Y5175D02*
X3263Y5840D01*
X3400Y6130D02*
X3150Y6380D01*
X4020Y5085D02*
X3930Y5175D01*
X3928D01*
X4070Y5140D02*
X3400Y5810D01*
Y6130D01*
X3940Y3550D02*
X3930Y3540D01*
X4020Y3630D02*
X3940Y3550D01*
X4020Y3630D02*
Y5085D01*
X4070Y3090D02*
Y5140D01*
X3930Y3540D02*
X3770D01*
Y3280D02*
Y3540D01*
X3175Y4695D02*
X3160Y4710D01*
X3190Y4680D02*
X3175Y4695D01*
X3400Y3817D02*
X3262D01*
X3175Y3905D01*
Y4695D01*
X3490Y4680D02*
X3190D01*
X3160Y4710D02*
Y5030D01*
X3420D02*
X3160D01*
X3100Y5090D01*
X2595D01*
X2195Y5070D02*
Y5077D01*
X2595Y5070D02*
X2580Y5055D01*
X2560D02*
X2505Y5000D01*
X2595Y5070D02*
Y5090D01*
X2580Y5055D02*
X2560D01*
X2505Y5000D02*
X2310D01*
X2210Y5062D02*
X2195Y5077D01*
X2248Y5062D02*
X2210D01*
X2195Y5077D02*
Y5090D01*
X2310Y5000D02*
X2248Y5062D01*
X2195Y5070D02*
X2180Y5055D01*
X2160D02*
X2095Y4990D01*
X2180Y5055D02*
X2160D01*
X2095Y4990D02*
X1963D01*
X1920Y5033D01*
Y5190D01*
X2090Y5360D02*
X1920Y5190D01*
X2288Y5480D02*
Y5505D01*
X2168Y5360D02*
X2090D01*
X2288Y5505D02*
X2285Y5507D01*
X2288Y5480D02*
X2168Y5360D01*
X2300Y5250D02*
X2090D01*
X2005Y5165D01*
X2405Y5145D02*
X2300Y5250D01*
X2290Y5537D02*
X2285Y5532D01*
Y5507D02*
Y5532D01*
X2290Y5537D02*
Y5654D01*
X2358Y5699D02*
X2335D01*
X2290Y5654D01*
X2425Y5766D02*
X2358Y5699D01*
X2425Y5766D02*
Y5785D01*
X4070Y1500D02*
Y2000D01*
Y1500D02*
X3850Y1280D01*
X3098Y3520D02*
X3020D01*
X2942D01*
X4070Y2000D02*
Y3090D01*
Y2000D02*
X3600D01*
X4070Y3090D02*
X3620D01*
X3600Y2000D02*
X3600Y2000D01*
X3400D01*
X2820Y3280D02*
X2815Y3285D01*
X2965Y3265D02*
X2938D01*
X2924Y3280D02*
X2820D01*
X2938Y3265D02*
X2924Y3280D01*
X2815Y3285D02*
X2712D01*
X3320Y3280D02*
X3209Y3391D01*
Y3409D01*
X3098Y3520D01*
X3490Y3280D02*
X3320D01*
X3020Y3320D02*
X2965Y3265D01*
X2942Y3520D02*
X2871Y3449D01*
Y3406D02*
Y3449D01*
Y3406D02*
X2800Y3335D01*
X2712D01*
X1280Y2640D02*
Y2840D01*
X1280Y2840D01*
X3490Y3220D02*
Y3280D01*
X1480Y6380D02*
X1245Y6145D01*
X3620Y3090D02*
X3490Y3220D01*
X1810Y3600D02*
Y3730D01*
X2015Y3483D02*
X1927D01*
X1810Y3600D01*
X1544Y4716D02*
X1531D01*
X1920Y4340D02*
X1544Y4716D01*
X2000Y4340D02*
X1920D01*
X1300Y5170D02*
X1280Y5190D01*
X1450Y5170D02*
X1300D01*
X1531Y5089D02*
X1450Y5170D01*
X1531Y4716D02*
Y5089D01*
X1160Y5190D02*
X1150Y5180D01*
X1280Y5190D02*
X1160D01*
X1140D02*
X1000D01*
X1150Y5180D02*
X1140Y5190D01*
X1150Y4590D02*
Y5180D01*
X1810Y3930D02*
X1150Y4590D01*
X1810Y3730D02*
Y3930D01*
X3960Y4490D02*
X3770Y4680D01*
X3960Y4240D02*
Y4490D01*
Y4240D02*
X3860Y4140D01*
Y3817D02*
Y4140D01*
X3630Y3817D02*
Y4403D01*
X3490Y3280D02*
Y3540D01*
X3630Y3680D02*
X3490Y3540D01*
X3630Y3680D02*
Y3817D01*
X3528Y5180D02*
X3430D01*
X3678Y5030D02*
X3528Y5180D01*
X3840Y5030D02*
X3678D01*
X3025Y5585D02*
X2425D01*
X3430Y5180D02*
X3025Y5585D01*
X2405Y5090D02*
Y5145D01*
X2640Y2460D02*
X2460D01*
X2688Y2412D02*
X2640Y2460D01*
X2688Y2291D02*
Y2412D01*
Y2091D02*
Y2291D01*
X2065Y3675D02*
X2010Y3730D01*
X2065Y3483D02*
Y3675D01*
X2425Y5585D02*
X2405Y5565D01*
Y5145D02*
Y5565D01*
X2005Y5090D02*
Y5165D01*
X3840Y4750D02*
X3770Y4680D01*
X3840Y4750D02*
Y5030D01*
D22*
X1450Y2260D02*
X340D01*
X210Y2390D01*
X1465Y2275D02*
X1450Y2260D01*
X2790Y1840D02*
Y2470D01*
X2623Y2638D02*
X2565D01*
X2790Y2470D02*
X2623Y2638D01*
X2790Y1840D02*
X2590Y1640D01*
X1316D01*
X1300Y1656D01*
X880Y5400D02*
Y6060D01*
X795Y6145D01*
X1450Y1930D02*
Y2060D01*
X1520Y1860D02*
X1450Y1930D01*
X2000Y2760D02*
Y2955D01*
X1950Y2650D02*
Y2710D01*
X2000Y2760D02*
X1950Y2710D01*
X2000Y2955D02*
X1970Y2985D01*
X1280Y2640D02*
X1160Y2520D01*
X679D01*
X600Y2599D01*
Y2800D01*
X1080Y2640D02*
X740D01*
X1060Y2820D02*
X720D01*
X1100Y1656D02*
X1078Y1678D01*
X1012D02*
X800Y1890D01*
X730D02*
X720Y1900D01*
X1078Y1678D02*
X1012D01*
X800Y1890D02*
X730D01*
X1080Y2840D02*
X1060Y2820D01*
X740Y2640D02*
X720Y2620D01*
X1867Y3035D02*
X1235D01*
X1180Y2740D02*
Y2980D01*
X1235Y3035D02*
X1180Y2980D01*
X1867Y3085D02*
X1195D01*
X1080Y2970D01*
Y2840D02*
Y2970D01*
X1970Y2985D02*
X1867D01*
X1950Y2650D02*
X1648Y2348D01*
Y2275D02*
Y2348D01*
X2091Y4940D02*
X1910D01*
X2490Y4850D02*
X2400Y4940D01*
X1910D02*
X1840Y5010D01*
Y5249D01*
X2175Y5585D02*
X1840Y5249D01*
X1860Y4850D02*
X1760Y4950D01*
Y5400D01*
X2100Y4850D02*
X1860D01*
X2144Y5785D02*
X1760Y5400D01*
X3650Y1280D02*
X3550Y1180D01*
X3409D01*
X3350Y1239D01*
Y1464D01*
X3400Y1514D02*
X3350Y1464D01*
X3400Y1514D02*
Y1800D01*
X3600Y1430D02*
Y1800D01*
Y1430D02*
X3450Y1280D01*
X2815Y3235D02*
X2712D01*
X3150Y2020D02*
Y2900D01*
X2815Y3235D01*
X3270Y1900D02*
X3150Y2020D01*
X3110Y2880D02*
X2805Y3185D01*
X2712D01*
X3110Y1970D02*
Y2880D01*
X3500Y1900D02*
X3270D01*
X3600Y1800D02*
X3500Y1900D01*
X3280Y1800D02*
X3110Y1970D01*
X3400Y1800D02*
X3280D01*
X1180Y2740D02*
X1080Y2640D01*
X1023Y4459D02*
Y4716D01*
X1540Y3942D02*
X1023Y4459D01*
X210Y2390D02*
Y4730D01*
X880Y5400D02*
X210Y4730D01*
X1414Y4390D02*
X1277Y4527D01*
X1660Y4390D02*
X1414D01*
X1277Y4527D02*
Y4716D01*
X1540Y3662D02*
Y3942D01*
X1240Y4753D02*
Y4950D01*
X1280Y4990D02*
X1240Y4950D01*
X1277Y4716D02*
X1240Y4753D01*
X1040Y4733D02*
Y4950D01*
X1000Y4990D01*
X1040Y4733D02*
X1023Y4716D01*
X1648Y2275D02*
X1465D01*
X2035Y1860D02*
X1520D01*
X2035D02*
Y2020D01*
X2055Y2040D02*
X2035Y2020D01*
X2315Y2445D02*
Y2638D01*
Y2445D02*
X2150Y2280D01*
X2130Y2260D01*
X1850D01*
X2115Y3935D02*
X1660Y4390D01*
X2115Y3556D02*
Y3935D01*
X2165Y3483D02*
Y3995D01*
X2115Y3483D02*
Y3556D01*
X1867Y3335D02*
X1540Y3662D01*
X2400Y4940D02*
X2091D01*
X2500Y4850D02*
X2490D01*
X2175Y5785D02*
X2144D01*
X2200Y4540D02*
X2000D01*
X2200D02*
Y4680D01*
X2100Y4780D01*
Y4850D01*
X2400Y4540D02*
Y4650D01*
X2500Y4750D02*
X2400Y4650D01*
X2500Y4750D02*
Y4850D01*
X2215Y3483D02*
Y3965D01*
X2400Y4150D02*
Y4340D01*
Y4150D02*
X2215Y3965D01*
X2200Y4030D02*
X2165Y3995D01*
X2200Y4030D02*
Y4340D01*
D23*
X3400Y2700D02*
G03*
X3600Y2500I200J0D01*
G01*
Y2900D02*
G03*
X3400Y2700I0J-200D01*
G01*
X3800D02*
G03*
X3600Y2900I-200J0D01*
G01*
Y2500D02*
G03*
X3800Y2700I0J200D01*
G01*
X2450Y1200D02*
G03*
X2300Y1350I-150J0D01*
G01*
D02*
G03*
X2150Y1200I0J-150D01*
G01*
D02*
G03*
X2300Y1050I150J0D01*
G01*
D02*
G03*
X2450Y1200I0J150D01*
G01*
X1200Y400D02*
G03*
X1000Y600I-200J0D01*
G01*
D02*
G03*
X800Y400I0J-200D01*
G01*
D02*
G03*
X1000Y200I200J0D01*
G01*
D02*
G03*
X1200Y400I0J200D01*
G01*
X-0Y5000D02*
G03*
X500Y5500I0J500D01*
G01*
X4100Y6500D02*
G03*
X500Y6500I-1800J-5250D01*
G01*
X4100Y5500D02*
G03*
X4600Y5000I500J0D01*
G01*
Y0D02*
X-0D01*
Y5000D01*
X500Y6500D02*
X500Y5500D01*
X4100D02*
Y6500D01*
X4600Y0D02*
Y5000D01*
D24*
X720Y1700D02*
D03*
Y1900D02*
D03*
Y2820D02*
D03*
Y2420D02*
D03*
Y3020D02*
D03*
Y2620D02*
D03*
X3650Y1280D02*
D03*
X3250D02*
D03*
X3850D02*
D03*
X3450D02*
D03*
D25*
X2175Y5785D02*
D03*
X2425D02*
D03*
X2175Y5585D02*
D03*
X795Y6145D02*
D03*
X1245D02*
D03*
D26*
X1698Y6056D02*
D03*
X2902D02*
D03*
D27*
X2425Y5585D02*
D03*
D28*
X1531Y4716D02*
D03*
D29*
X1277D02*
D03*
X1023D02*
D03*
X769D02*
D03*
D30*
X670Y5895D02*
D03*
X1370D02*
D03*
M02*
