G04*
G04 #@! TF.GenerationSoftware,Altium Limited,Altium Designer,22.3.1 (43)*
G04*
G04 Layer_Color=16711935*
%FSLAX42Y42*%
%MOMM*%
G71*
G04*
G04 #@! TF.SameCoordinates,4198B530-315D-40FA-A6EC-FFF3DE07C210*
G04*
G04*
G04 #@! TF.FilePolarity,Negative*
G04*
G01*
G75*
%ADD31C,1.60*%
%ADD32C,2.00*%
G04:AMPARAMS|DCode=33|XSize=2mm|YSize=2mm|CornerRadius=0.19mm|HoleSize=0mm|Usage=FLASHONLY|Rotation=270.000|XOffset=0mm|YOffset=0mm|HoleType=Round|Shape=RoundedRectangle|*
%AMROUNDEDRECTD33*
21,1,2.00,1.62,0,0,270.0*
21,1,1.62,2.00,0,0,270.0*
1,1,0.38,-0.81,-0.81*
1,1,0.38,-0.81,0.81*
1,1,0.38,0.81,0.81*
1,1,0.38,0.81,-0.81*
%
%ADD33ROUNDEDRECTD33*%
G04:AMPARAMS|DCode=34|XSize=1.8mm|YSize=1.8mm|CornerRadius=0.18mm|HoleSize=0mm|Usage=FLASHONLY|Rotation=180.000|XOffset=0mm|YOffset=0mm|HoleType=Round|Shape=RoundedRectangle|*
%AMROUNDEDRECTD34*
21,1,1.80,1.44,0,0,180.0*
21,1,1.44,1.80,0,0,180.0*
1,1,0.36,-0.72,0.72*
1,1,0.36,0.72,0.72*
1,1,0.36,0.72,-0.72*
1,1,0.36,-0.72,-0.72*
%
%ADD34ROUNDEDRECTD34*%
%ADD35C,3.40*%
%ADD36C,1.80*%
D31*
X4040Y3340D02*
D03*
Y2940D02*
D03*
Y3540D02*
D03*
Y3140D02*
D03*
Y2240D02*
D03*
Y1840D02*
D03*
Y2440D02*
D03*
Y2040D02*
D03*
Y1340D02*
D03*
Y1140D02*
D03*
D32*
X200Y3482D02*
D03*
Y3736D02*
D03*
Y3990D02*
D03*
D33*
Y4244D02*
D03*
D34*
X2175Y5585D02*
D03*
D35*
X1698Y6056D02*
D03*
X2902D02*
D03*
D36*
X2425Y5585D02*
D03*
X2175Y5785D02*
D03*
X2425D02*
D03*
M02*
