G04*
G04 #@! TF.GenerationSoftware,Altium Limited,Altium Designer,22.3.1 (43)*
G04*
G04 Layer_Physical_Order=2*
G04 Layer_Color=9720587*
%FSLAX42Y42*%
%MOMM*%
G71*
G04*
G04 #@! TF.SameCoordinates,4198B530-315D-40FA-A6EC-FFF3DE07C210*
G04*
G04*
G04 #@! TF.FilePolarity,Positive*
G04*
G01*
G75*
%ADD37C,0.30*%
%ADD39C,1.40*%
%ADD40C,1.80*%
G04:AMPARAMS|DCode=41|XSize=1.8mm|YSize=1.8mm|CornerRadius=0.09mm|HoleSize=0mm|Usage=FLASHONLY|Rotation=270.000|XOffset=0mm|YOffset=0mm|HoleType=Round|Shape=RoundedRectangle|*
%AMROUNDEDRECTD41*
21,1,1.80,1.62,0,0,270.0*
21,1,1.62,1.80,0,0,270.0*
1,1,0.18,-0.81,-0.81*
1,1,0.18,-0.81,0.81*
1,1,0.18,0.81,0.81*
1,1,0.18,0.81,-0.81*
%
%ADD41ROUNDEDRECTD41*%
G04:AMPARAMS|DCode=42|XSize=1.6mm|YSize=1.6mm|CornerRadius=0.08mm|HoleSize=0mm|Usage=FLASHONLY|Rotation=180.000|XOffset=0mm|YOffset=0mm|HoleType=Round|Shape=RoundedRectangle|*
%AMROUNDEDRECTD42*
21,1,1.60,1.44,0,0,180.0*
21,1,1.44,1.60,0,0,180.0*
1,1,0.16,-0.72,0.72*
1,1,0.16,0.72,0.72*
1,1,0.16,0.72,-0.72*
1,1,0.16,-0.72,-0.72*
%
%ADD42ROUNDEDRECTD42*%
%ADD43C,3.20*%
%ADD44C,1.60*%
%ADD45C,0.60*%
G36*
X2413Y6739D02*
X2640Y6729D01*
X2866Y6711D01*
X3091Y6683D01*
X3314Y6646D01*
X3536Y6599D01*
X3756Y6543D01*
X3973Y6479D01*
X4039Y6456D01*
X4039Y5500D01*
X4039Y5499D01*
X4039Y5498D01*
X4040Y5465D01*
X4041Y5462D01*
X4040Y5459D01*
X4049Y5394D01*
X4050Y5391D01*
X4051Y5387D01*
X4067Y5323D01*
X4069Y5320D01*
X4070Y5316D01*
X4095Y5255D01*
X4097Y5252D01*
X4099Y5248D01*
X4131Y5192D01*
X4134Y5189D01*
X4136Y5185D01*
X4176Y5133D01*
X4179Y5130D01*
X4181Y5127D01*
X4227Y5081D01*
X4230Y5079D01*
X4233Y5076D01*
X4285Y5036D01*
X4289Y5034D01*
X4292Y5031D01*
X4348Y4999D01*
X4352Y4997D01*
X4355Y4995D01*
X4416Y4970D01*
X4420Y4969D01*
X4423Y4967D01*
X4487Y4951D01*
X4491Y4950D01*
X4494Y4949D01*
X4539Y4943D01*
Y61D01*
X3634D01*
X3633Y81D01*
X3661Y85D01*
X3663Y85D01*
X3664Y85D01*
X3702Y96D01*
X3703Y96D01*
X3704Y96D01*
X3741Y112D01*
X3742Y112D01*
X3743Y113D01*
X3777Y132D01*
X3778Y133D01*
X3779Y134D01*
X3811Y158D01*
X3812Y159D01*
X3813Y160D01*
X3840Y187D01*
X3841Y188D01*
X3842Y189D01*
X3866Y221D01*
X3867Y222D01*
X3868Y223D01*
X3887Y257D01*
X3888Y258D01*
X3888Y259D01*
X3904Y296D01*
X3904Y297D01*
X3904Y298D01*
X3915Y336D01*
X3915Y337D01*
X3915Y339D01*
X3920Y378D01*
X3920Y379D01*
X3920Y380D01*
Y420D01*
X3920Y421D01*
X3920Y422D01*
X3915Y461D01*
X3915Y463D01*
X3915Y464D01*
X3904Y502D01*
X3904Y503D01*
X3904Y504D01*
X3888Y541D01*
X3888Y542D01*
X3887Y543D01*
X3868Y577D01*
X3867Y578D01*
X3866Y579D01*
X3842Y611D01*
X3841Y612D01*
X3840Y613D01*
X3813Y640D01*
X3812Y641D01*
X3811Y642D01*
X3779Y666D01*
X3778Y667D01*
X3777Y668D01*
X3743Y687D01*
X3742Y688D01*
X3741Y688D01*
X3704Y704D01*
X3703Y704D01*
X3702Y704D01*
X3664Y715D01*
X3663Y715D01*
X3661Y715D01*
X3622Y720D01*
X3621Y720D01*
X3620Y720D01*
X3580D01*
X3579Y720D01*
X3578Y720D01*
X3539Y715D01*
X3537Y715D01*
X3536Y715D01*
X3498Y704D01*
X3497Y704D01*
X3496Y704D01*
X3459Y688D01*
X3458Y688D01*
X3457Y687D01*
X3423Y668D01*
X3422Y667D01*
X3421Y666D01*
X3389Y642D01*
X3388Y641D01*
X3387Y640D01*
X3360Y613D01*
X3359Y612D01*
X3358Y611D01*
X3334Y579D01*
X3333Y578D01*
X3332Y577D01*
X3313Y543D01*
X3312Y542D01*
X3312Y541D01*
X3296Y504D01*
X3296Y503D01*
X3296Y502D01*
X3285Y464D01*
X3285Y463D01*
X3285Y461D01*
X3280Y422D01*
X3280Y421D01*
X3280Y420D01*
Y380D01*
X3280Y379D01*
X3280Y378D01*
X3285Y339D01*
X3285Y337D01*
X3285Y336D01*
X3296Y298D01*
X3296Y297D01*
X3296Y296D01*
X3312Y259D01*
X3312Y258D01*
X3313Y257D01*
X3332Y223D01*
X3333Y222D01*
X3334Y221D01*
X3358Y189D01*
X3359Y188D01*
X3360Y187D01*
X3387Y160D01*
X3388Y159D01*
X3389Y158D01*
X3421Y134D01*
X3422Y133D01*
X3423Y132D01*
X3457Y113D01*
X3458Y112D01*
X3459Y112D01*
X3496Y96D01*
X3497Y96D01*
X3498Y96D01*
X3536Y85D01*
X3537Y85D01*
X3539Y85D01*
X3567Y81D01*
X3566Y61D01*
X61D01*
Y4943D01*
X106Y4949D01*
X109Y4950D01*
X113Y4951D01*
X177Y4967D01*
X180Y4969D01*
X184Y4970D01*
X245Y4995D01*
X248Y4997D01*
X252Y4999D01*
X308Y5031D01*
X311Y5034D01*
X315Y5036D01*
X367Y5076D01*
X370Y5079D01*
X373Y5081D01*
X419Y5127D01*
X421Y5130D01*
X424Y5133D01*
X464Y5185D01*
X466Y5189D01*
X469Y5192D01*
X501Y5248D01*
X503Y5252D01*
X505Y5255D01*
X530Y5316D01*
X531Y5320D01*
X533Y5323D01*
X549Y5387D01*
X550Y5391D01*
X551Y5394D01*
X560Y5459D01*
X559Y5462D01*
X560Y5465D01*
X561Y5498D01*
X561Y5499D01*
X561Y5500D01*
X561Y6456D01*
X627Y6479D01*
X844Y6543D01*
X1064Y6599D01*
X1286Y6646D01*
X1509Y6683D01*
X1734Y6711D01*
X1960Y6729D01*
X2187Y6739D01*
X2413Y6739D01*
D02*
G37*
%LPC*%
G36*
X2920Y6235D02*
X2884D01*
X2849Y6229D01*
X2817Y6215D01*
X2787Y6195D01*
X2782Y6190D01*
X2902Y6070D01*
X3022Y6190D01*
X3017Y6195D01*
X2987Y6215D01*
X2955Y6229D01*
X2920Y6235D01*
D02*
G37*
G36*
X1716D02*
X1680D01*
X1645Y6229D01*
X1613Y6215D01*
X1583Y6195D01*
X1578Y6190D01*
X1698Y6070D01*
X1818Y6190D01*
X1813Y6195D01*
X1783Y6215D01*
X1751Y6229D01*
X1716Y6235D01*
D02*
G37*
G36*
X2768Y6176D02*
X2762Y6170D01*
X2742Y6141D01*
X2729Y6108D01*
X2722Y6073D01*
Y6038D01*
X2729Y6003D01*
X2742Y5970D01*
X2762Y5941D01*
X2768Y5935D01*
X2888Y6056D01*
X2768Y6176D01*
D02*
G37*
G36*
X3036Y6176D02*
X2916Y6056D01*
X3036Y5935D01*
X3042Y5941D01*
X3062Y5970D01*
X3075Y6003D01*
X3082Y6038D01*
Y6073D01*
X3075Y6108D01*
X3062Y6141D01*
X3042Y6170D01*
X3036Y6176D01*
D02*
G37*
G36*
X1832Y6176D02*
X1712Y6056D01*
X1832Y5935D01*
X1838Y5941D01*
X1858Y5970D01*
X1871Y6003D01*
X1878Y6038D01*
Y6073D01*
X1871Y6108D01*
X1858Y6141D01*
X1838Y6170D01*
X1832Y6176D01*
D02*
G37*
G36*
X1564D02*
X1558Y6170D01*
X1538Y6141D01*
X1525Y6108D01*
X1518Y6073D01*
Y6038D01*
X1525Y6003D01*
X1538Y5970D01*
X1558Y5941D01*
X1564Y5935D01*
X1684Y6056D01*
X1564Y6176D01*
D02*
G37*
G36*
X2902Y6041D02*
X2782Y5921D01*
X2787Y5916D01*
X2817Y5896D01*
X2849Y5882D01*
X2884Y5876D01*
X2920D01*
X2955Y5882D01*
X2987Y5896D01*
X3017Y5916D01*
X3022Y5921D01*
X2902Y6041D01*
D02*
G37*
G36*
X1698Y6041D02*
X1578Y5921D01*
X1583Y5916D01*
X1613Y5896D01*
X1645Y5882D01*
X1680Y5876D01*
X1716D01*
X1751Y5882D01*
X1783Y5896D01*
X1813Y5916D01*
X1818Y5921D01*
X1698Y6041D01*
D02*
G37*
G36*
X2188Y5885D02*
X2162D01*
X2136Y5878D01*
X2114Y5865D01*
X2111Y5862D01*
X2175Y5799D01*
X2239Y5862D01*
X2236Y5865D01*
X2214Y5878D01*
X2188Y5885D01*
D02*
G37*
G36*
X2253Y5848D02*
X2189Y5784D01*
X2253Y5721D01*
X2255Y5723D01*
X2268Y5746D01*
X2275Y5771D01*
Y5798D01*
X2268Y5823D01*
X2255Y5846D01*
X2253Y5848D01*
D02*
G37*
G36*
X2097Y5848D02*
X2095Y5846D01*
X2082Y5823D01*
X2075Y5798D01*
Y5771D01*
X2082Y5746D01*
X2095Y5723D01*
X2097Y5721D01*
X2161Y5784D01*
X2097Y5848D01*
D02*
G37*
G36*
X2438Y5885D02*
X2412D01*
X2386Y5878D01*
X2364Y5865D01*
X2345Y5846D01*
X2332Y5823D01*
X2325Y5798D01*
Y5771D01*
X2332Y5746D01*
X2345Y5723D01*
X2364Y5704D01*
X2379Y5695D01*
X2379Y5695D01*
Y5674D01*
X2379Y5674D01*
X2364Y5665D01*
X2345Y5646D01*
X2332Y5623D01*
X2325Y5598D01*
Y5571D01*
X2332Y5546D01*
X2345Y5523D01*
X2364Y5504D01*
X2386Y5491D01*
X2412Y5485D01*
X2438D01*
X2464Y5491D01*
X2486Y5504D01*
X2505Y5523D01*
X2518Y5546D01*
X2525Y5571D01*
Y5598D01*
X2518Y5623D01*
X2505Y5646D01*
X2486Y5665D01*
X2471Y5674D01*
X2471Y5674D01*
Y5695D01*
X2471Y5695D01*
X2486Y5704D01*
X2505Y5723D01*
X2518Y5746D01*
X2525Y5771D01*
Y5798D01*
X2518Y5823D01*
X2505Y5846D01*
X2486Y5865D01*
X2464Y5878D01*
X2438Y5885D01*
D02*
G37*
G36*
X2175Y5770D02*
X2111Y5707D01*
X2113Y5705D01*
X2113Y5702D01*
X2107Y5685D01*
X2103D01*
X2092Y5683D01*
X2083Y5677D01*
X2077Y5667D01*
X2074Y5656D01*
Y5512D01*
X2077Y5502D01*
X2083Y5492D01*
X2092Y5486D01*
X2103Y5484D01*
X2247D01*
X2258Y5486D01*
X2267Y5492D01*
X2273Y5502D01*
X2276Y5512D01*
Y5656D01*
X2273Y5667D01*
X2267Y5677D01*
X2258Y5683D01*
X2247Y5685D01*
X2243D01*
X2237Y5702D01*
X2237Y5705D01*
X2239Y5707D01*
X2175Y5770D01*
D02*
G37*
G36*
X2415Y5020D02*
X2395D01*
X2377Y5012D01*
X2370Y5006D01*
X2040D01*
X2033Y5012D01*
X2015Y5020D01*
X1995D01*
X1977Y5012D01*
X1963Y4998D01*
X1955Y4980D01*
Y4960D01*
X1963Y4942D01*
X1977Y4928D01*
X1995Y4920D01*
X2015D01*
X2033Y4928D01*
X2040Y4934D01*
X2370D01*
X2377Y4928D01*
X2395Y4920D01*
X2415D01*
X2433Y4928D01*
X2447Y4942D01*
X2455Y4960D01*
Y4980D01*
X2447Y4998D01*
X2433Y5012D01*
X2415Y5020D01*
D02*
G37*
G36*
X214Y4100D02*
X186D01*
X158Y4093D01*
X132Y4078D01*
X112Y4058D01*
X97Y4032D01*
X90Y4004D01*
Y3976D01*
X97Y3948D01*
X112Y3922D01*
X132Y3902D01*
X158Y3887D01*
X186Y3880D01*
X214D01*
X242Y3887D01*
X268Y3902D01*
X288Y3922D01*
X303Y3948D01*
X310Y3976D01*
Y4004D01*
X303Y4032D01*
X288Y4058D01*
X268Y4078D01*
X242Y4093D01*
X214Y4100D01*
D02*
G37*
G36*
Y3846D02*
X186D01*
X158Y3839D01*
X132Y3824D01*
X112Y3804D01*
X97Y3778D01*
X90Y3750D01*
Y3722D01*
X97Y3694D01*
X112Y3668D01*
X132Y3648D01*
X158Y3633D01*
X186Y3626D01*
X214D01*
X242Y3633D01*
X268Y3648D01*
X288Y3668D01*
X303Y3694D01*
X310Y3722D01*
Y3750D01*
X303Y3778D01*
X288Y3804D01*
X268Y3824D01*
X242Y3839D01*
X214Y3846D01*
D02*
G37*
G36*
X281Y4355D02*
X119D01*
X108Y4352D01*
X98Y4346D01*
X92Y4336D01*
X89Y4325D01*
Y4163D01*
X92Y4152D01*
X98Y4142D01*
X108Y4136D01*
X119Y4133D01*
X281D01*
X292Y4136D01*
X302Y4142D01*
X308Y4152D01*
X311Y4163D01*
Y4214D01*
X415D01*
X674Y3955D01*
Y3655D01*
X668Y3648D01*
X660Y3630D01*
Y3610D01*
X668Y3592D01*
X682Y3578D01*
X700Y3570D01*
X720D01*
X738Y3578D01*
X752Y3592D01*
X760Y3610D01*
Y3630D01*
X752Y3648D01*
X746Y3655D01*
Y3970D01*
X743Y3984D01*
X735Y3995D01*
X455Y4275D01*
X444Y4283D01*
X430Y4286D01*
X311D01*
Y4325D01*
X308Y4336D01*
X302Y4346D01*
X292Y4352D01*
X281Y4355D01*
D02*
G37*
G36*
X4052Y3630D02*
X4028D01*
X4005Y3624D01*
X3985Y3612D01*
X3983Y3611D01*
X4040Y3554D01*
X4097Y3611D01*
X4095Y3612D01*
X4075Y3624D01*
X4052Y3630D01*
D02*
G37*
G36*
X214Y3592D02*
X186D01*
X158Y3585D01*
X132Y3570D01*
X129Y3567D01*
X200Y3496D01*
X271Y3567D01*
X268Y3570D01*
X242Y3585D01*
X214Y3592D01*
D02*
G37*
G36*
X4111Y3597D02*
X4054Y3540D01*
X4111Y3483D01*
X4112Y3485D01*
X4124Y3505D01*
X4130Y3528D01*
Y3552D01*
X4124Y3575D01*
X4112Y3595D01*
X4111Y3597D01*
D02*
G37*
G36*
X3969D02*
X3968Y3595D01*
X3956Y3575D01*
X3950Y3552D01*
Y3528D01*
X3956Y3505D01*
X3968Y3485D01*
X3969Y3483D01*
X4026Y3540D01*
X3969Y3597D01*
D02*
G37*
G36*
X1960Y3470D02*
X1940D01*
X1922Y3462D01*
X1920Y3461D01*
X1918Y3462D01*
X1900Y3470D01*
X1880D01*
X1862Y3462D01*
X1860Y3461D01*
X1858Y3462D01*
X1840Y3470D01*
X1820D01*
X1802Y3462D01*
X1788Y3448D01*
X1780Y3430D01*
Y3420D01*
X1475Y3115D01*
X1467Y3104D01*
X1464Y3090D01*
Y2283D01*
X1462Y2282D01*
X1448Y2268D01*
X1440Y2250D01*
Y2230D01*
X1448Y2212D01*
X1462Y2198D01*
X1480Y2190D01*
X1490D01*
X1696Y1984D01*
X1707Y1976D01*
X1721Y1973D01*
X2410D01*
X2421Y1963D01*
X2439Y1956D01*
X2459D01*
X2477Y1963D01*
X2491Y1977D01*
X2499Y1996D01*
Y2016D01*
X2491Y2034D01*
X2477Y2048D01*
X2459Y2056D01*
X2439D01*
X2421Y2048D01*
X2417Y2045D01*
X1736D01*
X1540Y2240D01*
Y2250D01*
X1536Y2260D01*
Y3075D01*
X1830Y3370D01*
X1840D01*
X1858Y3378D01*
X1860Y3379D01*
X1862Y3378D01*
X1880Y3370D01*
X1900D01*
X1918Y3378D01*
X1920Y3379D01*
X1922Y3378D01*
X1940Y3370D01*
X1950D01*
X2085Y3235D01*
X2096Y3227D01*
X2110Y3224D01*
X2767D01*
X2774Y3218D01*
X2792Y3210D01*
X2802D01*
X2899Y3113D01*
X2911Y3105D01*
X2924Y3102D01*
X3695D01*
X3701Y3096D01*
X3720Y3088D01*
X3740D01*
X3758Y3096D01*
X3765Y3102D01*
X3827D01*
X3956Y2974D01*
X3950Y2952D01*
Y2928D01*
X3956Y2905D01*
X3968Y2885D01*
X3985Y2868D01*
X4004Y2857D01*
Y2757D01*
X3666Y2419D01*
X3659Y2408D01*
X3656Y2394D01*
Y2276D01*
X3649Y2270D01*
X3641Y2251D01*
Y2231D01*
X3649Y2213D01*
X3656Y2206D01*
Y2189D01*
X3659Y2175D01*
X3666Y2163D01*
X3956Y1874D01*
X3950Y1852D01*
Y1828D01*
X3956Y1805D01*
X3968Y1785D01*
X3985Y1768D01*
X4005Y1756D01*
X4028Y1750D01*
X4052D01*
X4075Y1756D01*
X4095Y1768D01*
X4112Y1785D01*
X4124Y1805D01*
X4130Y1828D01*
Y1852D01*
X4124Y1875D01*
X4112Y1895D01*
X4095Y1912D01*
X4075Y1924D01*
X4052Y1930D01*
X4028D01*
X4006Y1924D01*
X3987Y1944D01*
X3999Y1960D01*
X4005Y1956D01*
X4028Y1950D01*
X4052D01*
X4075Y1956D01*
X4095Y1968D01*
X4112Y1985D01*
X4124Y2005D01*
X4130Y2028D01*
Y2052D01*
X4124Y2075D01*
X4112Y2095D01*
X4095Y2112D01*
X4075Y2124D01*
X4052Y2130D01*
X4028D01*
X4005Y2124D01*
X3985Y2112D01*
X3968Y2095D01*
X3956Y2075D01*
X3950Y2052D01*
Y2028D01*
X3956Y2005D01*
X3960Y1999D01*
X3944Y1987D01*
X3727Y2203D01*
Y2206D01*
X3734Y2213D01*
X3741Y2231D01*
Y2251D01*
X3734Y2270D01*
X3727Y2276D01*
Y2379D01*
X4065Y2717D01*
X4073Y2729D01*
X4076Y2743D01*
Y2857D01*
X4095Y2868D01*
X4112Y2885D01*
X4124Y2905D01*
X4130Y2928D01*
Y2952D01*
X4124Y2975D01*
X4112Y2995D01*
X4095Y3012D01*
X4075Y3024D01*
X4052Y3030D01*
X4028D01*
X4006Y3024D01*
X3987Y3044D01*
X3999Y3060D01*
X4005Y3056D01*
X4028Y3050D01*
X4052D01*
X4075Y3056D01*
X4095Y3068D01*
X4112Y3085D01*
X4124Y3105D01*
X4130Y3128D01*
Y3152D01*
X4124Y3175D01*
X4112Y3195D01*
X4095Y3212D01*
X4075Y3224D01*
X4052Y3230D01*
X4028D01*
X4005Y3224D01*
X3985Y3212D01*
X3968Y3195D01*
X3956Y3175D01*
X3950Y3152D01*
Y3128D01*
X3956Y3105D01*
X3960Y3099D01*
X3944Y3087D01*
X3867Y3163D01*
X3856Y3171D01*
X3842Y3174D01*
X3765D01*
X3758Y3180D01*
X3740Y3188D01*
X3720D01*
X3701Y3180D01*
X3695Y3174D01*
X2939D01*
X2852Y3260D01*
Y3270D01*
X2845Y3288D01*
X2831Y3302D01*
X2812Y3310D01*
X2792D01*
X2774Y3302D01*
X2767Y3296D01*
X2125D01*
X2000Y3420D01*
Y3430D01*
X1992Y3448D01*
X1978Y3462D01*
X1960Y3470D01*
D02*
G37*
G36*
X4040Y3526D02*
X3983Y3469D01*
X3985Y3468D01*
X4005Y3456D01*
X4028Y3450D01*
X4052D01*
X4075Y3456D01*
X4095Y3468D01*
X4097Y3469D01*
X4040Y3526D01*
D02*
G37*
G36*
X285Y3553D02*
X214Y3482D01*
X285Y3411D01*
X288Y3414D01*
X303Y3440D01*
X310Y3468D01*
Y3496D01*
X303Y3524D01*
X288Y3550D01*
X285Y3553D01*
D02*
G37*
G36*
X115D02*
X112Y3550D01*
X97Y3524D01*
X90Y3496D01*
Y3468D01*
X97Y3440D01*
X112Y3414D01*
X115Y3411D01*
X186Y3482D01*
X115Y3553D01*
D02*
G37*
G36*
X200Y3468D02*
X129Y3397D01*
X132Y3394D01*
X158Y3379D01*
X186Y3372D01*
X214D01*
X242Y3379D01*
X268Y3394D01*
X271Y3397D01*
X200Y3468D01*
D02*
G37*
G36*
X4052Y3430D02*
X4028D01*
X4005Y3424D01*
X3985Y3412D01*
X3968Y3395D01*
X3956Y3375D01*
X3950Y3352D01*
Y3328D01*
X3956Y3305D01*
X3968Y3285D01*
X3985Y3268D01*
X4005Y3256D01*
X4028Y3250D01*
X4052D01*
X4075Y3256D01*
X4095Y3268D01*
X4112Y3285D01*
X4124Y3305D01*
X4130Y3328D01*
Y3352D01*
X4124Y3375D01*
X4112Y3395D01*
X4095Y3412D01*
X4075Y3424D01*
X4052Y3430D01*
D02*
G37*
G36*
X1020Y3020D02*
X980D01*
X979Y3020D01*
X978Y3020D01*
X939Y3015D01*
X937Y3015D01*
X936Y3015D01*
X898Y3004D01*
X897Y3004D01*
X896Y3004D01*
X859Y2988D01*
X858Y2988D01*
X857Y2987D01*
X823Y2968D01*
X822Y2967D01*
X821Y2966D01*
X789Y2942D01*
X788Y2941D01*
X787Y2940D01*
X760Y2913D01*
X759Y2912D01*
X758Y2911D01*
X734Y2879D01*
X733Y2878D01*
X732Y2877D01*
X713Y2843D01*
X712Y2842D01*
X712Y2841D01*
X696Y2804D01*
X696Y2803D01*
X696Y2802D01*
X685Y2764D01*
X685Y2763D01*
X685Y2761D01*
X680Y2722D01*
X680Y2721D01*
X680Y2720D01*
Y2680D01*
X680Y2679D01*
X680Y2678D01*
X685Y2639D01*
X685Y2637D01*
X685Y2636D01*
X696Y2598D01*
X696Y2597D01*
X696Y2596D01*
X712Y2559D01*
X712Y2558D01*
X713Y2557D01*
X732Y2523D01*
X733Y2522D01*
X734Y2521D01*
X758Y2489D01*
X759Y2488D01*
X760Y2487D01*
X787Y2460D01*
X788Y2459D01*
X789Y2458D01*
X821Y2434D01*
X822Y2433D01*
X823Y2432D01*
X857Y2413D01*
X858Y2412D01*
X859Y2412D01*
X896Y2396D01*
X897Y2396D01*
X898Y2396D01*
X936Y2385D01*
X937Y2385D01*
X939Y2385D01*
X978Y2380D01*
X979Y2380D01*
X980Y2380D01*
X1020D01*
X1021Y2380D01*
X1022Y2380D01*
X1061Y2385D01*
X1063Y2385D01*
X1064Y2385D01*
X1102Y2396D01*
X1103Y2396D01*
X1104Y2396D01*
X1141Y2412D01*
X1142Y2412D01*
X1143Y2413D01*
X1177Y2432D01*
X1178Y2433D01*
X1179Y2434D01*
X1211Y2458D01*
X1212Y2459D01*
X1213Y2460D01*
X1240Y2487D01*
X1241Y2488D01*
X1242Y2489D01*
X1266Y2521D01*
X1267Y2522D01*
X1268Y2523D01*
X1287Y2557D01*
X1288Y2558D01*
X1288Y2559D01*
X1304Y2596D01*
X1304Y2597D01*
X1304Y2598D01*
X1315Y2636D01*
X1315Y2637D01*
X1315Y2639D01*
X1320Y2678D01*
X1320Y2679D01*
X1320Y2680D01*
Y2720D01*
X1320Y2721D01*
X1320Y2722D01*
X1315Y2761D01*
X1315Y2763D01*
X1315Y2764D01*
X1304Y2802D01*
X1304Y2803D01*
X1304Y2804D01*
X1288Y2841D01*
X1288Y2842D01*
X1287Y2843D01*
X1268Y2877D01*
X1267Y2878D01*
X1266Y2879D01*
X1242Y2911D01*
X1241Y2912D01*
X1240Y2913D01*
X1213Y2940D01*
X1212Y2941D01*
X1211Y2942D01*
X1179Y2966D01*
X1178Y2967D01*
X1177Y2968D01*
X1143Y2987D01*
X1142Y2988D01*
X1141Y2988D01*
X1104Y3004D01*
X1103Y3004D01*
X1102Y3004D01*
X1064Y3015D01*
X1063Y3015D01*
X1061Y3015D01*
X1022Y3020D01*
X1021Y3020D01*
X1020Y3020D01*
D02*
G37*
G36*
X4052Y2530D02*
X4028D01*
X4005Y2524D01*
X3985Y2512D01*
X3983Y2511D01*
X4040Y2454D01*
X4097Y2511D01*
X4095Y2512D01*
X4075Y2524D01*
X4052Y2530D01*
D02*
G37*
G36*
X3969Y2497D02*
X3968Y2495D01*
X3956Y2475D01*
X3950Y2452D01*
Y2428D01*
X3956Y2405D01*
X3968Y2385D01*
X3969Y2383D01*
X4026Y2440D01*
X3969Y2497D01*
D02*
G37*
G36*
X4111Y2497D02*
X4054Y2440D01*
X4111Y2383D01*
X4112Y2385D01*
X4124Y2405D01*
X4130Y2428D01*
Y2452D01*
X4124Y2475D01*
X4112Y2495D01*
X4111Y2497D01*
D02*
G37*
G36*
X4040Y2426D02*
X3983Y2369D01*
X3985Y2368D01*
X4005Y2356D01*
X4028Y2350D01*
X4052D01*
X4075Y2356D01*
X4095Y2368D01*
X4097Y2369D01*
X4040Y2426D01*
D02*
G37*
G36*
X4052Y2330D02*
X4028D01*
X4005Y2324D01*
X3985Y2312D01*
X3968Y2295D01*
X3956Y2275D01*
X3950Y2252D01*
Y2228D01*
X3956Y2205D01*
X3968Y2185D01*
X3985Y2168D01*
X4005Y2156D01*
X4028Y2150D01*
X4052D01*
X4075Y2156D01*
X4095Y2168D01*
X4112Y2185D01*
X4124Y2205D01*
X4130Y2228D01*
Y2252D01*
X4124Y2275D01*
X4112Y2295D01*
X4095Y2312D01*
X4075Y2324D01*
X4052Y2330D01*
D02*
G37*
G36*
X1720Y2750D02*
X1700D01*
X1682Y2742D01*
X1668Y2728D01*
X1660Y2710D01*
Y2690D01*
X1668Y2672D01*
X1682Y2658D01*
X1692Y2653D01*
X1692Y2632D01*
X1681Y2627D01*
X1667Y2613D01*
X1659Y2595D01*
Y2575D01*
X1667Y2557D01*
X1681Y2543D01*
X1699Y2535D01*
X1709D01*
X2039Y2205D01*
X2051Y2197D01*
X2064Y2194D01*
X3125D01*
X3132Y2188D01*
X3150Y2180D01*
X3170D01*
X3184Y2186D01*
X3198Y2180D01*
X3204Y2175D01*
Y2135D01*
X3160Y2090D01*
X3150D01*
X3132Y2082D01*
X3118Y2068D01*
X3110Y2050D01*
Y2030D01*
X3118Y2012D01*
X3132Y1998D01*
X3150Y1990D01*
X3170D01*
X3188Y1998D01*
X3202Y2012D01*
X3210Y2030D01*
Y2040D01*
X3265Y2095D01*
X3273Y2106D01*
X3276Y2120D01*
Y2250D01*
X3273Y2264D01*
X3265Y2275D01*
X3215Y2325D01*
X3204Y2333D01*
X3190Y2336D01*
X2095D01*
X1816Y2615D01*
Y2640D01*
X1813Y2654D01*
X1805Y2665D01*
X1760Y2711D01*
X1752Y2728D01*
X1738Y2742D01*
X1720Y2750D01*
D02*
G37*
G36*
X2600Y1686D02*
X2586Y1683D01*
X2575Y1675D01*
X2573Y1673D01*
X2572Y1672D01*
X2558Y1658D01*
X2550Y1640D01*
Y1620D01*
X2558Y1602D01*
X2572Y1588D01*
X2590Y1580D01*
X2610D01*
X2628Y1588D01*
X2642Y1602D01*
X2650Y1620D01*
Y1640D01*
X2642Y1658D01*
X2628Y1672D01*
X2627Y1673D01*
X2625Y1675D01*
X2614Y1683D01*
X2600Y1686D01*
D02*
G37*
G36*
X2320Y1520D02*
X2280D01*
X2279Y1520D01*
X2278Y1520D01*
X2239Y1515D01*
X2237Y1515D01*
X2236Y1515D01*
X2198Y1504D01*
X2197Y1504D01*
X2196Y1504D01*
X2159Y1488D01*
X2158Y1488D01*
X2157Y1487D01*
X2123Y1468D01*
X2122Y1467D01*
X2121Y1466D01*
X2089Y1442D01*
X2088Y1441D01*
X2087Y1440D01*
X2060Y1413D01*
X2059Y1412D01*
X2058Y1411D01*
X2034Y1379D01*
X2033Y1378D01*
X2032Y1377D01*
X2013Y1343D01*
X2012Y1342D01*
X2012Y1341D01*
X1996Y1304D01*
X1996Y1303D01*
X1996Y1302D01*
X1985Y1264D01*
X1985Y1263D01*
X1985Y1261D01*
X1980Y1222D01*
X1980Y1221D01*
X1980Y1220D01*
Y1180D01*
X1980Y1179D01*
X1980Y1178D01*
X1985Y1139D01*
X1985Y1137D01*
X1985Y1136D01*
X1996Y1098D01*
X1996Y1097D01*
X1996Y1096D01*
X2012Y1059D01*
X2012Y1058D01*
X2013Y1057D01*
X2032Y1023D01*
X2033Y1022D01*
X2034Y1021D01*
X2058Y989D01*
X2059Y988D01*
X2060Y987D01*
X2087Y960D01*
X2088Y959D01*
X2089Y958D01*
X2121Y934D01*
X2122Y933D01*
X2123Y932D01*
X2157Y913D01*
X2158Y912D01*
X2159Y912D01*
X2196Y896D01*
X2197Y896D01*
X2198Y896D01*
X2236Y885D01*
X2237Y885D01*
X2239Y885D01*
X2278Y880D01*
X2279Y880D01*
X2280Y880D01*
X2320D01*
X2321Y880D01*
X2322Y880D01*
X2361Y885D01*
X2363Y885D01*
X2364Y885D01*
X2402Y896D01*
X2403Y896D01*
X2404Y896D01*
X2441Y912D01*
X2442Y912D01*
X2443Y913D01*
X2477Y932D01*
X2478Y933D01*
X2479Y934D01*
X2511Y958D01*
X2512Y959D01*
X2513Y960D01*
X2540Y987D01*
X2541Y988D01*
X2542Y989D01*
X2566Y1021D01*
X2567Y1022D01*
X2568Y1023D01*
X2587Y1057D01*
X2588Y1058D01*
X2588Y1059D01*
X2604Y1096D01*
X2604Y1097D01*
X2604Y1098D01*
X2615Y1136D01*
X2615Y1137D01*
X2615Y1139D01*
X2620Y1178D01*
X2620Y1179D01*
X2620Y1180D01*
Y1220D01*
X2620Y1221D01*
X2620Y1222D01*
X2615Y1261D01*
X2615Y1263D01*
X2615Y1264D01*
X2604Y1302D01*
X2604Y1303D01*
X2604Y1304D01*
X2588Y1341D01*
X2588Y1342D01*
X2587Y1343D01*
X2568Y1377D01*
X2567Y1378D01*
X2566Y1379D01*
X2542Y1411D01*
X2541Y1412D01*
X2540Y1413D01*
X2513Y1440D01*
X2512Y1441D01*
X2511Y1442D01*
X2479Y1466D01*
X2478Y1467D01*
X2477Y1468D01*
X2443Y1487D01*
X2442Y1488D01*
X2441Y1488D01*
X2404Y1504D01*
X2403Y1504D01*
X2402Y1504D01*
X2364Y1515D01*
X2363Y1515D01*
X2361Y1515D01*
X2322Y1520D01*
X2321Y1520D01*
X2320Y1520D01*
D02*
G37*
G36*
X4052Y1430D02*
X4028D01*
X4005Y1424D01*
X3985Y1412D01*
X3983Y1411D01*
X4040Y1354D01*
X4097Y1411D01*
X4095Y1412D01*
X4075Y1424D01*
X4052Y1430D01*
D02*
G37*
G36*
X3969Y1397D02*
X3968Y1395D01*
X3956Y1375D01*
X3950Y1352D01*
Y1328D01*
X3956Y1305D01*
X3968Y1285D01*
X3969Y1283D01*
X4026Y1340D01*
X3969Y1397D01*
D02*
G37*
G36*
X4111Y1397D02*
X4054Y1340D01*
X4111Y1283D01*
X4112Y1285D01*
X4124Y1305D01*
X4130Y1328D01*
Y1352D01*
X4124Y1375D01*
X4112Y1395D01*
X4111Y1397D01*
D02*
G37*
G36*
X4040Y1326D02*
X3983Y1269D01*
X3985Y1268D01*
X4005Y1256D01*
X4028Y1250D01*
X4052D01*
X4075Y1256D01*
X4095Y1268D01*
X4097Y1269D01*
X4040Y1326D01*
D02*
G37*
G36*
X4052Y1230D02*
X4028D01*
X4005Y1224D01*
X3985Y1212D01*
X3968Y1195D01*
X3956Y1175D01*
X3950Y1152D01*
Y1128D01*
X3956Y1105D01*
X3968Y1085D01*
X3985Y1068D01*
X4005Y1056D01*
X4028Y1050D01*
X4052D01*
X4075Y1056D01*
X4095Y1068D01*
X4112Y1085D01*
X4124Y1105D01*
X4130Y1128D01*
Y1152D01*
X4124Y1175D01*
X4112Y1195D01*
X4095Y1212D01*
X4075Y1224D01*
X4052Y1230D01*
D02*
G37*
%LPD*%
D37*
X1500Y2250D02*
Y3090D01*
X1830Y3420D01*
X1490Y2240D02*
X1500Y2250D01*
X210Y4250D02*
X430D01*
X710Y3970D01*
Y3620D02*
Y3970D01*
X3691Y2189D02*
Y2241D01*
Y2189D02*
X4040Y1840D01*
X3730Y3138D02*
X3842D01*
X4040Y2940D01*
X2110Y3260D02*
X2802D01*
X1950Y3420D02*
X2110Y3260D01*
X1890Y3420D02*
X1950D01*
X2802Y3260D02*
X2924Y3138D01*
X3730D01*
X2449Y2006D02*
Y2007D01*
X2447Y2009D02*
X2449Y2007D01*
X1721Y2009D02*
X2447D01*
X1490Y2240D02*
X1721Y2009D01*
X3691Y2241D02*
Y2394D01*
X4040Y2743D01*
Y2940D01*
X1709Y2585D02*
X2064Y2230D01*
X3160D01*
Y2040D02*
X3240Y2120D01*
Y2250D01*
X2080Y2300D02*
X3190D01*
X3240Y2250D01*
X1780Y2600D02*
X2080Y2300D01*
X1720Y2700D02*
X1780Y2640D01*
Y2600D02*
Y2640D01*
X1710Y2700D02*
X1720D01*
X2005Y4970D02*
X2405D01*
X1830Y3420D02*
X1890D01*
X2600Y1630D02*
Y1650D01*
D39*
X4040Y3340D02*
D03*
Y2940D02*
D03*
Y3540D02*
D03*
Y3140D02*
D03*
Y2240D02*
D03*
Y1840D02*
D03*
Y2440D02*
D03*
Y2040D02*
D03*
Y1340D02*
D03*
Y1140D02*
D03*
D40*
X200Y3482D02*
D03*
Y3736D02*
D03*
Y3990D02*
D03*
D41*
Y4244D02*
D03*
D42*
X2175Y5585D02*
D03*
D43*
X1698Y6056D02*
D03*
X2902D02*
D03*
D44*
X2425Y5585D02*
D03*
X2175Y5785D02*
D03*
X2425D02*
D03*
D45*
X2630Y5240D02*
D03*
X2210Y5230D02*
D03*
X3130Y2970D02*
D03*
X710Y3620D02*
D03*
X1950Y3420D02*
D03*
X2802Y3260D02*
D03*
X2449Y2006D02*
D03*
X3730Y3138D02*
D03*
X3691Y2241D02*
D03*
X1709Y2585D02*
D03*
X3160Y2230D02*
D03*
X1710Y2700D02*
D03*
X2100Y2400D02*
D03*
X3160Y2040D02*
D03*
X2300Y2400D02*
D03*
X2500D02*
D03*
Y2600D02*
D03*
X2300D02*
D03*
X2100D02*
D03*
X2500Y2800D02*
D03*
X2300D02*
D03*
X2100D02*
D03*
X2405Y4970D02*
D03*
X2005D02*
D03*
X1960Y5320D02*
D03*
X2110Y3420D02*
D03*
X1890D02*
D03*
X1830D02*
D03*
X1630Y2900D02*
D03*
X2600Y1630D02*
D03*
X1610Y2510D02*
D03*
X1490Y2240D02*
D03*
M02*
